<?xml version="1.0" encoding="UTF-8"?>
<svg xmlns="http://www.w3.org/2000/svg" xmlns:xlink="http://www.w3.org/1999/xlink" viewBox="0 0 1033.42 235.46">
  <defs>
    <style>
      .cls-1 {
        clip-path: url(#clippath-4);
      }

      .cls-1, .cls-2, .cls-3, .cls-4, .cls-5, .cls-6, .cls-7, .cls-8, .cls-9, .cls-10, .cls-11, .cls-12 {
        fill: none;
      }

      .cls-2 {
        clip-path: url(#clippath-2);
      }

      .cls-3 {
        mix-blend-mode: darken;
      }

      .cls-13, .cls-14 {
        fill: #fff;
      }

      .cls-4 {
        clip-path: url(#clippath-6);
      }

      .cls-14, .cls-15, .cls-16 {
        fill-rule: evenodd;
      }

      .cls-15 {
        fill: #ff6c0e;
      }

      .cls-5 {
        clip-path: url(#clippath-7);
      }

      .cls-6 {
        clip-path: url(#clippath-5);
      }

      .cls-7 {
        isolation: isolate;
      }

      .cls-8 {
        clip-path: url(#clippath-3);
      }

      .cls-16, .cls-17 {
        fill: #54565a;
      }

      .cls-10 {
        clip-path: url(#clippath);
      }

      .cls-11 {
        clip-path: url(#clippath-1);
      }

      .cls-12 {
        clip-path: url(#clippath-8);
      }
    </style>
    <clipPath id="clippath">
      <rect class="cls-9" x="166.72" y="46.15" width="137.57" height="143.25"/>
    </clipPath>
    <clipPath id="clippath-1">
      <rect class="cls-9" x="322.07" y="46.72" width="130.58" height="142.68"/>
    </clipPath>
    <clipPath id="clippath-2">
      <rect class="cls-9" x="470.39" y="46.72" width="131.67" height="142.68"/>
    </clipPath>
    <clipPath id="clippath-3">
      <rect class="cls-9" x="762" y="46.72" width="158.85" height="188.74"/>
    </clipPath>
    <clipPath id="clippath-4">
      <rect class="cls-9" x="930.29" y=".92" width="31.51" height="188.48"/>
    </clipPath>
    <clipPath id="clippath-5">
      <rect class="cls-9" x="619.85" y=".92" width="132.72" height="188.48"/>
    </clipPath>
    <clipPath id="clippath-6">
      <rect class="cls-9" x="980.85" y=".92" width="19.71" height="25.78"/>
    </clipPath>
    <clipPath id="clippath-7">
      <rect class="cls-9" x="1005.24" y=".92" width="28.19" height="25.78"/>
    </clipPath>
    <clipPath id="clippath-8">
      <rect class="cls-9" width="161.91" height="189.88"/>
    </clipPath>
  </defs>
  <g class="cls-7">
    <g id="Layer_2" data-name="Layer 2">
      <g id="Layer_1-2" data-name="Layer 1">
        <g>
          <path class="cls-14" d="m219.98,51.96v.04l3.23-.26,3.02-.17,2.84-.09,2.84-.04,2.67-.04h6.51l4.06.09,4.02.17,4.15.26v-.04l3.8.39,3.85.48,3.63.7,3.89.92,3.19.96,3.58,1.31,3.19,1.49,2.84,1.62,2.62,1.84,2.27,1.88,2.23,2.23,1.57,1.84,1.84,2.53,1.49,2.49,1.05,2.1,1.18,2.93.87,2.58h-.04l.83,3.02.61,2.88h.04l.44,2.8.35,3.1h-.04l.26,3.36.13,3.19.04,3.15-.04,1.97-.09,2.27-.17,1.79-.31,2.27-.31,1.53-.61,2.01-.61,1.53-.79,1.44-1.22,1.84-.87,1.01-1.57,1.35-1.01.7-1.31.66-1.18.44-1.62.44-1.35.22-2.1.17-1.75.04h-88.1l-.09.09.13,7.43v.13l.09,2.32v.09l.13,2.4v.09l.17,2.4v.09l.22,2.4.04.09.26,2.32v.17l.31,2.14.04.09.31,1.88.04.26.39,1.88.92,2.84.13.44.96,2.27.26.48,1.14,2.05.35.57,1.31,1.79.39.44,1.44,1.57.44.44,1.57,1.35.35.31,1.66,1.18.48.31,1.79,1.01.44.17,1.84.83.44.22,1.92.66.35.09,1.97.52.35.09,2.05.39.22.04,2.05.31h.26l2.1.22.17.04,2.05.13h.13l2.1.09h66.77v13.72h-76.34l-2.58-.09-2.58-.13-2.71-.17-2.32-.26-2.4-.35-2.53-.52-2.67-.66-2.05-.66-2.67-1.05v.04l-1.92-.92v-.04l-2.53-1.4-.04-.04-1.88-1.27-2.14-1.75-2.23-2.05-1.75-1.92-1.88-2.49-1.66-2.67-1.7-3.28-.04-.13-1.31-3.15v-.04l-1.09-3.36-.87-3.41-.09-.26-.7-3.67-.61-3.93h-.04l-.44-3.85h.04l-.35-4.28-.22-4.15-.13-4.28-.09-4.28v-9.22l.09-4.59.13-4.46.22-4.28.35-4.28h-.04l.48-3.76.61-3.93.7-3.58.83-3.19.96-2.93,1.4-3.32,1.35-2.67,1.62-2.67,1.75-2.36,2.32-2.62,2.53-2.36,2.23-1.75,2.67-1.79,2.88-1.57,2.75-1.27,3.32-1.31,3.06-1.01,2.97-.74,3.28-.7,3.1-.57,3.36-.44,3.1-.35Zm18.53,13.2h-6.86l-2.05.04h-.17l-2.19.13h-.09l-2.23.17-.31.04-2.23.31-.26.04-2.32.44-.31.09-2.27.57-.35.09-2.27.74-.35.13-2.27.92-.44.22-2.19,1.14-.52.26-2.1,1.4-.39.31-2.01,1.66-.39.35-2.1,2.14-1.84,2.23-.35.48-1.27,2.01-.22.39-1.05,2.05-.22.57-.79,2.1-.17.44-.61,2.18-.09.35-.44,2.19-.04.44-.26,2.27-.04.22-.17,2.32v.09l-.13,2.36v.13l-.09,2.45v.09l-.13,7.78.09.09h70.84l1.75-.09,1.09-.17,1.27-.35.7-.26,1.09-.48.92-.52.87-.61.92-.79.7-.79.48-.66.57-.87.44-.87.39-.96.22-.66.26-1.01.13-.7.13-1.09.04-.17.09-1.05v-.22l.04-1.31-.17-3.15-.09-.52-.44-2.71-.13-.66-.74-2.53-.17-.52-.96-2.32-.22-.39-1.14-2.19-.31-.57-1.31-1.92-.22-.31-1.4-1.75-.35-.39-1.49-1.53-.39-.35-1.75-1.44-2.62-1.79-.44-.26-2.53-1.35-.52-.22-2.62-1.05-.44-.17-2.71-.83-.39-.09-2.75-.61-.31-.09-2.8-.44h-.26l-2.84-.31-.26-.04-2.8-.17h-.13l-2.75-.09Z"/>
          <g class="cls-3">
            <g class="cls-10">
              <path class="cls-16" d="m264.74,104.31c6.16,0,6.99-4.54,6.99-8.35,0-8.87-4.59-15.6-9.18-19.1-7.78-5.94-18-6.47-26.92-6.47-8.35,0-21.28-.26-29.89,9.44-6.47,7.25-6.21,15.08-6.47,24.47h65.46Zm-44.18,85.08c-14.55,0-31.77-1.31-43.61-18-9.44-13.5-10.23-33.12-10.23-52,0-26.66,1.35-46.32,16.96-59.78,15.6-13.46,39.85-13.46,53.31-13.46,16.69,0,33.91.83,47.11,9.18,16.69,10.49,20.19,28.27,20.19,46.32,0,7.25-.79,15.6-6.73,21.54-4.28,4.28-9.66,5.38-15.34,5.38h-82.94c0,6.21.83,15.34,1.88,19.67,4.06,15.34,17.26,16.96,28.84,16.96h69.75v24.21h-79.18Z"/>
            </g>
          </g>
          <polygon class="cls-14" points="327.32 67.26 327.32 66.99 327.4 65.77 327.53 64.11 327.75 62.58 327.97 61.58 328.5 59.83 328.89 59.04 329.72 57.69 330.33 56.9 331.73 55.55 332.69 54.8 334.09 54.02 335.62 53.36 336.71 53.01 338.46 52.57 340.21 52.31 341.69 52.14 343.62 52.01 345.23 51.96 398.77 51.96 402.09 52.01 405.32 52.09 408.6 52.27 408.6 52.22 411.44 52.53 414.63 52.97 417.25 53.45 420.27 54.19 422.8 54.93 425.47 55.98 427.91 57.16 430.62 58.74 432.68 60.18 435.34 62.36 436.43 63.41 438.01 65.07 439.14 66.47 440.28 67.96 441.59 70.05 442.55 71.8 443.6 74.12 444.61 76.61 445.39 79.01 446.05 81.63 446.66 84.87 447.01 87.97 447.32 91.82 447.4 95.57 447.4 184.15 426.38 184.15 426.38 104.84 426.34 101.65 426.34 101.52 426.21 98.41 426.21 98.24 425.99 95.22 425.95 94.92 425.55 91.95 425.51 91.64 424.94 88.76 424.85 88.41 424.11 85.65 423.94 85.17 422.93 82.51 422.71 81.98 421.45 79.49 421.14 78.97 419.44 76.35 417.77 74.42 417.38 74.07 415.81 72.59 415.41 72.24 413.71 70.93 413.23 70.58 411.35 69.44 410.74 69.14 408.64 68.22 408.25 68.09 405.98 67.3 405.41 67.13 402.87 66.56 402.48 66.47 399.73 66.08 399.42 66.03 396.36 65.77 396.06 65.77 392.69 65.68 359.04 65.68 357.91 65.77 357.08 65.9 355.98 66.16 355.02 66.51 353.97 66.99 352.84 67.69 351.26 68.96 350.04 70.8 349.56 71.76 349.08 72.94 348.82 73.81 348.55 75.04 348.42 75.73 348.34 76.91 348.34 77.31 348.34 78.49 348.34 184.15 327.32 184.15 327.32 68.52 327.32 67.26"/>
          <g class="cls-3">
            <g class="cls-11">
              <path class="cls-16" d="m322.07,68.52c0-4.33.26-10.79,4.54-15.34,5.94-6.73,15.64-6.47,21.85-6.47h50.34c14.81,0,28.54,1.35,39.85,11.58,7.52,6.73,13.98,17.48,13.98,37.15v93.96h-31.51v-84.52c0-9.44-.79-18.62-5.9-25.35-4.59-5.9-11.06-8.61-22.64-8.61h-32.03c-1.88,0-3.8,0-5.38,1.62-1.62,1.88-1.62,4.06-1.62,5.94v110.91h-31.51v-120.87Z"/>
            </g>
          </g>
          <path class="cls-14" d="m502.42,106.02v.04l2.32-.17,2.01-.09h69.05v-15.25l-.04-1.97v-.22l-.13-1.92-.04-.44-.31-1.97-.13-.48-.48-1.92-.17-.57-.74-1.97-.26-.61-1.01-1.92-.35-.57-1.49-2.14-1.75-1.88-.48-.48-1.62-1.35-.7-.48-1.7-1.01-.48-.26-1.79-.83-.61-.22-1.79-.57-.35-.13-1.79-.44-.57-.09-1.75-.22-.26-.04-1.75-.13h-.26l-1.7-.04h-65.16v-13.72h75.6l3.98.17,3.1.35,3.5.7,3.36.92,2.67,1.05,2.93,1.4,2.53,1.49,2.23,1.7,1.57,1.44,1.66,1.88,1.35,2.01,1.05,1.88,1.4,2.97,1.01,2.62.87,3.1.79,3.5.57,3.8.39,4.33.13,4.28v75.25l-.09,1.75h.04l-.17,1.44-.22,1.57-.39,1.97-.35,1.4-.52,1.31-.79,1.62-.74,1.18-.87,1.01-1.01.87-1.18.74-1.66.83-1.18.44-1.49.39-1.97.39-1.66.17-2.1.17-1.88.09h-72.06l-2.14-.04-2.05-.09-2.4-.22-1.88-.22-2.36-.48-1.97-.52-1.97-.74-1.97-.96-1.84-1.05-1.53-1.22-1.97-1.88-1.66-2.05-1.14-1.7-1.4-2.49-.04-.09-.83-1.97-.13-.26-.87-2.49-.66-2.23-.7-2.88-.39-2.36-.39-2.8-.26-2.36-.17-2.62-.09-2.36-.09-2.4v-2.01l.04-2.75.09-2.8.17-2.88.22-2.36h.04l.44-2.84.52-2.45.61-2.05.87-2.4,1.14-2.45,1.05-1.84,1.49-2.1,1.79-2.1,1.66-1.62,2.32-1.84,2.1-1.4,2.14-1.09,1.7-.74,2.49-.83,1.7-.44,2.36-.44,1.84-.22Zm73.37,13.55h-59l-1.09.09-.09.04-1.27.13-.61.09-1.35.31-.35.09-1.49.44-.52.17-1.49.61-.61.31-1.44.83-.66.48-1.35,1.09-.57.48-1.49,1.62-.52.74-.04.04-.39.57-.26.39-.39.7-.13.31-.44.92-.13.31-.44,1.09-.17.48-.39,1.31-.09.31-.35,1.53-.04.31-.31,1.79-.04.17-.26,2.01-.04.31-.17,2.36v.31l-.04,2.75.04,1.62.04,1.75.04.35.17,1.84v.35l.31,1.92.04.22.39,1.97.09.35.52,1.92.22.61.74,1.79.22.48.92,1.7.52.74,1.4,1.84,1.57,1.4.57.39,1.49,1.01.52.35,1.7.87.57.22,1.88.7.57.17,1.92.48.83.17,2.23.17h45.32l1.18-.04.57-.04,1.22-.17.35-.09,1.22-.26.66-.17,1.22-.44,1.01-.48,1.7-1.05,1.4-1.44.66-.87.57-.92.39-.79.39-.96.31-1.05.17-1,.09-.48.09-1.05v-39.55Z"/>
          <g class="cls-3">
            <g class="cls-2">
              <path class="cls-16" d="m518.07,124.81c-2.14,0-8.08.26-11.58,4.85-1.09,1.31-3.5,5.11-3.5,15.34,0,4.28.52,11.84,4.28,15.86,2.19,2.18,6.21,4.33,10.23,4.33h43.92c1.88,0,4.85,0,6.99-1.62,2.14-1.88,2.14-3.76,2.14-5.94v-32.82h-52.48Zm43.87-78.09c12.1,0,23.16,4.28,29.63,11.01,5.9,6.21,10.49,17.79,10.49,33.69v74.03c0,5.11-.52,13.2-5.64,18.31-5.11,5.11-12.94,5.64-19.67,5.64h-68.13c-7.82,0-17.74,0-25.83-6.99-11.58-9.96-12.41-28.27-12.41-38.76,0-12.67,1.35-25.3,12.1-34.74,8.91-7.82,18.62-8.35,26.13-8.35h61.92v-9.96c0-4.33-.52-9.13-4.02-13.46-4.33-5.38-10.49-6.21-15.34-6.21h-70.31v-24.21h81.06Z"/>
            </g>
          </g>
          <polygon class="cls-14" points="770.13 51.96 791.06 51.96 837.56 163.13 843.02 163.18 892.23 52.49 912.77 52.49 832.4 230.21 811.99 230.21 831.31 188.92 770.13 51.96"/>
          <g class="cls-3">
            <g class="cls-8">
              <polygon class="cls-16" points="835.77 235.46 803.73 235.46 825.54 188.88 762 46.72 794.56 46.72 840.36 156.28 888.82 47.24 920.85 47.24 835.77 235.46"/>
            </g>
          </g>
          <rect class="cls-13" x="935.53" y="6.16" width="21.02" height="177.99"/>
          <g class="cls-3">
            <g class="cls-1">
              <rect class="cls-17" x="930.29" y=".92" width="31.51" height="188.48"/>
            </g>
          </g>
          <polygon class="cls-14" points="625.13 112.49 625.22 108.95 625.39 105.32 625.65 101.52 626.05 98.02 626.57 94.18 627.18 90.85 628.1 87.01 628.06 87.01 629.02 83.77 630.24 80.37 631.64 77.18 633.43 73.72 635.05 71.15 637.06 68.44 639.46 65.73 641.43 63.76 641.47 63.8 644.05 61.62 646.06 60.13 648.51 58.65 651.22 57.16 653.49 56.2 656.29 55.11 658.43 54.41 661.18 53.71 663.54 53.23 666.12 52.75 668.39 52.49 670.62 52.22 670.62 52.27 672.98 52.09 675.03 52 677 51.96 726.3 51.96 726.3 6.16 747.31 6.16 747.31 164.31 747.27 166.28 747.05 168.77 746.83 170.61 746.35 173.01 745.83 175.02 745.3 176.64 744.74 177.86 743.95 179.13 743.12 180.13 741.98 181.18 741.02 181.84 739.58 182.54 738.53 182.93 736.91 183.41 735.12 183.76 733.81 183.94 731.93 184.07 730.14 184.15 672.37 184.15 670.36 184.11 668.26 184.02 665.95 183.85 665.95 183.89 663.89 183.63 661.44 183.28 659.43 182.89 659.43 182.84 656.9 182.23 654.89 181.66 652.66 180.79 652.53 180.75 650.56 179.87 648.25 178.65 648.12 178.6 645.97 177.29 644.27 176.07 642.22 174.36 640.21 172.44 638.15 170.13 636.45 167.81 636.4 167.77 634.83 165.36 633.26 162.48 631.68 159.07 631.6 158.94 630.94 157.23 630.9 157.23 630.24 155.4 629.5 152.95 628.8 150.64 628.1 147.75 628.06 147.75 627.45 144.78 626.88 141.5 626.4 138.05 625.92 134.38 625.96 134.38 625.61 130.14 625.3 125.68 625.13 120.96 625.09 115.89 625.13 112.49"/>
          <g class="cls-3">
            <g class="cls-6">
              <path class="cls-16" d="m721.05.92v45.8h-42.26c-11.58,0-33.91,1.05-47.94,21.28-9.7,13.98-11.01,32.82-11.01,47.9,0,23.42,3.5,36.88,6.99,45.27,10.49,24.73,31.25,28.23,45.49,28.23h56.29c6.47,0,14.81-.52,19.67-7.25,2.93-4.02,4.28-11.58,4.28-17.79V.92h-31.51Z"/>
            </g>
          </g>
          <g class="cls-3">
            <g class="cls-4">
              <polygon class="cls-16" points="988.89 4.15 980.85 4.15 980.85 .92 1000.56 .92 1000.56 4.15 992.56 4.15 992.56 26.7 988.89 26.7 988.89 4.15"/>
            </g>
          </g>
          <g class="cls-3">
            <g class="cls-5">
              <polygon class="cls-16" points="1005.23 .92 1011.35 .92 1019.39 22.33 1027.35 .92 1033.42 .92 1033.42 26.7 1029.75 26.7 1029.75 4.37 1029.66 4.37 1021.14 26.7 1017.51 26.7 1008.99 4.37 1008.95 4.37 1008.95 26.7 1005.23 26.7 1005.23 .92"/>
            </g>
          </g>
          <path class="cls-15" d="m708.73,159.64s4.06-4.68,2.27-12.02c-1.79-7.39-5.72-8.87-5.72-23.95s9.18-19.23,9.48-30.5c.31-11.32-6.34-17.04-12.19-20.8-5.86-3.76-19.71-6.47-32.78,7.25-13.11,13.68-18.53,24.82-17.31,43.92,1.18,19.1,20.28,44.09,40.34,44.09,11.27,0,15.91-8,15.91-8"/>
          <path class="cls-14" d="m706.15,102.92l.79-1.49.83-1.62.44-1.01.61-1.7.39-1.31.17-1.01h-.04l.17-1.97-.04-1.88-.26-1.84-.48-2.05-.57-1.49-.57-1.18-.83-1.27-1.18-1.53-.79-.83-1.35-1.27-1.05-.87-1.4-1.01-1.18-.79-.96-.52-.87-.44-.96-.35-.96-.31-1.35-.31-1.53-.22-1.53-.09h-1.57l-1.31.13-1.75.31-2.1.61-1.44.52-2.1.96-1.7,1.05-2.01,1.4-1.92,1.57-2.14,2.1-2.84,3.06-2.32,2.71-2.19,2.8-2.01,2.88-1.66,2.84-1.27,2.49-1.27,3.1-.83,2.53-.74,3.1-.52,3.36-.31,3.54-.09,3.36v.13l.17,4.15.22,2.01.52,2.8.57,2.27h.04l.92,2.93.87,2.19.04.09,1.22,2.58.04.09,1.27,2.45.09.17,1.62,2.58,1.53,2.23,2.01,2.58,1.7,2.01,2.27,2.32,2.01,1.97,2.01,1.57,2.27,1.57.09.04,2.53,1.53,2.05,1.05,2.19.83,2.71.74,1.84.31,2.49.17,1.97-.13,1.35-.22,1.75-.48,1.31-.52,1.27-.66.66-.44,1.05-.79.7-.7.57-.57.39-.48.13-.17.26-.39.09-.13.09-.13.39-.48.13-.22.22-.35.26-.61.26-.7.26-.96.13-.74.09-1.18-.09-1.31-.22-1.14-.31-1.22-.22-.74-.39-.96-.39-.87-.48-1.05-.09-.22-.39-.96-.48-1.09-.04-.04-.48-1.14-.09-.31-.44-1.22-.13-.35-.39-1.4v-.04l-.39-1.49-.09-.44-.31-1.7-.04-.17-.26-1.88v-.22l-.22-2.1-.04-.22-.13-2.4v-.22l-.04-2.8.09-2.84.04-.48.31-2.45.04-.35.44-2.27.13-.48.61-2.1.09-.31.7-1.92.13-.26.79-1.84.09-.26.83-1.7.09-.13.87-1.66v-.04l.87-1.62Zm8.39,6.6l.87-1.62v-.04l.83-1.57.04-.04.83-1.62.13-.31.7-1.62.13-.31.61-1.7.09-.31.52-1.79.13-.66.31-1.88.09-.39.17-2.32-.04-2.97-.04-.66-.35-2.49-.09-.52-.57-2.32-.17-.52-.74-2.05-.26-.57-.96-1.92-.26-.48-1.14-1.75-.26-.39-1.22-1.57-.35-.35-1.35-1.44-.22-.26-1.4-1.31-.26-.22-1.44-1.18-.22-.17-1.49-1.09-.26-.17-1.57-1.01-1.27-.74-.35-.17-1.27-.61-.44-.17-1.4-.52-.26-.09-1.53-.48-.39-.13-1.7-.39-.39-.09-1.75-.26-.57-.04-1.92-.09h-2.18l-.57.04-2.05.22-.39.04-2.14.39-.44.09-2.19.61-.44.17-2.23.83-.35.13-2.27,1.05-.48.26-2.27,1.35-.35.22-2.32,1.62-.35.26-2.32,1.92-.31.26-2.4,2.36-2.97,3.19-.13.17-2.62,3.06-.17.17-2.36,3.02-.17.22-2.1,3.02-.22.35-1.79,3.06-.13.31-1.57,3.1-.17.35-1.31,3.19-.13.39-1.05,3.28-.13.39-.83,3.41-.09.39-.57,3.63-.04.39-.31,3.76v.31l-.09,4.02v.35l.17,4.46.35,2.93.04.39.52,2.84.09.35.74,2.84.04.26.92,2.93.17.39,1.18,2.88.13.31,1.35,2.84.09.17,1.49,2.84.17.31,1.7,2.75.13.17,1.84,2.71.17.31,2.01,2.58.17.17,2.1,2.45.22.26,2.27,2.32.17.13,2.32,2.19.31.26,2.49,2.01.31.26,2.53,1.75.26.17,2.62,1.57.35.17,2.71,1.35.48.22,2.75,1.05.48.17,2.8.79.52.09,2.84.48.57.09,3.1.17,2.8-.13.66-.09,2.23-.39.48-.09,2.05-.57.52-.17,1.79-.7.48-.22,1.62-.83.48-.31,1.4-.92.35-.22,1.18-.92.39-.35.96-.92.09-.09.83-.83.35-.39.57-.7.09-.13.44-.57.22-.26.26-.39.09-.13.09-.13.35-.48.35-.57.04-.09.44-.74.26-.48.44-.96.13-.31.44-1.14.17-.52.35-1.31.09-.44.26-1.49.09-.66.09-1.66v-.52l-.09-1.79-.09-.66-.39-2.14-.39-1.53-.09-.26-.39-1.22-.09-.26-.44-1.14-.13-.31-.48-1.05-.48-1.05-.35-.87-.04-.13-.44-1.05-.48-1.14-.22-.57-.39-1.4-.35-1.35-.04-.09-.22-1.27-.22-1.7h-.04l-.13-1.66-.13-2.4-.04-2.27v-.17l.09-2.27.22-1.79.44-2.19.39-1.4.7-1.92.57-1.31.83-1.7.79-1.49Z"/>
          <polygon class="cls-14" points="50.74 108.34 50.82 106.67 51.09 105.54 51.48 104.62 51.87 103.92 52.83 102.83 53.53 102.22 54.54 101.61 55.81 101.04 57.77 100.51 59.13 100.29 61.79 100.16 97.36 100.16 99.2 100.12 99.33 100.12 101.17 100.03 101.38 99.99 103.26 99.81 103.61 99.81 105.54 99.51 105.89 99.42 107.81 98.98 108.2 98.85 110.13 98.24 110.69 98.02 112.53 97.19 113.1 96.89 114.89 95.79 115.37 95.49 117.07 94.18 117.6 93.74 119.17 92.17 119.7 91.55 121.31 89.33 122.36 87.32 122.58 86.88 123.37 85 123.54 84.43 124.15 82.29 124.24 82.03 124.76 79.76 124.81 79.49 125.25 77.09 125.29 76.92 125.64 74.42 125.64 74.25 125.9 71.8 125.94 71.71 126.16 69.27 126.16 69.09 126.29 66.78 126.29 66.69 126.38 64.46 126.38 64.37 126.43 62.36 126.43 62.23 126.43 60.44 126.38 56.86 126.38 56.64 126.21 53.36 126.16 53.1 125.86 50.08 125.86 49.86 125.46 47.16 125.42 46.89 124.94 44.4 124.85 44.1 124.28 41.87 124.2 41.56 123.54 39.55 123.45 39.25 122.75 37.45 122.54 37.02 121.75 35.44 121.57 35.14 120.74 33.74 120.39 33.17 119.48 31.99 119.26 31.77 118.12 30.46 116.2 28.8 115.72 28.45 113.97 27.27 113.4 26.92 111.57 26 111 25.74 109.08 25.04 108.77 24.96 106.85 24.39 106.41 24.26 104.44 23.86 104.09 23.82 102.17 23.56 101.82 23.51 99.9 23.38 99.81 23.38 97.98 23.3 97.85 23.3 96.1 23.25 49.08 23.25 47.15 23.3 46.89 23.3 45.23 23.43 44.62 23.51 43.05 23.82 42.3 24.04 40.82 24.56 40.07 24.91 38.63 25.7 37.85 26.18 36.18 27.53 34.74 28.93 34.13 29.63 33.21 30.9 32.86 31.42 32.16 32.69 31.77 33.56 31.33 34.88 31.16 35.53 30.9 36.89 30.85 37.24 30.68 38.59 30.63 39.07 30.59 40.47 30.59 40.64 30.59 42.04 30.59 184.64 5.24 184.64 5.24 32.25 5.24 30.29 5.24 30.07 5.33 28.15 5.46 25.83 5.42 25.83 5.59 23.99 5.94 22.12 6.51 19.76 6.95 18.36 7.95 16.13 8.7 14.82 10.01 12.98 11.62 11.23 13.24 9.88 14.64 8.92 16.87 7.69 18.66 7 20.36 6.47 22.77 5.9 24.69 5.55 26.53 5.38 26.53 5.42 28.8 5.29 30.77 5.25 110.17 5.25 112.44 5.29 114.89 5.42 117.42 5.55 119.39 5.73 119.39 5.77 121.92 6.16 124.11 6.56 126.21 7.13 128.74 7.91 130.75 8.66 132.63 9.62 134.95 10.97 136.96 12.37 138.57 13.72 140.76 15.87 142.33 17.7 144.17 20.19 146.18 23.43 146.22 23.43 147.62 26.14 148.89 29.15 150.07 32.6 150.9 35.71 151.55 38.72 151.51 38.72 152.03 42.26 152.08 42.26 152.43 45.41 152.38 45.41 152.65 48.99 152.78 52.31 152.86 55.76 152.86 59.13 152.86 62.8 152.78 66.56 152.6 70.32 152.34 74.21 151.95 77.75 151.38 81.68 150.68 85.09 149.76 88.67 148.45 92.56 147.1 95.92 145.26 99.73 144.6 100.91 144.56 100.91 143.6 102.52 142.59 103.97 141.55 105.32 140.63 106.41 139.1 107.94 137.92 108.99 136.39 110.17 134.47 111.44 132.72 112.44 130.66 113.4 128.74 114.1 125.99 114.93 123.41 115.5 120.83 115.94 120.83 115.9 117.38 116.2 114.01 116.29 84.47 116.29 84.47 125.16 148.54 184.64 119 184.64 58.17 124.64 57.2 123.63 56.11 122.36 55.02 121.05 54.89 120.88 53.88 119.48 53.1 118.3 52.09 116.55 51.57 115.46 51.09 114.19 50.82 113.23 50.74 111.92 50.74 108.34"/>
          <g class="cls-3">
            <g class="cls-12">
              <path class="cls-16" d="m0,32.25C0,24.39.26,14.9,7.87,7.56,14.64,1.05,23.6,0,30.68,0h77.22C121.18,0,137.48.79,148.58,17.35c8.96,13.02,9.53,27.92,9.53,41.78s-.57,28.75-8.13,42.87c-4.89,9.22-14.12,19.53-35.83,19.53h-24.43v1.35l72.19,66.99h-45.05l-62.4-61.57c-3.8-3.8-8.96-10.58-8.96-15.99v-4.33c0-7.6,5.72-13.07,16.04-13.07h35.79c6.25,0,14.64-.79,19.53-8.39,3.8-5.99,4.33-19.53,4.33-26.05,0-14.9-2.97-22.51-6.77-26.31-5.68-5.68-14.38-5.68-20.06-5.68h-45.23c-3.8,0-6.51.26-9.48,2.97-3.8,3.23-3.8,6.77-3.8,10.58v147.84H0V32.25Z"/>
            </g>
          </g>
        </g>
      </g>
    </g>
  </g>
</svg>