<?xml version="1.0" encoding="UTF-8"?>
<svg id="Layer_2" data-name="Layer 2" xmlns="http://www.w3.org/2000/svg" viewBox="0 0 328.84 375.84">
  <defs>
    <style>
      .cls-1 {
        fill: #f7985a;
      }

      .cls-2 {
        fill: #f17238;
      }

      .cls-3 {
        fill: #f6985d;
      }

      .cls-4 {
        fill: #f3985d;
      }

      .cls-5 {
        fill: #fee5d4;
      }

      .cls-6 {
        fill: #fccba4;
      }

      .cls-7 {
        fill: #ec9b62;
      }

      .cls-8 {
        fill: #ec753d;
      }

      .cls-9 {
        fill: #f19a60;
      }

      .cls-10 {
        fill: #ef7239;
      }

      .cls-11 {
        fill: #fee0c3;
      }

      .cls-12 {
        fill: #f7985b;
      }

      .cls-13 {
        fill: #fedebf;
      }

      .cls-14 {
        fill: #e7783e;
      }

      .cls-15 {
        fill: #fed8bc;
      }

      .cls-16 {
        fill: #fef8df;
      }

      .cls-17 {
        fill: #fee4c7;
      }

      .cls-18 {
        fill: #f29a64;
      }

      .cls-19 {
        fill: #dd814f;
      }

      .cls-20 {
        fill: #de7441;
      }

      .cls-21 {
        fill: #eda97c;
      }

      .cls-22 {
        fill: #fee7d4;
      }

      .cls-23 {
        fill: #fefaf2;
      }

      .cls-24 {
        fill: #e97f4b;
      }

      .cls-25 {
        fill: #e2875c;
      }

      .cls-26 {
        fill: #eb743c;
      }

      .cls-27 {
        fill: #ea7542;
      }

      .cls-28 {
        fill: #fee4cd;
      }
    </style>
  </defs>
  <g id="Layer_1-2" data-name="Layer 1">
    <g>
      <path class="cls-5" d="m328.84,134.29v31.64c-.46.29-1.26.53-1.33.9-.36,1.88-.51,3.81-.78,5.71-.86,5.88-1.66,11.76-2.67,17.62-.55,3.15-1.45,6.25-2.27,9.35-.83,3.13-1.74,6.24-2.69,9.33-.17.56-1.16,1.31-1.06,1.46,1.26,1.71-.37,2.88-.68,4.28-.46,2.1-.8,4.23-1.23,6.33-.09.41-.3,1.03-.61,1.13-1.45.51-1.48,1.65-1.5,2.85,0,.45-.06.94-.24,1.34-1.27,2.84-2.6,5.66-3.89,8.5-.82,1.8-1.51,3.66-2.4,5.42-.87,1.72-1.98,3.32-2.87,5.03-1.65,3.16-3.05,6.45-4.85,9.52-2.42,4.12-5.49,7.9-7.51,12.19-.82,1.75-1.88,2.98-3,4.37-.87,1.07-1.35,2.45-2.21,3.53-1.3,1.63-2.9,3.03-4.16,4.69-1.15,1.51-1.85,3.38-3.06,4.83-1.85,2.2-4.24,3.98-5.92,6.29-3.72,5.11-8.63,9.04-13.08,13.38-3.2,3.13-6.47,6.28-10.09,9.05-6.21,4.75-12.17,9.82-18.48,14.45-2.96,2.17-5.84,4.47-8.86,6.56-1.86,1.29-3.93,2.29-5.89,3.46-3.75,2.25-7.47,4.55-11.22,6.8-1.17.7-2.36,1.37-3.57,1.98-.99.5-2.11.77-3.05,1.34-3.25,1.97-6.45,4.04-9.68,6.06-.39.25-.82.47-1.25.62-2.24.81-4.54,1.47-6.73,2.41-7.11,3.03-14.13,6.29-21.29,9.2-3.39,1.38-7.03,2.13-10.55,3.2-3.03.92-5.99,2.08-9.06,2.8-6.37,1.51-12.8,2.7-19.35,3.3-4.72.43-9.34,1-14.11.31-8.38-1.22-16.22-3.89-23.21-8.55-4.54-3.03-8.33-7.04-11.29-11.72-.12-.2-.22-.43-.37-.59-4.67-4.91-6.45-11.48-9.74-17.19-2.03-3.52-2.82-7.76-4.09-11.7-.38-1.17-.34-2.48-.7-3.65-1.84-5.97-3.96-11.86-5.56-17.89-1.58-5.95-2.79-12.01-3.93-18.06-.79-4.23-3.14-8.09-2.93-12.55.02-.32-.27-.64-.37-.98-.34-1.17-.71-2.33-.97-3.52-1.22-5.46-2.32-10.94-3.63-16.38-.62-2.59-1.75-5.06-2.36-7.66-1.02-4.36-1.59-8.84-2.76-13.16-1.43-5.29-3.33-10.46-4.95-15.71-1.85-6-3.61-12.03-5.44-18.04-1.45-4.74-2.94-9.47-4.41-14.2-2.63-8.47-5.17-16.97-7.92-25.41-2.71-8.33-5.32-16.68-6.82-25.33-.87-4.98-1.8-9.94-2.66-14.92-.38-2.18-.32-4.5-1.09-6.52-.76-1.99-1.05-3.91-1.01-5.96,0-4.34,0-8.68,0-13.02.68-4.3,1.22-8.63,2.1-12.89.72-3.47,1.79-6.87,2.81-10.28.62-2.09,1.19-4.25,2.22-6.14,1.69-3.11,3.75-6.02,5.64-9.03.44-.69.74-1.49,1.27-2.09,2.19-2.51,4.38-5.04,6.7-7.42,4.25-4.36,8.88-8.3,13.81-11.87,1.79-1.3,3.62-2.54,5.47-3.76,1.06-.7,2.19-1.32,3.29-1.97,2.65-1.56,5.3-3.12,8.04-4.73-.37-.99.66-1.23,1.7-1.53,1.6-.46,3.24-.86,4.76-1.51,2.46-1.04,4.79-2.44,7.29-3.37,3.78-1.39,7.65-2.53,11.49-3.74,5.31-1.67,10.58-3.47,15.96-4.9,4.28-1.14,8.67-1.88,13.03-2.64,3.04-.53,6.15-.7,9.2-1.19,7.57-1.21,15.12-2.48,22.83-2.35,6.71,0,13.41,0,20.12,0,6.45,0,12.85.34,19.2,1.68,6.05,1.28,12.16,2.39,18.29,3.14,6.04.74,11.82,2.31,17.57,4.16,4.52,1.45,9.08,2.75,13.56,4.33,3.25,1.14,6.41,2.57,9.57,3.96,4.54,2,9.07,4.03,13.56,6.15,2.63,1.24,5.16,2.68,7.74,4.03,1.12.59,2.29,1.11,3.36,1.77,3.17,1.97,6.29,4.02,9.46,5.99.63.39,1.56.42,2.02.92,2.38,2.61,4.94,4.95,8.25,6.35.25.1.42.39.62.59,2.59,2.54,5.17,5.09,7.79,7.6.84.81,1.9,1.41,2.67,2.26,2.43,2.67,4.78,5.4,7.14,8.12,1.7,1.95,3.92,3.51,4.55,6.25.1.43.49.79.76,1.17,3.54,4.93,6.97,9.95,9.53,15.45,2.16,4.66,4.13,9.42,5.86,14.25,2.12,5.93,3.88,11.98,4.63,18.29.61,5.14,1.4,10.26,2.21,15.37.07.41.88.71,1.35,1.06Zm-47.62,18.64c0-.12.02-.24.03-.35.09-.24.18-.48.27-.71,3.32-2.39,2.48-6.06,2.68-9.3.15-2.47-.27-4.98-.54-7.46-.17-1.53-.54-3.04-.79-4.57-.07-.43-.14-.95.04-1.32.91-1.88.79-3.67-.1-5.53-.34-.71-.44-1.56-.54-2.36-.26-2.25-.69-4.6-2.69-5.84-2.56-1.59-4.62-3.43-5.72-6.27-.15-.4-.74-.63-1.12-.94-.14-.32-.28-.64-.41-.96.04-.29.05-.59.14-.86.86-2.6.64-3.11-1.49-4.65-1.95-1.41-3.97-2.79-4.89-5.21-.11-.3-.73-.41-1.12-.61-.29-.35-.61-.68-.88-1.05-1.83-2.52-3.53-5.16-5.56-7.52-.76-.88-2.27-1.14-3.46-1.63-1.01-.42-2.1-.66-3.07-1.16-1.12-.57-2.12-1.36-3.21-1.99-.83-.48-1.7-.91-2.58-1.28-1.03-.44-2.09-.81-3.13-1.21-.15-.3-.23-.72-.47-.88-2.56-1.62-5.24-2.7-8.4-2.12-1.28.23-2.62.12-3.91.27-.36.04-.67.43-1.01.66-.69-.05-1.38-.1-2.07-.15-.63-.09-1.25-.24-1.88-.25-2.78-.05-5.57-.05-8.35-.07-.14-.29-.21-.76-.43-.85-1.37-.55-2.78-1.02-4.17-1.51-1.86.74-3.76,1.41-5.58,2.24-1.41.65-2.72,1.53-4.09,2.28-1.2.65-2.43,1.26-3.65,1.88-.65.33-1.36,1-1.95.9-1.52-.25-2.69.21-3.92.97-.72.45-1.63.67-2.48.84-2.84.55-4.88,2.53-5.12,5.34-.38,4.39-2.74,8.14-3.91,12.26-1.34.5-2.15,1.27-1.41,2.81-.12.59-.24,1.17-.35,1.76-1.02,1.28-1.22,2.69-.71,4.22,0,.23,0,.47,0,.7-.27.19-.72.34-.78.59-.38,1.45-.58,2.95-1.02,4.37-.26.83-.85,1.55-1.29,2.33-.57-.42-1.13-.84-1.7-1.25-.18-.13-.38-.22-.82-.48-1.22,2.93-2.26,5.73-2.17,8.87.05,1.89.55,3.89-2.49,4.34-1.73.26-3.48.17-4.45-1.38-.82-1.31-1.49-2.91-2.68-3.73-1.71-1.18-1.92-2.95-2.75-4.49-.25-.46-.85-.73-1.29-1.08-.18-1.29-.36-2.58-.53-3.87.87-2.7.67-5.25-1.05-7.59-.76-1.03-1.79-1.96-2.23-3.11-.94-2.42-3.16-3.02-5.1-4.06h0c-.13-.11-.26-.22-.38-.33-.71-.7-1.42-1.39-2.13-2.09-.73-1.41-1.53-2.8-2.17-4.25-.46-1.05-1.04-1.32-2.01-.7-.44-.14-.9-.22-1.31-.42-3.31-1.68-6.02-4.19-9.99-5.02-4.5-.95-8.79-.9-13.16-.15-2.44.42-4.75.85-7.21-.12-1.36-.54-2.97-.49-4.48-.62-1.33-.11-2.17.51-2.68,1.79-.25.63-.8,1.32-1.4,1.59-.94.43-2.03.77-3.05.75-3.34-.06-4.55,2.51-6.12,4.66-.24.11-.47.23-.71.34-.7.24-1.4.49-2.09.73h0c-.78.34-1.57.66-2.33,1.04-.52.26-.94.74-1.48.91-2.65.85-5.3,1.74-8,2.41-2.09.52-2.88,1.94-3.42,3.77-.29.99-.61,2.02-1.17,2.87-1.07,1.64-2.53,3.04-3.42,4.76-.7,1.36-1.89,3-.25,4.61-.23.25-.47.49-.7.74-2.37-.07-2.52.17-2.98,2.36-.25,1.2-.68,2.53-1.47,3.41-2.02,2.24-2.14,5.03-2.67,7.72-.05.26.26.6.4.9-.56,2.37-1.16,4.73-1.67,7.11-.57,2.67-1.19,5.34-1.55,8.03-.31,2.3-.27,4.65-.39,6.98-.35.65-.88,1.27-1.02,1.96-.24,1.19-.2,2.43-.33,3.64-.31,2.96-.46,5.89.73,8.74.24.58.14,1.37,0,2.02-1.22,5.7-1.86,11.38-.02,17.08.19.6.18,1.26.29,1.89.35,2,.65,4.01,1.09,5.99.18.83.71,1.58,1,2.39.79,2.16,1.37,4.42,2.37,6.48,1.14,2.36,2.75,4.45,1.94,7.37-.4,1.42-.1,2.94,1.18,4,1.3,1.07,2.75,1.98,3.9,3.19,1.04,1.1,2.2,2.39,2.52,3.78.7,2.97,2.67,4.99,4.54,7.09.74.84,1.85,1.75,2.88,1.87,3.31.41,5.51,2.04,6.86,5,.64,1.41,1.87,1.81,3.31,1.86,2.57.08,5.14.18,7.72.27,1.74.41,3.48.88,5.23,1.23,2.4.48,4.8,1.11,7.22,1.25,3.86.23,7.64-.29,11.47-1.17,5.3-1.22,9.72-3.58,13.39-7.49,1.36-1.45,2.73-2.89,4.09-4.33.46.2,1.14.26,1.35.61.73,1.2,1.77,1.37,3.06,1.63,1.71.34,3.72.9,4.86,2.08,2.41,2.48,3.6,5.68,3.54,9.25,0,.53.41,1.06.63,1.6-.07,1.66-.15,3.32-.22,4.99-.03.91-.05,1.83-.08,2.74,0,.23-.02.46-.03.7-.11.98-.24,1.95-.33,2.93-.18,1.91-.17,3.86-.54,5.73-.64,3.18-.08,4.91,2.57,6.74,2.34,1.62,4.08.83,4.3-2.03.13-1.63.06-3.27.08-4.91,1.57-1.55.89-3.49.93-5.31.25-.58.65-1.15.73-1.75.29-2.31.47-4.63.72-6.94.3-2.78.64-5.56.94-8.34.65-6.15,1.29-12.3,1.93-18.45.09-.94.19-1.87.28-2.81.27-3.63.54-7.27.81-10.9.34-.49.84-.93.99-1.48.44-1.63.67-3.32,1.15-4.93.14-.48.85-.8,1.29-1.2.25.4.61.76.74,1.19.67,2.11,1.18,4.26,1.93,6.34,2.03,5.64,4.16,11.23,6.2,16.86.27.75.33,1.6.34,2.4.03,6.27-.16,12.54.09,18.8.12,2.87.87,5.77,1.77,8.51.45,1.37,1.28,3.1,3.36,3.07,1.16,1.7,2.69,1.01,4.12.58,1.41-.43,2.35-1.35,2.32-2.93-.08-3.67-.19-7.34-.29-11.01.43-.32,1.11-.55,1.26-.97.95-2.72,3.23-4.95,3-8.12-.05-.6.17-1.32.5-1.84,1.24-1.95,1.17-4.2.71-6.14-.76-3.25,1.38-4.83,3.09-6.71.28-.31,1.48-.32,1.79-.01,1.58,1.61,3.02,3.36,4.48,5.09,1.04,1.23,2.03,2.5,3.01,3.78.23.3.47.75.41,1.09-.27,1.66.77,2.42,2.03,2.84,3.64,1.22,7.37,1.8,11.15.73.53-.15.89-.92,1.33-1.4,1.4.06,2.81.13,4.21.19.52.05,1.04.09,1.56.15,5.06.55,9.65-1.34,14.31-2.81.42.1.88.36,1.25.28,3.9-.85,7.52-3.08,11.76-2.4.23.04.75-.82.88-1.32.09-.36-.25-.84-.51-1.59,2.26-1.18,4.44-2.37,6.66-3.47,1.15-.57,2.41-.92,3.58-1.45,1.28-.58,1.54-1.58,1.16-2.89-.24-.82-.28-1.7-.42-2.56.61-1.94,1.99-3.09,3.77-4,.58-.29.81-1.27,1.16-1.96.23-.45.28-1.01.57-1.4,2-2.69,4.33-5.18,5.98-8.06,1.11-1.93,1.7-4.37,1.75-6.6.05-1.9-1-3.82-1.56-5.73l1.38-7.05c.14-.47.28-.94.42-1.4.02-.2.05-.4.07-.6,1.1-2.48.49-5.03.36-7.57.41-5.12.82-10.24,1.22-15.36.02-.12.03-.24.05-.37Z"/>
      <path class="cls-23" d="m139.01,1.39c.12-.46.24-.93.36-1.39,6.47,0,12.94,0,19.41,0,.12.46.24.93.36,1.39-6.71,0-13.41,0-20.12,0Z"/>
      <path class="cls-23" d="m0,92.81c.47,0,.93,0,1.4,0,0,4.34,0,8.68,0,13.02-.47-.12-.93-.24-1.4-.36,0-4.22,0-8.44,0-12.66Z"/>
      <path class="cls-12" d="m139.29,228.82c-1.36,1.44-2.73,2.89-4.09,4.33-3.67,3.9-8.1,6.27-13.39,7.49-3.83.88-7.61,1.4-11.47,1.17-2.42-.14-4.82-.77-7.22-1.25-1.76-.35-3.49-.82-5.23-1.23-.35-.29-.66-.63-1.05-.86-3-1.73-6.01-3.44-9.02-5.16-.28-.55-.45-1.2-.86-1.61-.85-.87-1.98-1.51-2.73-2.45-2.96-3.72-5.82-7.53-8.72-11.3-.79-2.38-1.49-4.79-2.38-7.12-1.24-3.25-3.03-6.35-3.88-9.69-1.75-6.91-2.69-13.96-2.27-21.15.1-1.76-.58-3.55-.71-5.34-.31-4.28-.65-8.56-.69-12.85-.02-2.72.47-5.45.73-8.17,0-.64.04-1.29,0-1.93-.17-2.98.03-5.83,2.07-8.29.48-.58.52-1.53.79-2.3.75-2.14,1.43-4.32,2.3-6.4.65-1.55,1.56-2.99,2.37-4.47,1.28-2.35,2.36-4.85,3.94-6.98,1.69-2.29,3.84-4.25,5.8-6.35.83-.89,1.58-1.91,2.54-2.63,3.09-2.33,6.27-4.54,9.41-6.81.19-.14.32-.36.51-.48.77-.5,1.57-.97,2.34-1.46,3.84-2.42,8.86-1.55,12.52-4.48.16-.13.45-.13.68-.15,4.08-.36,8.18-1.17,12.22-.93,4.37.25,8.9.58,12.85,3.05,1.02.64,2.26.94,3.4,1.39.2.21.38.44.59.63,2.82,2.49,5.65,4.95,8.45,7.45,2.07,1.85,4.09,3.75,6.13,5.62.36,1.2.7,2.41,1.08,3.61.61,1.95,1.25,3.89,1.88,5.83-.04,2.16-.16,4.31-.09,6.47.16,4.85-.14,9.59-2.52,13.98-1.3,1.4-2.59,2.8-3.89,4.21-1.02.65-2.1,1.24-3.06,1.98-.7.54-1.26,1.26-1.89,1.9-2.04.21-4.18-1.1-6.13.42-.52.41-1.03.83-1.55,1.24.59.5,1.1,1.16,1.77,1.48,3.58,1.7,7.28,3.16,9.98,6.3,2.2,2.56,4.57,4.97,6.87,7.44.13.7.26,1.39.39,2.09.03.64.1,1.29.06,1.93-.03.57.02,1.32-.31,1.66-1.4,1.45-2.86.11-4.24-.2-.39-.09-.76-1.18-.79-1.82-.08-1.98-.92-3.55-2.59-4.47-.7-.39-2.03-.39-2.65.05-.63.44-1.09,1.66-1.02,2.48.16,1.78.73,3.51,1.08,5.27.36,1.8.51,3.55-.89,5.08-.49.53-.69,1.32-1.03,1.99-.47-.24-.94-.47-1.41-.71-1.22-1.14-2.36-2.38-3.69-3.37-.57-.43-1.52-.34-2.29-.49-4.66-1.79-9.31-.98-14,.15,1.46.64,2.95,1.01,4.46,1.25,4.29.66,8.28,1.95,11.56,4.98,1.48,1.36,3.11,2.57,4.67,3.84.12,1.34.19,2.69.38,4.01.14.94.39,1.91,1.75,1.57.22.01.43.02.65.03.11,1.8.17,3.61.33,5.41.39,4.44-.06,8.95-1.89,12.85-1.98,4.21-3.49,8.83-6.93,12.27Zm-30.64-110.04c.12-.1.24-.2.36-.31.69-.77,1.43-1.5,2.05-2.32.94-1.23,1.59-2.54.84-4.16-.85-1.86-2.38-2.47-4.26-2.33-7.1.54-13.51,2.68-18.51,8.04-.51.55-1.09,1.16-1.77,1.4-1.88.68-2.94,1.97-3.5,3.82-.15.5-.39,1.01-.72,1.39-.92,1.05-.7,1.99.11,2.95.42,1.87,1.42,2.41,3.18,1.73,3.09.58,5.8-.94,8.6-1.71,2.37-.65,4.58-1.89,6.86-2.87,2.4-.89,4.38-2.29,5.71-4.51.34-.37.67-.73,1.01-1.1l.03-.02Z"/>
      <path class="cls-1" d="m225.8,231.11c-1.4-.06-2.81-.13-4.21-.19-1.51-.58-3.03-1.16-4.54-1.74-.43-.35-.82-.79-1.31-1.05-2.26-1.21-4.55-2.38-6.83-3.56-1.56-1.38-3.12-2.76-4.67-4.13.01-.12.02-.24.04-.36.43-2.29.18-4.55-1.3-6.35-1.97-2.4-3.51-4.94-3.76-8.05-.17-2.2-.38-4.27-2.58-5.46-.04-.02-.06-.1-.09-.15-2.6-3-2.13-6.61-1.97-10.13.07-1.44.35-2.88.54-4.32.83-1.98,1.66-3.97,2.49-5.95.11,0,.22-.02.33-.03,4.53-.01,6.3-2.64,6.72-5.25,1.02-.49,2-1.27,3.06-1.41,2.3-.3,4.65-.24,6.98-.38.88-.06,1.74-.29,2.61-.45l.08-.69c-.64-.2-1.27-.48-1.93-.58-1.21-.17-2.43-.32-3.65-.32-2.66.02-5.41-.6-7.86,1.03-.24-.13-.48-.25-.72-.38-.82.12-1.64.23-2.46.35-.11-.19-.27-.55-.34-.54-1.61.39-2.59-.63-3.71-1.49-.48-.37-1.24-.44-1.89-.5-2.27-.22-4.58,1.84-6.92-.35-.09.9-.2,1.64.09,2.17.81,1.5.04,1.83-1.2,1.72-.72-.06-1.41-.45-2.1-.7-1.23-.45-2.46-.91-3.69-1.37,0-.47,0-.94,0-1.41.48-1.75.95-3.51,1.43-5.26.47-1.06.94-2.11,1.4-3.17,3.37-.78,4.18-3.68,5.27-6.34.39-.35.74-.77,1.19-1.03.65-.36,1.48-.46,2.03-.92,2.48-2.07,5.34-3.27,8.43-4.04,1.49-.3,2.98-.61,4.47-.91l.09-.51c-1.17-.57-2.34-1.15-3.51-1.72-2.31-.34-4.63-.69-6.95-1.03-.99-.45-1.97-.9-2.96-1.35-.59-.35-1.18-.7-1.77-1.06-1.2-2.83-2.37-5.67-3.61-8.48-.47-1.06-1.42-2.01-1.57-3.09-.62-4.48-1.02-8.99-1.5-13.49.13-.92.04-1.94.43-2.73,1.53-3.11,3.22-6.14,4.84-9.21.29-.69.46-1.45.88-2.05,3-4.25,7.48-6.72,11.72-9.47.71-.46,1.56-.72,2.34-1.08,1.35-.62,2.65-1.5,4.07-1.81,2.09-.45,4.27-.5,6.41-.72,2.47,0,4.99.28,7.4-.09,2.88-.45,5.68-.27,8.33.58,2.31.74,4.55,1.43,6.99,1.4,2.28-.03,4.01,1.01,5.4,2.77,1.47,1.87,3.44,2.96,5.76,3.45,0,0,0,.01,0,.01,2.22,2.13,4.48,4.21,6.63,6.4,2.77,2.82,5.43,5.75,8.16,8.61.42.44.95.77,1.43,1.16.9,1.2,1.77,2.42,2.7,3.61,2.74,3.51,3.8,7.7,5.04,11.84.98,3.28,2.26,6.47,1.89,10.02-.08.76.36,1.57.56,2.35.26,1.05.76,2.1.74,3.15-.15,8.74.16,17.47-.82,26.23-.61,5.4-1.76,10.73-2.05,16.17-.08,1.56-.41,3.11-.62,4.66-2.26,4.06-4.81,8-5.34,12.78-.05.44-.34.86-.54,1.27-.62,1.3-1.25,2.59-1.88,3.88-.36.58-.71,1.17-1.07,1.75h-.35c-.86-.83-.91-.82-1.8.42-1.47,2.06-2.03,2.25-4.41,1.59-.56-.15-1.16-.26-1.73-.23-1.36.09-2.42-.14-2.86-1.67-.12-.42-.7-.96-1.13-1.01-3.17-.37-6.31-.23-9.27,1.16-1.58.74-3.18,1.43-4.71,2.25-2.12,1.13-4.62,1.86-4.91,4.93-.08.86-.58,2.07-1.25,2.4-2.11,1.02-2.59,2.83-3.01,4.81-.17.79-.55,1.52-.81,2.29-.29.85-.55,1.71-.82,2.56Zm-32.83-68.9c-.12-.08-.24-.16-.36-.24-.11-.86-.09-1.77-.35-2.58-.22-.7-.62-1.58-1.2-1.87-.51-.26-1.59-.04-2.04.37-.88.81-1.65,1.84-2.18,2.91-.62,1.25-.1,4,.73,4.23.96.27,2.29.6,2.98.16,1.03-.65,1.65-1.96,2.44-2.98Z"/>
      <path class="cls-22" d="m155.61,148c2.38-4.39,2.67-9.13,2.52-13.98-.07-2.15.05-4.31.09-6.47-.02-1.25-.04-2.51-.06-3.76.03-.05.1-.1.09-.14-.02-.1-.08-.2-.12-.3-.1-1.28-.2-2.55-.3-3.83.44.36,1.04.63,1.29,1.08.83,1.54,1.04,3.31,2.75,4.49,1.19.82,1.86,2.42,2.68,3.73.97,1.55,2.72,1.64,4.45,1.38,3.04-.46,2.54-2.45,2.49-4.34-.09-3.14.95-5.94,2.17-8.87.45.26.65.36.82.48.57.41,1.13.83,1.7,1.25.44-.77,1.03-1.5,1.29-2.33.44-1.43.64-2.92,1.02-4.37.06-.25.51-.4.78-.59-1.04,3.17-.17,6.4-.33,9.6-.02.31.21.63.33.94,0,1.64,0,3.28,0,4.92-.07.78-.44,1.68-.17,2.31,1.03,2.37,2.16,4.71,3.46,6.95.86,1.48.69,3.81,3.13,4.13.09.01.21.29.22.45.09,1.49.41,3.03.17,4.47-.43,2.52-1.2,4.97-3.07,6.9-1.1,1.13-1.1,2.23.14,3.27-.12.35-.24.7-.36,1.05-2,.36-2.67,1.34-2.85,3.72-.1,1.31-.23,2.7-.75,3.89-1.01,2.33-2.61,4.41-2.66,7.13,0,.35-1.13,1.07-1.5.94-1.64-.56-2.41.03-2.86,1.55-.16.54-.73.97-.85,1.51-.38,1.71-.8,3.43-.91,5.17-.12,1.89.18,3.81.12,5.72-.03,1.05-.71,1.44-1.86,1.16-2.44-.61-3.8-2.96-2.93-5.57.53-1.6.59-3.05-.22-4.56-1.73-3.23-3.52-6.42-5.09-9.73-1.17-2.45-1.49-5.11-1-7.83.47-2.65.19-3.12-2.31-3.94-.72-.24-1.47-.39-2.19-.63-.94-.31-1.62-.85-1.15-1.94.47-1.09,1.12-2.11,1.57-3.21.23-.55.19-1.21.27-1.81Z"/>
      <path class="cls-10" d="m140.08,104.41c-1.14-.45-2.38-.75-3.4-1.39-3.95-2.47-8.47-2.8-12.85-3.05-4.04-.23-8.15.58-12.22.93-.23.02-.52.02-.68.15-3.66,2.92-8.69,2.05-12.52,4.48-.78.49-1.57.96-2.34,1.46-.19.12-.32.34-.51.48-3.14,2.27-6.32,4.48-9.41,6.81-.96.72-1.71,1.74-2.54,2.63-1.96,2.1-4.11,4.05-5.8,6.35-1.57,2.14-2.65,4.64-3.94,6.98-.81,1.48-1.72,2.92-2.37,4.47-.88,2.09-1.55,4.26-2.3,6.4-.27.77-.31,1.72-.79,2.3-2.04,2.46-2.24,5.31-2.07,8.29.04.64,0,1.29,0,1.93-2.12.56-2.9.04-3.14-2.13-.06-.58-.02-1.17-.02-1.75,0-2.49.41-5.07-.13-7.44-.78-3.44.05-6.64.47-9.92.11-.9.47-1.77.71-2.65,1.43-2.66,4.06-4.71,4.08-8.08,0-.37.2-.94.48-1.08,1.71-.86,2.05-2.68,3.07-4,2.76-3.59,5.77-7.04,9.02-10.21,2.7-2.63,5.9-4.76,8.82-7.17.89-.74,1.6-1.69,2.4-2.54,0-.1.02-.2.02-.3.24-.11.47-.23.71-.34,1.28-.49,2.57-.98,3.85-1.47,1.9-.52,3.9-.82,5.68-1.62,2.45-1.1,4.77-2.45,7.53-2.62.2-.01.38-.37.57-.56,2.46-.19,4.91-.38,7.37-.57.24.16.49.33.73.49.66.34,1.29.91,1.99.99,2.71.34,5.46.84,8.17.69,3.03-.17,5.21,1.48,7.62,2.68,1.14.57,2.18,1.47,3.05,2.42,1.28,1.4,2.36,2.98,3.52,4.48.69,2.64.67,2.66-1.99,3.3-.28.07-.55.15-.83.22Z"/>
      <path class="cls-26" d="m271.69,191.95c.21-1.55.54-3.1.62-4.66.29-5.44,1.44-10.77,2.05-16.17.98-8.76.67-17.49.82-26.23.02-1.04-.48-2.1-.74-3.15-.2-.79-.63-1.6-.56-2.35.37-3.55-.91-6.73-1.89-10.02-1.24-4.15-2.3-8.34-5.04-11.84-.92-1.18-1.8-2.4-2.7-3.61-.78-3.63-3.58-5.98-5.77-8.65-1.72-2.1-3.99-3.74-5.92-5.68-1.28-1.29-2.74-1.92-4.54-1.84,0,0,0-.01,0-.01,1.57-1.6,3.61-1.26,5.23.46.88.93,2.26,1.41,3.48,1.97.62.29,1.43.19,2.02.51,1.08.59,1.94.52,2.48-.59.59-1.21-.13-1.87-1.14-2.54-2.19-1.44-4.22-3.11-6.42-4.53-1.94-1.26-4.04-2.28-6.02-3.47-.62-.37-1.2-.89-1.62-1.47-1.26-1.78-2.46-3.56-4.7-4.28-.4-.13-.71-.56-1.07-.85,2.06-.46,3.47.78,4.65,2.07,1.75,1.92,4.1,2.76,6.28,3.91.18.35.28.82.57,1.04,2.47,1.81,5.08,3.45,7.44,5.39,1.99,1.63,3.7,3.6,5.53,5.42.53.52,1.01,1.1,1.58,1.57.88.72,1.81,1.39,2.73,2.06.51.37,1.04.7,1.56,1.05.12.12.23.25.35.37.72,1.88,1.37,3.79,2.2,5.62.4.88,1.16,1.6,1.76,2.4.24.47.48.94.72,1.42.34.59.67,1.18,1.01,1.77.37.78.74,1.56,1.11,2.34.08.16.17.32.25.48.5,2.93,1,5.85,1.49,8.78.09.36.18.72.27,1.08.01.35.02.69.03,1.04-.12.32-.34.63-.34.95-.02,3.84-.04,7.67,0,11.51.01,1.04.1,2.12.4,3.1.16.52.84.89,1.29,1.33.13,0,.26,0,.39,0-.01,1.4-.02,2.81-.03,4.21-.09.24-.18.48-.27.71-.13.12-.26.24-.38.35.1.12.21.24.31.37-.41,5.12-.82,10.24-1.22,15.36-.12,2.52-.24,5.05-.36,7.57-.02.2-.05.4-.07.6-.14.47-.28.94-.42,1.4-.46,2.35-.92,4.7-1.38,7.05-.45,1.41-.9,2.83-1.35,4.24-.11.23-.23.47-.34.7-.02.34-.05.69-.07,1.03-.35.59-.69,1.17-1.04,1.76-.44.24-.87.5-1.33.72-.38.18-.97.54-1.14.4-.34-.27-.5-.81-.66-1.26-.1-.29-.07-.62-.1-.93Z"/>
      <path class="cls-28" d="m155.61,148c-.08.61-.04,1.26-.27,1.81-.45,1.1-1.1,2.12-1.57,3.21-.47,1.09.21,1.64,1.15,1.94.72.24,1.47.39,2.19.63,2.5.82,2.78,1.3,2.31,3.94-.48,2.72-.16,5.37,1,7.83,1.57,3.3,3.37,6.5,5.09,9.73.8,1.5.75,2.96.22,4.56-.87,2.61.49,4.97,2.93,5.57,1.15.29,1.83-.11,1.86-1.16.06-1.9-.24-3.82-.12-5.72.11-1.74.52-3.46.91-5.17.12-.54.69-.97.85-1.51.45-1.52,1.22-2.11,2.86-1.55.37.13,1.5-.6,1.5-.94.05-2.72,1.65-4.8,2.66-7.13.51-1.18.65-2.57.75-3.89.18-2.38.85-3.36,2.85-3.72-.12.59-.23,1.17-.35,1.76,0,0,0,0,0,0-.12.13-.23.25-.35.38-.01.21-.02.41-.04.62-.08.13-.16.26-.24.39-.1.49-.21.98-.31,1.47-.29,1.25-.57,2.5-.86,3.75-.05.12-.1.25-.15.37-.07.23-.13.47-.2.7-.22.4-.5.78-.64,1.2-1.15,3.48-1.9,7.04-1.89,10.72-.17.5-.34,1.01-.51,1.51-.03.23-.06.45-.09.68-.24.7-.68,1.4-.68,2.1-.02,5.52.05,11.04.09,16.56.01.44.02.88.03,1.33.05,1.19.11,2.38.16,3.57.11.71.23,1.42.34,2.13,0,.23,0,.46,0,.69.11.71.23,1.41.34,2.12.03.11.06.21.09.32-.02.47-.03.95-.05,1.42.08.25.16.5.24.75.05.33.09.67.14,1,.08.71.17,1.42.25,2.14.04.46.08.92.12,1.37-.03.24-.06.48-.08.71-.42,1.73-.8,3.46.62,4.97l.11-.04c.02.93.03,1.87.05,2.8.1.14.19.27.29.41.02.1.04.19.07.29.1,2.15.17,4.3.32,6.45.33,4.81.69,9.63,1.07,14.44.05.66.26,1.3.4,1.96l1.62,8.47c-2.08.04-2.91-1.7-3.36-3.07-.9-2.74-1.65-5.65-1.77-8.51-.26-6.26-.07-12.53-.09-18.8,0-.8-.07-1.66-.34-2.4-2.04-5.63-4.17-11.23-6.2-16.86-.75-2.08-1.26-4.24-1.93-6.34-.14-.43-.49-.8-.74-1.19-.45.39-1.15.71-1.29,1.2-.48,1.61-.7,3.3-1.15,4.93-.15.54-.65.99-.99,1.48-.03-.59-.06-1.18-.1-1.77-.01-1.63-.02-3.26-.04-4.9-.06-.99-.08-1.97-.17-2.96-.24-2.65-.51-5.3-.77-7.95,1.2-1.28.62-4.32-1.07-5.63-.12-.47-.24-.94-.36-1.41,1.51-.45,1.63-1.61,1.2-2.79-.62-1.69-1.36-3.35-2.18-4.96-.5-.99-1.23-1.87-1.86-2.79-.37-.94-.74-1.87-1.11-2.81.53-4.29-1.31-7.59-4.43-10.46.3-.38.6-.76.68-.87-1.05-1.75-1.98-3.3-2.91-4.85,1.3-1.4,2.59-2.8,3.89-4.21Z"/>
      <path class="cls-28" d="m204.24,220.43c1.56,1.38,3.12,2.76,4.67,4.13.18.95.07,2.1.58,2.8,1.55,2.12,5.04,2.84,7.55,1.81,1.51.58,3.03,1.16,4.54,1.74-.44.48-.79,1.24-1.33,1.4-3.78,1.07-7.51.49-11.15-.73-1.26-.42-2.3-1.19-2.03-2.84.06-.33-.19-.78-.41-1.09-.98-1.28-1.97-2.55-3.01-3.78-1.45-1.73-2.9-3.47-4.48-5.09-.3-.31-1.51-.3-1.79.01-1.71,1.88-3.85,3.46-3.09,6.71.46,1.95.52,4.19-.71,6.14-.33.52-.55,1.24-.5,1.84.24,3.17-2.04,5.4-3,8.12-.15.42-.83.65-1.26.97-.13-.38-.37-.75-.39-1.14-.25-4.96-.53-9.91-.67-14.87-.12-4.04-.06-8.08-.09-12.12.48-9.22.81-18.46,1.56-27.66.19-2.33,1.75-4.54,2.68-6.81.36-.34.72-.69,1.08-1.03.08-.04.16-.08.25-.1,1.16-.16,1.49.68,1.84,1.5-.23,1.28-.47,2.57-.7,3.85-.09.12-.18.24-.28.36,0,.13,0,.26,0,.38-.32,3.5-1.03,7.02-.86,10.49.18,3.78,1.18,7.52,1.83,11.28-.23.4-.68.82-.65,1.2.11,1.55.2,3.14.63,4.62.3,1.02,1,2.04,1.79,2.76,1.78,1.61,3.7,3.07,5.63,4.52.47.35,1.15.41,1.74.61Z"/>
      <path class="cls-18" d="m158.48,260.87c-.02,1.64.04,3.28-.08,4.91-.22,2.86-1.95,3.65-4.3,2.03-2.65-1.83-3.21-3.56-2.57-6.74.37-1.87.36-3.82.54-5.73.09-.98.22-1.96.33-2.93,0-.23.02-.46.03-.7.03-.91.05-1.83.08-2.74.2-1.9.39-3.8.59-5.7.12-.98.34-1.97.35-2.95.03-7.43.07-14.85-.02-22.28-.03-2.84-.39-5.68-.61-8.53.45.75.92,1.5,1.35,2.26.28.49.41,1.36.78,1.45,2.52.69,3.63,2.85,5.24,4.55.94.99,2.35,1.54,3.54,2.28-.64,6.15-1.28,12.3-1.93,18.45-.3,2.78-.64,5.56-.94,8.34-.25,2.31-.42,4.63-.72,6.94-.08.61-.48,1.17-.73,1.75-1.49.66-1.91,3.07-.93,5.31Z"/>
      <path class="cls-4" d="m163.73,220.07c-1.2-.75-2.61-1.29-3.54-2.28-1.6-1.7-2.71-3.86-5.24-4.55-.36-.1-.5-.96-.78-1.45-.43-.76-.9-1.51-1.35-2.26.01-.47.03-.93.04-1.4.32-.59.89-1.17.9-1.76.03-1.62-.11-3.25-.3-4.86-.27-2.27.53-4.66-.81-6.83-.12-.2.38-1.1.76-1.25,2.07-.8,2.85-3.07,1.67-4.94-.7-1.1-1.32-2.27-1.85-3.46-.55-1.24-1.74-1.57-2.76-.72-.56.47-1.22.82-1.8,1.26-.77.59-1.51,1.23-2.26,1.84-.23-.13-.46-.25-.69-.38.33-.67.54-1.45,1.03-1.99,1.4-1.54,1.26-3.29.89-5.08-.36-1.76-.93-3.5-1.08-5.27-.07-.82.38-2.04,1.02-2.48.62-.43,1.95-.43,2.65-.05,1.66.92,2.51,2.49,2.59,4.47.03.64.39,1.73.79,1.82,1.38.32,2.84,1.65,4.24.2.33-.34.28-1.09.31-1.66.04-.64-.04-1.28-.06-1.93.46.94.93,1.88,1.39,2.82,2.23,4.62,3.08,9.49,2.87,14.6-.06,1.42.45,2.86.68,4.3.24,1.43.46,2.86.68,4.29-.24,4.76-.52,9.52-.66,14.28-.02.63.62,1.27.95,1.91-.09.94-.19,1.87-.28,2.81Z"/>
      <path class="cls-2" d="m240.28,82.96c.35.29.66.72,1.07.85,2.24.71,3.44,2.5,4.7,4.28.41.58,1,1.1,1.62,1.47,1.99,1.19,4.08,2.21,6.02,3.47,2.2,1.42,4.24,3.09,6.42,4.53,1,.66,1.73,1.32,1.14,2.54-.54,1.11-1.4,1.18-2.48.59-.59-.32-1.4-.22-2.02-.51-1.21-.57-2.6-1.05-3.48-1.97-1.63-1.72-3.66-2.06-5.23-.46-2.32-.49-4.29-1.58-5.76-3.45-1.38-1.76-3.12-2.8-5.4-2.77-2.44.03-4.68-.66-6.99-1.4-2.65-.85-5.45-1.03-8.33-.58-2.41.38-4.93.09-7.4.09-.11-1.75-.33-3.51-.3-5.26.02-.8.77-1.59.79-2.39.06-1.82,1.09-2.56,2.99-2.52,2.94.05,5.89-.2,8.83-.42.28-.02.5-.72.75-1.11.69.05,1.38.1,2.07.15,0,0-.04.04-.04.04,0,.11.03.21.06.32,0,.1,0,.21,0,.31-.41.07-.81.14-1.61.27,3.65,1.17,6.87,2.21,10.08,3.24.82.24,1.64.47,2.47.71Z"/>
      <path class="cls-27" d="m64.22,129.72c-.24.88-.6,1.75-.71,2.65-.42,3.29-1.25,6.49-.47,9.92.54,2.37.12,4.95.13,7.44,0,.58-.04,1.18.02,1.75.24,2.17,1.02,2.69,3.14,2.13-.26,2.72-.75,5.45-.73,8.17.04,4.28.38,8.57.69,12.85.13,1.79.81,3.58.71,5.34-.42,7.19.52,14.24,2.27,21.15.85,3.34,2.64,6.44,3.88,9.69.89,2.34,1.59,4.75,2.38,7.12-.76.18-1.52.36-2.27.53-.25-.13-.61-.19-.74-.39-2.98-4.49-5.55-9.17-6.53-14.55-.08-.24-.17-.48-.25-.72-.07-.29-.13-.58-.2-.87-.18-.42-.35-.83-.53-1.25-.06-.29-.11-.58-.17-.87.01-.52.16-1.08.02-1.56-.86-2.9-1.45-5.77-1.46-8.87,0-3.57-.75-7.15-1.34-10.69-.15-.92-.9-1.73-1.37-2.6-.13-1.05-.26-2.1-.39-3.15-.34-3.05-.67-6.1-1.01-9.16-.06-.5-.11-.99-.17-1.49-.06-2.55-.11-5.1-.17-7.65.12-2.33.09-4.68.39-6.98.36-2.7.98-5.37,1.55-8.03.51-2.38,1.11-4.74,1.67-7.11.46-.95.93-1.89,1.39-2.84,0,0,.15,0,.15,0,0,0,.15,0,.15,0Z"/>
      <path class="cls-17" d="m152.87,208.12c-.01.47-.03.93-.04,1.4.21,2.84.57,5.68.61,8.53.09,7.43.04,14.85.02,22.28,0,.98-.23,1.97-.35,2.95-.12.24-.24.47-.37.71-.22-.53-.64-1.07-.63-1.6.06-3.57-1.13-6.77-3.54-9.25-1.14-1.18-3.15-1.74-4.86-2.08-1.29-.26-2.33-.43-3.06-1.63-.21-.35-.89-.41-1.35-.61,3.44-3.44,4.95-8.06,6.93-12.27,1.83-3.9,2.28-8.41,1.89-12.85-.16-1.8-.22-3.61-.33-5.41.03-.24.05-.48.08-.72.5-1.42.03-2.56-1.03-3.53-.72-1.41-1.44-2.81-2.15-4.22-.38-.79-.77-1.57-1.15-2.36.26-.38.52-.75.77-1.13.47.24.94.47,1.41.71.23.13.46.25.7.38,1.09,1.64,2.36,3.18,3.22,4.93,2.46,4.96,2.82,10.39,3.23,15.78Z"/>
      <path class="cls-11" d="m64.82,199.85c.06.29.11.58.17.87.18.42.35.83.53,1.24.07.29.13.58.2.87.08.24.17.48.25.72.99,5.38,3.56,10.06,6.53,14.55.14.2.49.26.74.39.05.18.1.35.14.53.5,1.51.22,3.4,2.12,4.21,1.17,1.08,2.33,2.16,3.5,3.24.41,1.91,1.67,2.97,3.49,3.46,1.77,1.13,3.55,2.25,5.32,3.38,3.01,1.72,6.02,3.43,9.02,5.16.39.22.7.57,1.05.86-2.57-.09-5.14-.19-7.71-.27-1.44-.04-2.67-.45-3.31-1.86-1.35-2.95-3.55-4.59-6.86-5-1.03-.13-2.14-1.04-2.88-1.87-1.87-2.11-3.85-4.12-4.54-7.09-.33-1.39-1.48-2.69-2.52-3.78-1.15-1.21-2.6-2.12-3.9-3.19-1.28-1.06-1.58-2.58-1.18-4,.82-2.92-.8-5.01-1.94-7.37-1-2.06-1.57-4.32-2.37-6.48-.3-.81-.82-1.56-1-2.39-.44-1.98-.74-3.99-1.09-5.99-.11-.63-.1-1.29-.29-1.89-1.84-5.7-1.2-11.39.02-17.08.14-.65.24-1.44,0-2.02-1.19-2.85-1.04-5.78-.73-8.74.13-1.21.09-2.45.33-3.64.14-.69.67-1.31,1.02-1.96.06,2.55.11,5.1.17,7.65.06.5.11.99.17,1.49.34,3.05.67,6.1,1.01,9.16.09,1.76.17,3.52.26,5.29.03.58.06,1.16.09,1.74.1,1.74.21,3.48.31,5.22.01.37.02.74.03,1.11.12.23.24.47.37.7.23.71.53,1.42.67,2.15.3,1.59.39,3.24.81,4.79.54,1.99,1.32,3.92,1.99,5.87Z"/>
      <path class="cls-9" d="m225.8,231.11c.27-.85.53-1.71.82-2.56.26-.77.65-1.51.81-2.29.42-1.97.9-3.78,3.01-4.81.67-.32,1.17-1.54,1.25-2.4.29-3.06,2.79-3.79,4.91-4.93,1.53-.82,3.14-1.51,4.71-2.25,2.96-1.39,6.09-1.53,9.27-1.16.42.05,1,.59,1.13,1.01.45,1.53,1.5,1.76,2.86,1.67.57-.04,1.17.07,1.73.23,2.38.66,2.94.47,4.41-1.59.88-1.24.93-1.25,1.8-.42-.14.1-.34.17-.41.31-2.23,4.41-6.26,7-9.97,9.94-.52.42-.62,1.37-.91,2.07-.32.32-.59.77-.98.93-2.84,1.22-5.7,2.38-8.56,3.57-4.66,1.47-9.24,3.36-14.31,2.81-.52-.06-1.04-.1-1.56-.15Zm12.76-15.24l-.02.03c-1.08.75-2.17,1.47-3.23,2.25-.91.66-1.49,4.01-.86,4.92.15.21.46.46.69.45,1.37-.04,2.75-.15,4.12-.24,2.74-.22,4.88-1.54,6.61-3.59.08-.03.17-.05.26-.04.65-.15,1.38-.15,1.94-.46,1.51-.83,2.91-4.42,2.38-6.09-.1-.31-.74-.46-1.12-.68-1.95.12-3.9.25-5.86.37-.36.2-.71.41-1.07.62-.24.23-.48.46-.71.7-.58.36-1.16.71-1.74,1.07l-1.08.46c-.1.08-.2.17-.31.25Z"/>
      <path class="cls-8" d="m227.24,77.92c-.25.39-.47,1.09-.75,1.11-2.94.22-5.89.48-8.83.42-1.89-.03-2.93.7-2.99,2.52-.03.81-.77,1.59-.79,2.39-.04,1.75.18,3.51.3,5.26-2.14.22-4.32.27-6.41.72-1.42.31-2.71,1.19-4.07,1.81-.78.36-1.63.61-2.34,1.08-4.24,2.75-8.72,5.22-11.72,9.47-.42.6-.59,1.36-.88,2.05-1.92-.08-2.58-1-1.89-2.81.64-1.67,1.3-3.35,2.12-4.93.84-1.6,1.83-3.13,2.86-4.63,1.39-2.01,2.88-3.96,4.33-5.94,2.57-2.82,5.9-4.3,9.48-5.32,2.28-.87,4.56-1.74,6.85-2.61l.62-.11c.25-.1.5-.21.76-.31,1.05-.17,2.09-.34,3.14-.51,2.78.02,5.57.02,8.35.07.63.01,1.25.16,1.88.25Z"/>
      <path class="cls-7" d="m187.69,214.44c.02,4.04-.03,8.08.09,12.12.14,4.96.42,9.92.67,14.87.02.38.25.76.39,1.14.1,3.67.21,7.34.29,11.01.03,1.58-.91,2.51-2.32,2.93-1.43.43-2.96,1.12-4.12-.58-.54-2.82-1.08-5.64-1.62-8.47.1-.73.23-1.47.29-2.2.27-3.17-.47-6.35.38-9.54.31-1.18-.12-2.59-.32-3.87-.18-1.12-.45-2.22-.78-3.3-.4-1.32-.9-2.62-1.35-3.92-.03-.09-.05-.19-.07-.29-.1-.14-.19-.27-.29-.41-.02-.93-.03-1.87-.05-2.8,1.43.53,2.85,1.07,4.28,1.59,1.33.48,2.26-.09,2.61-1.32.55-1.95.9-3.96,1.37-5.93.09-.36.36-.69.54-1.03Z"/>
      <path class="cls-13" d="m279.5,128.65c-.5-2.93-1-5.85-1.49-8.78-.08-.16-.17-.32-.25-.48-.37-.78-.74-1.56-1.11-2.34-.34-.59-.67-1.18-1.01-1.77-.24-.47-.48-.94-.72-1.42-.72-1.86-1.45-3.73-2.17-5.59.39.31.97.54,1.12.94,1.1,2.85,3.15,4.68,5.72,6.27,1.99,1.24,2.42,3.59,2.69,5.84.09.8.2,1.65.54,2.36.89,1.86,1,3.65.1,5.53-.18.36-.1.89-.04,1.32.24,1.53.62,3.04.79,4.57.27,2.48.7,4.99.54,7.46-.2,3.24.64,6.91-2.68,9.3.01-1.4.02-2.81.03-4.21.24-.34.67-.67.68-1.02.05-2.91.21-5.85-.06-8.74-.14-1.47.2-3.38-1.63-4.32,0-.12,0-.23,0-.35.34-.78.76-1.58-.37-2.11-.13-.12-.25-.23-.38-.35-.01-.35-.02-.69-.03-1.04-.09-.36-.18-.72-.27-1.08Z"/>
      <path class="cls-28" d="m179.24,121.99c-.12-.31-.35-.63-.33-.94.17-3.2-.71-6.44.33-9.6,0-.23,0-.47,0-.7.24-1.41.47-2.81.71-4.22.12-.59.24-1.17.35-1.76.47-.94.94-1.87,1.41-2.81,1.18-4.13,3.53-7.87,3.91-12.26.24-2.81,2.28-4.79,5.12-5.34.85-.16,1.76-.39,2.48-.84,1.23-.77,2.41-1.22,3.92-.97.58.1,1.3-.57,1.95-.9,1.22-.62,2.45-1.23,3.65-1.88,1.37-.75,2.68-1.63,4.09-2.28,1.82-.84,3.72-1.5,5.58-2.24-.3.32-.55.71-.9.96-.94.68-1.87,1.41-2.91,1.92-2.01.99-4.08,1.84-6.13,2.74-.71.32-1.43.62-2.13.95-1.28.61-2.54,1.24-3.81,1.86-.35.23-.71.47-1.06.7,0,0,0,0,0,0-.32.21-.88.37-.94.63-.36,1.82-1.81,2.21-3.26,2.73-.9.32-2.08.75-2.46,1.47-1.24,2.4-2.17,4.97-3.22,7.47h0c-.23.35-.47.7-.7,1.06l-1.06,2.81-.35.7c-.12.35-.24.7-.36,1.05-.32.44-.82.83-.93,1.32-.67,2.89-1.27,5.79-1.83,8.7-.13.68-.23,1.46-.02,2.09.93,2.74-.48,5.1-1.1,7.58Z"/>
      <path class="cls-15" d="m96.66,94.53c-1.28.49-2.57.98-3.85,1.47,1.57-2.16,2.78-4.72,6.12-4.66,1.02.02,2.11-.32,3.05-.75.6-.28,1.15-.96,1.4-1.59.51-1.28,1.35-1.91,2.68-1.79,1.51.13,3.12.09,4.48.62,2.46.97,4.77.54,7.21.12,4.38-.76,8.66-.8,13.16.15,3.97.84,6.68,3.34,9.99,5.02.4.2.87.28,1.31.42-.44.13-.91.41-1.33.35-.91-.12-1.79-.42-2.68-.65-.42-.2-.87-.36-1.26-.6-3.04-1.85-6.26-3.06-9.88-3-.13-.08-.26-.17-.38-.25-2.69-.07-5.39-.15-8.08-.22-.26,0-.52,0-.78,0-2.46.19-4.91.38-7.37.57-1.69.32-3.47.41-5.05,1.01-2.97,1.11-5.83,2.52-8.73,3.8Z"/>
      <path class="cls-13" d="m69.96,117.43c-1.65-1.61-.45-3.25.25-4.61.88-1.72,2.35-3.12,3.42-4.76.56-.85.88-1.88,1.17-2.87.53-1.83,1.33-3.25,3.42-3.77,2.7-.67,5.35-1.56,8-2.41.53-.17.96-.65,1.48-.91.76-.38,1.55-.7,2.33-1.04-2.04,1.61-4.08,3.23-6.12,4.84-.8.7-1.59,1.41-2.39,2.11-1.77,1.65-3.54,3.3-5.31,4.95-.37.46-.74.93-1.11,1.39-.33.6-.58,1.25-.99,1.79-1.34,1.78-2.74,3.52-4.12,5.28Z"/>
      <path class="cls-15" d="m241.67,228.44c2.86-1.18,5.72-2.35,8.56-3.57.39-.17.66-.62.98-.93,3.75-2.84,7.53-5.62,11.2-8.55.81-.65,1.21-1.8,1.8-2.72.36-.49.72-.98,1.07-1.47.25.61.49,1.23.74,1.84.13.85.18,1.73.42,2.56.38,1.31.12,2.32-1.16,2.89-1.17.53-2.43.88-3.58,1.45-2.23,1.1-4.41,2.29-6.66,3.47.27.76.61,1.23.51,1.59-.13.5-.65,1.36-.88,1.32-4.24-.68-7.86,1.55-11.76,2.4-.38.08-.83-.18-1.25-.28Z"/>
      <path class="cls-15" d="m243.1,80.15c1.05.4,2.11.76,3.13,1.21.88.38,1.75.8,2.58,1.28,1.09.63,2.09,1.42,3.21,1.99.97.49,2.06.74,3.07,1.16,1.19.49,2.7.74,3.46,1.63,2.03,2.36,3.72,5,5.56,7.52.27.37.58.7.88,1.05.1.61.2,1.23.3,1.84-.12,0-.24,0-.36,0-.8-.62-1.61-1.23-2.41-1.85-.03-1.89-1.48-2.46-2.88-3.08-2.81-2-5.62-4.01-8.43-6.01-.59-.43-1.16-.9-1.78-1.28-1.5-.91-3.03-1.78-4.55-2.67-.5-.52-.94-1.1-1.5-1.53-.63-.48-1.36-.83-2.05-1.23.59,0,1.18,0,1.78-.01Z"/>
      <path class="cls-13" d="m266.04,213.04c-.25-.61-.49-1.23-.74-1.84.94-1.14,1.97-2.21,2.8-3.42,1.17-1.71,2.2-3.51,3.28-5.27.21-.25.42-.5.63-.75.03-.22.05-.44.08-.66.56-.62,1.25-1.16,1.65-1.87.65-1.15.92-2.55,1.7-3.57,1.12-1.46.94-2.87.51-4.4.02-.34.05-.69.07-1.03.11-.23.23-.47.34-.7.45-1.41.9-2.83,1.35-4.24.56,1.91,1.61,3.84,1.56,5.73-.06,2.23-.65,4.68-1.75,6.6-1.66,2.88-3.98,5.37-5.98,8.06-.29.39-.34.95-.57,1.4-.35.69-.59,1.67-1.16,1.96-1.78.91-3.16,2.06-3.77,4Z"/>
      <path class="cls-19" d="m83.88,101.91c2.04-1.61,4.08-3.23,6.12-4.84,0,0,0,0,0,0,.69-.14,1.38-.29,2.07-.43-.79.85-1.51,1.8-2.4,2.54-2.92,2.41-6.12,4.54-8.82,7.17-3.25,3.17-6.26,6.61-9.02,10.21-1.01,1.32-1.35,3.14-3.07,4-.28.14-.48.71-.48,1.08-.01,3.38-2.65,5.43-4.08,8.08,0,0-.15,0-.15,0,0,0-.15,0-.15,0,.35-.93.69-1.86,1.04-2.8.11-.24.22-.48.32-.71,0,0,0,0,0,0,.09-.12.19-.23.28-.35.49-1.18.99-2.35,1.48-3.53.08-.24.16-.47.24-.71.66-1.15,1.32-2.31,1.98-3.46.23-.25.47-.49.7-.74,1.38-1.76,2.78-3.5,4.12-5.28.41-.54.67-1.19.99-1.79.37-.46.74-.93,1.11-1.39,1.77-1.65,3.54-3.3,5.31-4.95.8-.7,1.59-1.41,2.39-2.11Z"/>
      <path class="cls-15" d="m196.53,83.67c1.27-.62,2.54-1.25,3.81-1.86.7-.34,1.42-.64,2.13-.95,2.05-.91,4.12-1.76,6.13-2.74,1.03-.51,1.96-1.24,2.91-1.92.35-.25.6-.64.9-.96,1.39.49,2.8.96,4.17,1.51.22.09.29.56.43.85-1.05.17-2.09.34-3.14.51-.25.1-.5.21-.76.31-.21.04-.41.07-.62.1-1.17.32-2.38.55-3.5.98-1.15.44-2.23,1.08-3.34,1.63-3.58,1.03-6.91,2.51-9.48,5.32-.35.25-.7.49-1.04.74.12-.94.23-1.88.35-2.83,0,0,0,0,0,0,.35-.23.71-.47,1.06-.7Z"/>
      <path class="cls-11" d="m243.1,80.15c-.59,0-1.18,0-1.78.01-.94.23-1.87.45-2.81.68-.24.02-.47.03-.71.05-1.29-.38-2.58-.77-3.87-1.15-.2-1.37-1.08-1.39-2.13-1.05-.35,0-.7,0-1.04.01.03-.06.04-.13.03-.2-.51-.13-1.02-.26-1.53-.39,0,0,.04-.04.04-.04.34-.23.65-.62,1.01-.66,1.3-.14,2.64-.03,3.91-.27,3.15-.58,5.84.5,8.4,2.12.24.16.32.58.47.88Z"/>
      <path class="cls-6" d="m148.89,100.9c1.94,1.04,4.16,1.63,5.1,4.06.45,1.15,1.47,2.08,2.23,3.11,1.72,2.34,1.92,4.89,1.05,7.59-.18-.48-.37-.97-.55-1.45-.85-1.86-1.7-3.71-2.55-5.57-.96-1.4-1.91-2.81-2.87-4.21-.21-.24-.42-.49-.62-.73-.34-.48-.68-.96-1.03-1.44v-.03c-.26-.44-.51-.88-.77-1.32Z"/>
      <path class="cls-13" d="m265.28,97.81c-.1-.61-.2-1.23-.3-1.84.39.2,1.01.31,1.12.61.91,2.43,2.94,3.8,4.89,5.21,2.13,1.54,2.35,2.05,1.49,4.65-.09.27-.1.57-.14.86-.46-.49-.92-.98-1.38-1.46-.12-.12-.23-.25-.35-.37-1.78-2.34-3.56-4.68-5.34-7.02,0-.21,0-.43.01-.64Z"/>
      <path class="cls-13" d="m67.04,122.34c-.49,1.18-.99,2.35-1.48,3.53-.09.12-.19.23-.28.35,0,0,0,0,0,0-.11.24-.22.48-.32.71-.35.93-.69,1.86-1.04,2.8-.46.95-.93,1.89-1.39,2.84-.14-.3-.45-.63-.4-.9.53-2.69.65-5.48,2.67-7.72.79-.88,1.22-2.21,1.47-3.41.46-2.2.62-2.43,2.98-2.36-.66,1.15-1.32,2.31-1.98,3.46-.08.24-.16.47-.24.71Z"/>
      <path class="cls-20" d="m156.73,114.2c.18.48.37.97.55,1.45.18,1.29.36,2.58.53,3.87.1,1.28.2,2.55.3,3.83.01.15.02.29.04.44.02,1.25.04,2.51.06,3.76-.63-1.94-1.26-3.88-1.88-5.83-.38-1.2-.72-2.41-1.08-3.61.49-1.3.99-2.61,1.48-3.91Z"/>
      <path class="cls-6" d="m138.2,93.23c.89.23,1.77.52,2.68.65.42.06.88-.22,1.33-.35.97-.62,1.54-.36,2.01.7.64,1.45,1.44,2.84,2.17,4.25-1.02-.51-2.04-1.03-3.06-1.54-.75-.62-1.47-1.27-2.26-1.84-.92-.66-1.9-1.25-2.86-1.87Z"/>
      <path class="cls-18" d="m164.01,217.26c-.33-.64-.97-1.28-.95-1.91.15-4.76.43-9.52.66-14.28.22.12.45.23.67.35.11,1.06.22,2.11.33,3.17.03.59.06,1.18.1,1.77-.27,3.63-.54,7.27-.81,10.9Z"/>
      <path class="cls-25" d="m143.32,96.94c1.02.51,2.04,1.03,3.06,1.54.71.7,1.42,1.39,2.13,2.09.13.11.26.22.38.33,0,0,0,0,0,0,.26.44.52.88.77,1.32-3.14.21-5.2-1.5-6.35-5.28Z"/>
      <path class="cls-25" d="m270.96,105.85c.46.49.92.98,1.38,1.46.14.32.28.64.41.96.72,1.86,1.45,3.73,2.17,5.59-.6-.79-1.36-1.51-1.76-2.4-.83-1.83-1.48-3.74-2.2-5.62Z"/>
      <path class="cls-21" d="m158.48,260.87c-.98-2.24-.55-4.65.93-5.31-.04,1.82.63,3.76-.93,5.31Z"/>
      <path class="cls-21" d="m279.58,176.23c.12-2.52.24-5.04.36-7.57.13,2.53.74,5.09-.36,7.57Z"/>
      <path class="cls-6" d="m152.73,243.98c.12-.24.25-.47.37-.71-.2,1.9-.39,3.8-.59,5.7.07-1.66.15-3.32.22-4.99Z"/>
      <path class="cls-22" d="m179.95,106.52c-.24,1.41-.47,2.81-.71,4.22-.51-1.53-.32-2.94.71-4.22Z"/>
      <path class="cls-22" d="m181.71,101.95c-.47.94-.94,1.87-1.41,2.81-.74-1.54.07-2.31,1.41-2.81Z"/>
      <path class="cls-15" d="m92.08,96.64c-.69.14-1.38.29-2.07.43.7-.24,1.4-.48,2.09-.73,0,.1-.01.2-.02.3Z"/>
      <path class="cls-21" d="m279.09,178.23c.14-.47.28-.94.42-1.4-.14.47-.28.94-.42,1.4Z"/>
      <path class="cls-6" d="m152.43,251.71c0,.23-.02.47-.03.7,0-.23.02-.47.03-.7Z"/>
      <path class="cls-6" d="m148.89,100.9c-.13-.11-.26-.22-.38-.33.13.11.26.22.38.33Z"/>
      <path class="cls-25" d="m280.86,152.93c.13-.12.26-.24.38-.35,0,.12-.02.24-.03.35-.12,0-.24,0-.36,0Z"/>
      <path class="cls-21" d="m280.86,152.93c.12,0,.24,0,.36,0-.01.12-.03.24-.05.37-.1-.12-.21-.24-.31-.37Z"/>
      <path class="cls-23" d="m83.27,127.26c-.81-.95-1.03-1.9-.11-2.95.34-.38.58-.9.72-1.39.55-1.85,1.62-3.14,3.5-3.82.67-.24,1.25-.85,1.77-1.4,5-5.36,11.41-7.5,18.51-8.04,1.88-.14,3.4.47,4.26,2.33.75,1.63.1,2.93-.84,4.16-.63.82-1.37,1.55-2.05,2.32-.12.1-.24.2-.36.31,0,0-.03.02-.03.02-.47.33-.94.65-1.4.98-1.77,1.55-3.54,3.09-5.31,4.64-2.28.98-4.49,2.22-6.86,2.87-2.81.77-5.51,2.29-8.6,1.71-1.06-.58-2.12-1.15-3.18-1.73Z"/>
      <path class="cls-27" d="m156.73,114.2c-.49,1.3-.99,2.61-1.48,3.91-2.04-1.88-4.07-3.77-6.13-5.62-2.8-2.5-5.63-4.97-8.45-7.45-.21-.19-.39-.42-.59-.63.28-.07.55-.15.83-.22,2.66-.63,2.68-.66,1.99-3.3.52.34,1.04.69,1.57,1.02,1.68,1.04,3.25,2.41,5.48,1.8.25,0,.49-.02.74-.02.21.24.42.49.62.73-.3.29-.87.61-.84.87.16,1.51,2.12,3.21,3.71,3.35.85,1.86,1.7,3.71,2.55,5.57Z"/>
      <path class="cls-14" d="m157.7,172.98c-2.3-2.48-4.67-4.89-6.87-7.44-2.7-3.14-6.39-4.6-9.98-6.3-.67-.32-1.18-.98-1.77-1.48.52-.42,1.03-.84,1.55-1.24,1.95-1.52,4.09-.21,6.13-.42.97.57,1.94,1.13,2.9,1.7.11.11.21.22.32.34l.03.03c.11.11.22.22.34.32.44.39.88.79,1.32,1.18.7.69,1.41,1.39,2.11,2.08.54.77,1.08,1.55,1.62,2.32.11.37.19.75.34,1.11.9,2.12,1.81,4.24,2.71,6.36-.25.48-.51.96-.76,1.44Z"/>
      <path class="cls-14" d="m143.53,187.45c.38.79.77,1.57,1.15,2.36.11.95.22,1.91.33,2.86-1.56-1.28-3.19-2.48-4.67-3.84-3.28-3.03-7.27-4.32-11.56-4.98-1.51-.23-3-.61-4.46-1.25,4.69-1.13,9.33-1.94,14-.15.21.32.36.69.63.94,1.51,1.37,3.05,2.71,4.57,4.05Z"/>
      <path class="cls-13" d="m155.41,164.07c-.54-.77-1.08-1.55-1.62-2.32-.7-.69-1.41-1.39-2.11-2.08-.44-.39-.88-.79-1.32-1.18-.11-.11-.22-.22-.34-.32,0,0-.03-.03-.03-.03-.11-.11-.21-.23-.32-.34-.97-.57-1.94-1.13-2.9-1.7.62-.64,1.18-1.37,1.89-1.9.96-.73,2.03-1.33,3.06-1.98.93,1.55,1.85,3.1,2.91,4.85-.09.11-.39.5-.68.87,3.12,2.87,4.96,6.17,4.43,10.46-.99-1.44-1.97-2.89-2.96-4.33Z"/>
      <path class="cls-20" d="m73.39,219.02c-.05-.18-.09-.35-.14-.53.76-.18,1.51-.36,2.27-.53,2.9,3.77,5.76,7.58,8.72,11.3.75.94,1.88,1.57,2.73,2.45.41.42.58,1.07.86,1.61-1.77-1.13-3.55-2.26-5.32-3.38-1.16-1.15-2.33-2.31-3.49-3.46-1.17-1.08-2.33-2.16-3.5-3.24-.71-1.4-1.41-2.81-2.12-4.21Z"/>
      <path class="cls-25" d="m145.01,192.67c-.11-.95-.22-1.91-.33-2.86.72,1.41,1.44,2.81,2.15,4.22.22,1.18.44,2.36.66,3.54-.12.23-.23.46-.35.69-1.36.34-1.61-.63-1.75-1.57-.19-1.33-.26-2.67-.38-4.01Z"/>
      <path class="cls-20" d="m157.7,172.98c.25-.48.51-.96.76-1.44.3.26.61.53.91.79.4,1.5.8,3,1.21,4.49-.36.35-.73.71-1.09,1.06-.46-.94-.93-1.88-1.39-2.82-.13-.7-.26-1.39-.39-2.09Z"/>
      <path class="cls-6" d="m143.53,187.45c-1.53-1.35-3.06-2.69-4.57-4.05-.27-.25-.43-.62-.63-.94.78.15,1.73.07,2.29.49,1.33,1,2.47,2.23,3.69,3.37-.26.38-.52.75-.77,1.13Z"/>
      <path class="cls-21" d="m101.91,124.41c1.77-1.55,3.54-3.09,5.31-4.64.13.04.27.08.4.12-1.33,2.23-3.32,3.63-5.71,4.51Z"/>
      <path class="cls-21" d="m83.27,127.26c1.06.58,2.12,1.15,3.18,1.73-1.77.68-2.77.13-3.18-1.73Z"/>
      <path class="cls-28" d="m107.63,119.9c-.13-.04-.27-.08-.4-.12.47-.33.94-.65,1.4-.98-.34.37-.67.73-1.01,1.1Z"/>
      <path class="cls-21" d="m147.14,198.25c.12-.23.23-.46.35-.69.13,0,.25,0,.38,0-.03.24-.05.48-.08.72-.22-.01-.43-.02-.65-.03Z"/>
      <path class="cls-28" d="m108.66,118.78c.12-.1.24-.2.36-.31-.12.1-.24.2-.36.31Z"/>
      <path class="cls-3" d="m187.69,214.44c-.19.34-.46.66-.54,1.03-.47,1.97-.82,3.98-1.37,5.93-.35,1.23-1.28,1.8-2.61,1.32-1.43-.52-2.86-1.06-4.28-1.59,0,0-.11.04-.11.04-.08-1.66-.16-3.31-.24-4.97-.1-.24-.19-.48-.29-.72-.04-.46-.08-.92-.12-1.37.53-.78.86-1.55-.25-2.14-.05-.33-.09-.67-.14-1,.04-.25.07-.5.1-.74-.1-.48-.2-.95-.3-1.43-.03-.11-.06-.21-.09-.32.02-.71.04-1.41.05-2.12.09-1.76.24-3.52.2-5.28,0-.38-.72-.74-1.11-1.1-.01-.44-.02-.88-.03-1.33.19-.56.52-1.11.54-1.67.16-3.83.3-7.66.35-11.49.02-1.83-.19-3.67-.3-5.5.03-.23.06-.45.09-.68.2-.36.4-.72.6-1.08.59-.79,1.41-1.5,1.73-2.39.63-1.73.97-3.56,1.43-5.35,1.23.46,2.46.92,3.69,1.37.7.26,1.39.64,2.1.7,1.23.11,2.01-.23,1.2-1.72-.29-.53-.18-1.27-.09-2.17,2.34,2.19,4.65.14,6.92.35.65.06,1.41.13,1.89.5,1.12.86,2.1,1.88,3.71,1.49.06-.02.22.35.34.54-.12.21-.23.42-.35.63-1.46.76-3.17,1.25-4.32,2.34-1.22,1.15-1.91,2.86-2.83,4.32-.09.02-.17.06-.25.1-.36.34-.72.69-1.08,1.03-.93,2.27-2.49,4.48-2.68,6.81-.75,9.2-1.08,18.44-1.56,27.66Z"/>
      <path class="cls-18" d="m195.1,206.71c-.64-3.76-1.64-7.5-1.83-11.28-.17-3.48.54-6.99.86-10.49.33.23.66.45.99.68-.19,1.44-.47,2.87-.54,4.32-.16,3.52-.63,7.13,1.97,10.13.04.04.05.12.09.15,2.2,1.2,2.4,3.26,2.58,5.46.25,3.11,1.79,5.65,3.76,8.05,1.48,1.8,1.74,4.05,1.3,6.35-1.32-1.4-2.65-2.8-3.97-4.2-.23-.56-.44-1.12-.7-1.66-.3-.62-.59-1.24-.97-1.81-.91-1.32-1.88-2.61-2.82-3.91-.24-.59-.47-1.19-.71-1.78Z"/>
      <path class="cls-27" d="m194.87,144.17c2.31.34,4.63.69,6.94,1.03-.35,1.05-.71,2.1-1.06,3.14-3.09.77-5.96,1.97-8.43,4.04-.55.46-1.39.56-2.03.92-.45.25-.8.68-1.19,1.03-.35,0-.69,0-1.04.01-.14-1.21-.27-2.42-.41-3.63.02-.2.04-.39.06-.59.7-.71,1.39-1.42,2.09-2.13.71-.6,1.41-1.19,2.12-1.79.98-.68,1.97-1.35,2.95-2.03Z"/>
      <path class="cls-19" d="m195.12,87.2c.35-.25.7-.49,1.04-.74-1.45,1.98-2.94,3.92-4.33,5.94-1.03,1.49-2.02,3.02-2.86,4.63-.83,1.58-1.48,3.26-2.12,4.93-.69,1.81-.03,2.73,1.89,2.81-1.63,3.06-3.31,6.1-4.84,9.21-.39.79-.3,1.82-.43,2.73-.23,0-.46.01-.69.02-.13-.12-.26-.24-.39-.35-.02-.21-.03-.42-.05-.63.18-2.48.35-4.96.53-7.43l.63-3.87c.62-1.27,1.23-2.55,1.85-3.82.28-.51.57-1.03.85-1.54.06-.31.13-.62.19-.92.19-.26.38-.53.57-.79.26-.33.52-.66.78-.99.32-.49.64-.99.96-1.48.49-2.07,2.08-3.27,3.57-4.59.67-.6,1.2-1.35,1.79-2.04.35-.35.7-.7,1.05-1.04Z"/>
      <path class="cls-26" d="m197.94,179.63c-.11.01-.22.02-.33.03-.24-.59-.49-1.19-.73-1.78,0,0,0,0,0,0,.21-.27.42-.54.63-.82.99-1.23,1.97-2.46,2.96-3.69.93-.47,1.86-.95,2.79-1.42.23-.12.46-.23.69-.35,2.45-1.63,5.2-1.01,7.86-1.03,1.22,0,2.44.15,3.65.32.66.09,1.29.38,1.93.58l-.08.69c-.87.15-1.74.39-2.61.45-2.33.15-4.67.09-6.98.38-1.06.14-2.04.92-3.06,1.41-1.15.61-2.42,1.08-3.42,1.88-1.22.98-2.21,2.23-3.3,3.37Z"/>
      <path class="cls-24" d="m271.69,191.95c.03.31,0,.64.1.93.16.45.32.99.66,1.26.17.13.76-.22,1.14-.4.45-.22.88-.48,1.32-.72-.97,2.22-1.94,4.44-2.9,6.66-.91-1.12-1.24-.07-1.55.48-.37.64-.45,1.44-.85,2.06-1.44,2.22-2.93,4.41-4.45,6.57-.3.43-.81.73-1.22,1.09.63-1.29,1.26-2.58,1.88-3.88.2-.42.49-.83.54-1.27.53-4.78,3.08-8.72,5.34-12.78Z"/>
      <path class="cls-3" d="m192.97,162.21c-.79,1.03-1.41,2.33-2.44,2.98-.69.44-2.01.1-2.98-.16-.82-.23-1.35-2.98-.73-4.23.54-1.07,1.3-2.1,2.18-2.91.45-.42,1.53-.63,2.04-.37.58.29.98,1.17,1.2,1.87.26.82.25,1.72.35,2.58.12.08.24.16.36.24Z"/>
      <path class="cls-18" d="m182.78,116.72c.23,0,.46-.01.69-.02.48,4.5.88,9.01,1.5,13.49.15,1.08,1.1,2.03,1.57,3.09,1.24,2.81,2.41,5.65,3.61,8.48-.22-.03-.45-.06-.67-.1-.81-1.06-1.63-2.12-2.44-3.18-.22-.37-.44-.74-.67-1.12-.03-.2-.07-.41-.1-.61-.69-1.18-1.38-2.36-2.07-3.54-.08-.03-.16-.05-.25-.05-.3-1.5-.6-3-.89-4.49-.14-2.94-.28-5.87-.42-8.81-.06-.82-.12-1.63-.18-2.45.11-.23.22-.46.33-.7Z"/>
      <path class="cls-24" d="m248.04,97.74c1.8-.09,3.26.55,4.54,1.84,1.93,1.94,4.2,3.58,5.92,5.68,2.19,2.68,4.99,5.02,5.77,8.65-.48-.38-1.01-.72-1.43-1.16-2.73-2.86-5.39-5.79-8.16-8.61-2.15-2.19-4.42-4.27-6.63-6.4Z"/>
      <path class="cls-11" d="m189.47,141.67c.22.03.45.06.67.1.59.35,1.18.7,1.77,1.06,1.15,1.12.67,2.25,0,3.38-.71.6-1.41,1.19-2.12,1.79-1.31.11-2.04.79-2.09,2.13-.02.2-.04.39-.06.59-.55.57-1.21,1.06-1.64,1.71-1.25,1.89-2.4,3.85-3.6,5.78.12-.59.23-1.17.35-1.76.12-.35.24-.7.36-1.05.25-1.13.27-2.39.81-3.34.76-1.33,1.7-2.74,2.94-3.55,2.64-1.73,2.38-4.31,2.59-6.82Z"/>
      <path class="cls-20" d="m182.42,158.2c1.19-1.93,2.35-3.88,3.6-5.78.43-.65,1.09-1.15,1.64-1.71.14,1.21.27,2.42.41,3.63,0,.11,0,.23,0,.34-.24.47-.47.94-.71,1.41-1,1.06-2.04,2.1-2.98,3.21-.3.35-.36.91-.54,1.37-.47,1.06-.94,2.11-1.4,3.17-.97.04-1.14-.51-1.03-1.32.07-.48.06-.97.08-1.45.1-.49.21-.98.31-1.47.08-.13.16-.26.24-.39.01-.21.02-.41.04-.62.12-.13.23-.25.35-.38h0Z"/>
      <path class="cls-25" d="m264.22,212.67c-.59.92-.99,2.07-1.8,2.72-3.67,2.93-7.46,5.71-11.2,8.55.29-.7.39-1.65.91-2.07,3.7-2.94,7.74-5.53,9.97-9.94.07-.14.27-.21.41-.31.12,0,.24,0,.35,0,.45.35.91.7,1.36,1.04Z"/>
      <path class="cls-20" d="m264.22,212.67c-.45-.35-.91-.7-1.36-1.04.36-.58.71-1.17,1.07-1.75.41-.36.91-.66,1.22-1.09,1.52-2.17,3.02-4.35,4.45-6.57.4-.61.48-1.42.85-2.06.32-.55.64-1.61,1.55-.48.03.47.06.95.09,1.42-.03.22-.05.44-.08.66-.21.25-.42.5-.63.75-1.09,1.76-2.11,3.57-3.28,5.27-.83,1.21-1.86,2.29-2.8,3.42-.36.49-.72.98-1.07,1.47Z"/>
      <path class="cls-15" d="m195.1,206.71c.24.59.47,1.19.71,1.78.4,3.12,2.22,5.39,4.49,7.38,1.32,1.4,2.65,2.8,3.97,4.2-.01.12-.02.24-.04.36-.58-.19-1.27-.26-1.74-.61-1.92-1.45-3.85-2.91-5.63-4.52-.8-.72-1.5-1.75-1.79-2.76-.43-1.48-.52-3.07-.63-4.62-.03-.38.42-.8.65-1.2Z"/>
      <path class="cls-25" d="m181,170.5c-.46,1.79-.81,3.62-1.43,5.35-.32.89-1.14,1.6-1.73,2.39-.03-.14-.06-.28-.09-.43-.02-3.69.74-7.24,1.89-10.72.14-.42.42-.8.64-1.2.24,1.07.48,2.14.72,3.21,0,.47,0,.94,0,1.41Z"/>
      <path class="cls-13" d="m217.05,229.17c-2.51,1.03-6,.31-7.55-1.81-.51-.7-.41-1.86-.58-2.8,2.28,1.18,4.57,2.35,6.83,3.56.48.26.87.7,1.31,1.05Z"/>
      <path class="cls-24" d="m197.94,179.63c1.09-1.14,2.08-2.39,3.3-3.37,1-.8,2.27-1.27,3.42-1.88-.42,2.62-2.19,5.24-6.72,5.25Z"/>
      <path class="cls-25" d="m196.87,177.88c.24.59.49,1.19.73,1.78-.83,1.99-1.66,3.97-2.49,5.96-.33-.23-.66-.45-.99-.68,0-.13,0-.26,0-.38.09-.12.18-.24.28-.36.23-1.28.47-2.57.7-3.85.59-.82,1.18-1.64,1.77-2.47Z"/>
      <path class="cls-24" d="m183.83,160.66c.17-.46.24-1.02.54-1.37.95-1.11,1.98-2.15,2.98-3.21.24-.47.47-.94.71-1.41,0-.11,0-.23,0-.34.35,0,.69,0,1.04-.01-1.09,2.66-1.9,5.56-5.27,6.34Z"/>
      <path class="cls-24" d="m181,169.09c-.24-1.07-.48-2.14-.72-3.21.07-.23.13-.47.2-.7.05-.12.1-.25.15-.37.29-1.25.57-2.5.86-3.75-.02.48-.02.97-.08,1.45-.11.81.06,1.37,1.03,1.32-.48,1.75-.95,3.51-1.43,5.26Z"/>
      <path class="cls-24" d="m200.76,148.34c.35-1.05.71-2.1,1.06-3.14,1.17.57,2.34,1.15,3.51,1.72l-.09.51c-1.49.3-2.98.61-4.47.91Z"/>
      <path class="cls-6" d="m191.92,146.2c.66-1.13,1.14-2.26,0-3.38.99.45,1.97.9,2.96,1.35-.98.68-1.97,1.35-2.95,2.03Z"/>
      <path class="cls-21" d="m203.26,171.94c-.93.47-1.86.95-2.79,1.42-.02-.39-.04-.78-.05-1.17.12-.21.23-.42.35-.63.82-.12,1.64-.23,2.46-.35.01.24.02.48.03.73Z"/>
      <path class="cls-3" d="m203.26,171.94c-.01-.24-.02-.49-.03-.73.24.13.48.25.72.38-.23.12-.46.23-.69.35Z"/>
      <path class="cls-28" d="m189.47,141.67c-.22,2.51.05,5.09-2.59,6.82-1.24.81-2.19,2.23-2.94,3.55-.55.96-.56,2.22-.81,3.34-1.24-1.04-1.24-2.14-.14-3.27,1.87-1.93,2.64-4.39,3.07-6.9.25-1.44-.08-2.97-.17-4.47,0-.16-.13-.43-.22-.45-2.44-.32-2.27-2.65-3.13-4.13-1.3-2.23-2.43-4.58-3.46-6.95-.27-.63.09-1.53.17-2.31,1.71,2.02,3.92,3.79,3.61,6.88-.01.15.4.33.62.5.14,1.86,1.16,3.1,2.81,3.87.25.11.5.21.75.32.81,1.06,1.63,2.12,2.44,3.18Z"/>
      <path class="cls-17" d="m183.47,134.29c-.22-.17-.63-.36-.62-.5.31-3.09-1.9-4.86-3.61-6.88,0-1.64,0-3.28,0-4.92.62-2.49,2.03-4.84,1.1-7.58-.21-.63-.12-1.41.02-2.09.56-2.91,1.16-5.81,1.83-8.7.11-.48.61-.88.93-1.32.13.71.25,1.41.38,2.12-.21,1.29-.42,2.58-.63,3.87-1.27,2.2-1.24,4.6-1.03,7.01.01.15.33.28.5.42.02.21.03.42.05.63.02.35.04.7.06,1.05.06.82.12,1.63.18,2.45-1.34-.1-2.24.7-2.44,1.81-.23,1.31-.21,2.77.13,4.05.25.95,1.15,1.73,1.83,2.54.19.23.59.27.89.4.3,1.5.6,3,.89,4.49-.16.38-.31.75-.47,1.12Z"/>
      <path class="cls-21" d="m158.15,123.8c-.01-.15-.02-.29-.04-.44.04.1.1.2.12.3,0,.04-.06.09-.09.14Z"/>
      <path class="cls-20" d="m149.95,103.71c-2.23.61-3.8-.76-5.48-1.8-.53-.33-1.05-.68-1.57-1.02-1.16-1.5-2.25-3.08-3.52-4.48-.87-.95-1.91-1.85-3.05-2.42-2.4-1.2-4.59-2.85-7.62-2.68-2.7.15-5.45-.35-8.17-.69-.69-.09-1.33-.65-1.99-.99.01-.16.03-.32.04-.49,2.69.07,5.39.15,8.08.22.13.08.26.17.38.25,3.62-.06,6.84,1.16,9.88,3,.4.24.84.4,1.26.6.95.62,1.93,1.2,2.86,1.87.79.57,1.51,1.22,2.26,1.84,1.15,3.78,3.21,5.49,6.35,5.28,0,0,0,.03,0,.03.1.49.19.98.29,1.46Z"/>
      <path class="cls-24" d="m96.66,94.53c2.9-1.28,5.76-2.69,8.73-3.8,1.59-.59,3.36-.69,5.05-1.01-.19.2-.37.55-.57.56-2.77.17-5.09,1.52-7.53,2.62-1.78.8-3.78,1.1-5.68,1.62Z"/>
      <path class="cls-25" d="m118.59,89.15c-.01.16-.03.32-.04.49-.24-.16-.49-.33-.73-.49.26,0,.52,0,.78,0Z"/>
      <path class="cls-19" d="m265.27,98.46c1.78,2.34,3.56,4.68,5.34,7.02-.52-.35-1.05-.68-1.56-1.05-.92-.67-1.85-1.34-2.73-2.06-.57-.47-1.05-1.04-1.58-1.57-1.83-1.82-3.54-3.79-5.53-5.42-2.36-1.94-4.97-3.58-7.44-5.39-.29-.21-.38-.68-.57-1.04,0-.69,0-1.38,0-2.06,2.81,2,5.62,4.01,8.43,6.01.96,1.03,1.92,2.05,2.88,3.08.8.62,1.61,1.23,2.41,1.85.12.21.23.43.34.64Z"/>
      <path class="cls-20" d="m251.21,86.87c0,.69,0,1.38,0,2.06-2.19-1.15-4.53-1.98-6.28-3.91-1.18-1.29-2.59-2.53-4.65-2.07-.82-.24-1.64-.47-2.47-.71,0-.45,0-.91,0-1.36.24-.02.47-.03.71-.05,2.12.69,4.24,1.39,6.36,2.08,1.52.89,3.05,1.76,4.55,2.67.62.38,1.19.85,1.78,1.28Z"/>
      <path class="cls-20" d="m280.55,133.23c0,.12,0,.23,0,.35.21,4.69.41,9.39.62,14.08-.45-.44-1.13-.8-1.29-1.33-.3-.99-.39-2.06-.4-3.1-.04-3.84-.03-7.67,0-11.51,0-.32.22-.63.34-.95.13.12.25.23.38.35.12.7.25,1.41.37,2.11Z"/>
      <path class="cls-6" d="m281.17,147.66c-.21-4.69-.41-9.39-.62-14.08,1.83.94,1.49,2.84,1.63,4.32.27,2.89.11,5.82.06,8.74,0,.34-.44.68-.68,1.02-.13,0-.26,0-.39,0Z"/>
      <path class="cls-6" d="m272.09,201.09c-.03-.47-.06-.95-.09-1.42.97-2.22,1.93-4.44,2.9-6.66.35-.59.69-1.17,1.04-1.76.44,1.53.61,2.95-.51,4.4-.78,1.02-1.05,2.42-1.7,3.57-.4.71-1.09,1.25-1.65,1.87Z"/>
      <path class="cls-25" d="m275.63,115.28c.34.59.67,1.18,1.01,1.77-.34-.59-.67-1.18-1.01-1.77Z"/>
      <path class="cls-6" d="m279.5,128.65c.09.36.18.72.27,1.08-.09-.36-.18-.72-.27-1.08Z"/>
      <path class="cls-24" d="m276.36,189.52c-.11.23-.23.47-.34.7.11-.23.23-.47.34-.7Z"/>
      <path class="cls-25" d="m277.76,119.4c.08.16.17.32.25.48-.08-.16-.17-.32-.25-.48Z"/>
      <path class="cls-19" d="m159.48,177.88c.36-.35.73-.71,1.09-1.06.58,1.64,1.16,3.29,1.74,4.93.12.47.24.94.36,1.41.36,1.88.71,3.75,1.07,5.63.26,2.65.53,5.3.77,7.95.09.98.12,1.97.17,2.96-.1.58-.2,1.15-.29,1.73-.22-.12-.45-.23-.67-.35-.23-1.43-.45-2.86-.68-4.29-.24-1.43-.74-2.88-.68-4.3.21-5.12-.64-9.98-2.87-14.6Z"/>
      <path class="cls-21" d="m179.28,224.62c.45,1.31.95,2.6,1.35,3.92.33,1.08.61,2.19.78,3.3.2,1.29.63,2.69.32,3.87-.85,3.19-.11,6.37-.38,9.54-.06.74-.19,1.47-.29,2.2-.14-.65-.35-1.3-.4-1.96-.38-4.81-.74-9.62-1.07-14.44-.15-2.15-.21-4.3-.32-6.45Z"/>
      <path class="cls-13" d="m162.31,181.75c-.58-1.64-1.16-3.29-1.74-4.93-.4-1.5-.8-3-1.2-4.49.03-.37.07-.75.1-1.12.63.93,1.36,1.8,1.86,2.79.81,1.61,1.56,3.27,2.18,4.96.43,1.18.32,2.34-1.2,2.79Z"/>
      <path class="cls-21" d="m177.15,179.99c.11,1.83.32,3.67.3,5.5-.04,3.83-.19,7.66-.35,11.49-.02.56-.35,1.11-.54,1.67-.04-5.52-.11-11.04-.09-16.56,0-.7.45-1.4.68-2.1Z"/>
      <path class="cls-21" d="m159.48,171.2c-.03.37-.07.75-.1,1.12-.3-.26-.61-.53-.91-.79-.91-2.12-1.82-4.24-2.71-6.36-.15-.35-.23-.74-.34-1.11.99,1.44,1.97,2.89,2.96,4.33.37.94.74,1.87,1.11,2.81Z"/>
      <path class="cls-21" d="m176.59,199.98c.39.37,1.1.73,1.11,1.1.04,1.76-.12,3.52-.2,5.28-.13,0-.26,0-.39,0,0-.23,0-.46,0-.69-.11-.71-.23-1.42-.34-2.13-.05-1.19-.11-2.38-.16-3.57Z"/>
      <path class="cls-13" d="m163.75,188.78c-.36-1.88-.71-3.75-1.07-5.63,1.69,1.31,2.27,4.35,1.07,5.63Z"/>
      <path class="cls-21" d="m164.39,201.42c.1-.58.2-1.15.29-1.73.01,1.63.02,3.26.04,4.9-.11-1.06-.22-2.11-.33-3.17Z"/>
      <path class="cls-6" d="m178.52,216.2c.08,1.66.16,3.31.24,4.97-1.42-1.51-1.04-3.24-.62-4.97.12,0,.25,0,.37,0Z"/>
      <path class="cls-6" d="m177.1,206.36c.13,0,.26,0,.39,0-.02.71-.04,1.41-.05,2.12-.11-.71-.23-1.41-.34-2.12Z"/>
      <path class="cls-6" d="m176.75,203.55c.11.71.23,1.42.34,2.13-.11-.71-.23-1.42-.34-2.13Z"/>
      <path class="cls-21" d="m177.86,211.97c1.11.59.78,1.35.25,2.14-.08-.71-.17-1.42-.25-2.14Z"/>
      <path class="cls-21" d="m177.53,208.8c.1.48.2.95.3,1.43-.12,0-.23,0-.35,0,.02-.47.03-.95.05-1.42Z"/>
      <path class="cls-21" d="m177.75,177.81c.03.14.06.28.09.43-.2.36-.4.72-.6,1.08.17-.5.34-1.01.51-1.51Z"/>
      <path class="cls-21" d="m178.52,216.2c-.12,0-.25,0-.37,0,.03-.24.06-.48.08-.71.1.24.19.48.29.72Z"/>
      <path class="cls-6" d="m177.48,210.22c.12,0,.23,0,.35,0-.03.25-.07.5-.1.74-.08-.25-.16-.5-.24-.75Z"/>
      <path class="cls-25" d="m180.62,164.81c-.05.12-.1.25-.15.37.05-.12.1-.25.15-.37Z"/>
      <path class="cls-24" d="m182.03,159.2c-.08.13-.16.26-.24.39.08-.13.16-.26.24-.39Z"/>
      <path class="cls-11" d="m182.42,158.2c-.12.13-.23.25-.35.38.12-.13.23-.25.35-.38Z"/>
      <path class="cls-21" d="m178.92,223.93c.1.14.19.27.29.41-.1-.14-.19-.27-.29-.41Z"/>
      <path class="cls-6" d="m200.41,172.19c.02.39.04.78.05,1.17-.99,1.23-1.97,2.46-2.96,3.7-.21.27-.42.54-.63.81,0,0,0,0,0,0-.59.82-1.18,1.64-1.77,2.47-.36-.81-.69-1.66-1.84-1.5.92-1.46,1.61-3.17,2.83-4.32,1.15-1.08,2.86-1.58,4.32-2.34Z"/>
      <path class="cls-6" d="m191.92,179.98c.36-.34.72-.69,1.08-1.03-.36.34-.72.69-1.08,1.03Z"/>
      <path class="cls-18" d="m194.4,184.19c-.09.12-.18.24-.28.36.09-.12.18-.24.28-.36Z"/>
      <path class="cls-18" d="m152.87,208.12c-.41-5.4-.77-10.83-3.23-15.78-.87-1.75-2.14-3.29-3.22-4.93.75-.62,1.49-1.25,2.26-1.84.58-.45,1.24-.79,1.8-1.26,1.01-.86,2.2-.52,2.76.72.54,1.19,1.15,2.36,1.85,3.46,1.19,1.86.41,4.14-1.67,4.94-.38.15-.88,1.05-.76,1.25,1.33,2.17.54,4.56.81,6.83.19,1.61.33,3.24.3,4.86-.01.59-.58,1.18-.9,1.76Z"/>
      <path class="cls-26" d="m237.81,80.89c0,.45,0,.91,0,1.36-3.22-1.03-6.43-2.07-10.08-3.24.79-.13,1.2-.2,1.61-.27.26-.04.51-.08.77-.12.23-.04.47-.08.7-.12.01.07,0,.14-.03.2.37.1.73.2,1.1.31.22.03.43.07.65.1.36.23.72.45,1.08.68.12.01.23,0,.34-.05,1.29.38,2.58.77,3.87,1.15Z"/>
      <path class="cls-6" d="m230.8,78.5c-.23.04-.47.08-.7.12-.26-.06-.52-.13-.77-.19-.03-.1-.05-.21-.06-.32.51.13,1.02.26,1.53.39Z"/>
      <path class="cls-8" d="m229.33,78.43c.26.07.51.13.77.19-.26.04-.51.08-.77.12,0-.1,0-.21,0-.31Z"/>
      <path class="cls-25" d="m60.97,186.34c-.01-.37-.02-.74-.03-1.11-.1-1.74-.21-3.48-.31-5.22-.03-.58-.06-1.16-.09-1.74.04-.71.09-1.42.13-2.13.47.86,1.22,1.68,1.37,2.6.58,3.55,1.33,7.13,1.34,10.69,0,3.1.6,5.97,1.46,8.87.14.48,0,1.04-.02,1.56-.68-1.95-1.46-3.88-1.99-5.87-.42-1.56-.51-3.2-.81-4.79-.14-.73-.44-1.43-.67-2.15-.12-.23-.25-.47-.37-.7Z"/>
      <path class="cls-6" d="m60.67,176.13c-.04.71-.09,1.42-.13,2.13-.09-1.76-.17-3.52-.26-5.29.13,1.05.26,2.1.39,3.15Z"/>
      <path class="cls-21" d="m59.27,163.82c-.06-.5-.11-.99-.17-1.49.06.5.11.99.17,1.49Z"/>
      <path class="cls-25" d="m65.52,201.96c-.18-.41-.35-.83-.53-1.24.18.41.35.83.53,1.24Z"/>
      <path class="cls-25" d="m65.97,203.55c-.08-.24-.17-.48-.25-.72.08.24.17.48.25.72Z"/>
      <path class="cls-6" d="m147.87,197.56c-.13,0-.25,0-.38,0-.22-1.18-.44-2.36-.66-3.54,1.06.97,1.53,2.11,1.03,3.53Z"/>
      <path class="cls-6" d="m60.63,180.01c.1,1.74.21,3.48.31,5.22-.1-1.74-.21-3.48-.31-5.22Z"/>
      <path class="cls-15" d="m79.01,226.47c1.16,1.15,2.33,2.31,3.49,3.46-1.83-.49-3.08-1.55-3.49-3.46Z"/>
      <path class="cls-15" d="m73.39,219.02c.71,1.4,1.41,2.81,2.12,4.21-1.9-.81-1.62-2.7-2.12-4.21Z"/>
      <path class="cls-6" d="m60.97,186.34c.12.23.25.47.37.7-.12-.23-.25-.47-.37-.7Z"/>
      <path class="cls-16" d="m246.13,219.63c-.09,0-.18,0-.26.04-2.21,1.06-4.43,2.13-6.64,3.19-1.66-.65-2.55-1.84-2.08-3.62.3-1.16.93-2.24,1.4-3.35,0,0,.02-.03.02-.03.1-.08.2-.17.31-.25.36-.15.72-.31,1.08-.46.58-.36,1.16-.71,1.74-1.07.24-.23.48-.46.71-.7.36-.21.71-.41,1.07-.62,1.95-.12,3.9-.25,5.86-.37,0,.1,0,.2.01.3-.66,2.05-.45,4.53-2.86,5.71-.13.06-.12.42-.17.64-.06.2-.12.39-.17.59Z"/>
      <path class="cls-28" d="m238.54,215.9c-.48,1.11-1.1,2.19-1.4,3.35-.47,1.78.42,2.97,2.08,3.62.01.13.02.27.04.4-1.37.09-2.75.2-4.12.24-.23,0-.54-.24-.69-.45-.63-.91-.05-4.25.86-4.92,1.06-.77,2.15-1.5,3.23-2.25Z"/>
      <path class="cls-21" d="m246.13,219.63c.06-.2.12-.39.17-.59,3.02-1.44,4.17-3.85,3.03-6.35,0-.1,0-.2-.01-.3.39.22,1.02.37,1.12.68.53,1.67-.87,5.26-2.38,6.09-.56.31-1.29.32-1.94.46Z"/>
      <path class="cls-6" d="m239.26,223.27c-.01-.13-.02-.27-.04-.4,2.21-1.06,4.43-2.13,6.64-3.19-1.73,2.06-3.87,3.37-6.61,3.59Z"/>
      <path class="cls-28" d="m241.69,214.08c-.58.36-1.16.71-1.74,1.07.58-.36,1.16-.71,1.74-1.07Z"/>
      <path class="cls-28" d="m243.47,212.77c-.36.21-.71.41-1.07.62.36-.21.71-.41,1.07-.62Z"/>
      <path class="cls-28" d="m238.86,215.61c-.1.08-.2.17-.31.25.1-.08.2-.17.31-.25Z"/>
      <path class="cls-21" d="m205.65,81.13c1.11-.55,2.19-1.19,3.34-1.63,1.13-.43,2.33-.66,3.5-.98-2.28.87-4.56,1.74-6.85,2.61Z"/>
      <path class="cls-21" d="m213.11,78.42c.25-.1.5-.21.76-.31-.25.1-.5.21-.76.31Z"/>
      <path class="cls-6" d="m280.55,133.23c-.12-.7-.25-1.41-.37-2.11,1.13.53.71,1.32.37,2.11Z"/>
      <path class="cls-15" d="m183.5,104.42c-.13-.71-.25-1.41-.38-2.12.12-.35.24-.7.36-1.05.12-.23.23-.47.35-.7.35-.94.71-1.87,1.06-2.81.23-.35.47-.7.7-1.05h0c1.6-2.07,3.78-3.8,3.92-6.72.01-.29.28-.75.52-.81,1.33-.35,2.69-.61,4.04-.9-.59.68-1.12,1.44-1.79,2.04-1.48,1.31-3.07,2.52-3.56,4.59-.32.49-.64.99-.96,1.48-.26.33-.52.66-.78.99-.19.26-.38.53-.57.79-.06.31-.13.62-.19.92-.28.51-.57,1.03-.86,1.54-.62,1.27-1.23,2.55-1.85,3.82Z"/>
      <path class="cls-17" d="m194.07,88.24c-1.35.29-2.71.54-4.04.9-.24.06-.5.52-.52.81-.14,2.93-2.32,4.66-3.92,6.72,1.05-2.5,1.98-5.06,3.22-7.47.38-.73,1.56-1.15,2.46-1.47,1.46-.52,2.9-.91,3.26-2.73.05-.26.61-.42.94-.63-.12.94-.23,1.88-.35,2.83-.35.35-.7.7-1.05,1.04Z"/>
      <path class="cls-17" d="m196.53,83.67c-.35.23-.71.47-1.06.7.35-.23.71-.47,1.06-.7Z"/>
      <path class="cls-17" d="m185.59,96.68c-.23.35-.47.7-.7,1.05.23-.35.47-.7.7-1.05Z"/>
      <path class="cls-17" d="m183.83,100.54c-.12.23-.23.47-.35.7.12-.23.23-.47.35-.7Z"/>
      <path class="cls-25" d="m127.06,89.63c-.13-.08-.26-.17-.38-.25.13.08.26.17.38.25Z"/>
      <path class="cls-6" d="m83.88,101.91c-.8.7-1.59,1.41-2.39,2.11.8-.7,1.59-1.41,2.39-2.11Z"/>
      <path class="cls-6" d="m76.18,108.97c-.37.46-.74.93-1.11,1.39.37-.46.74-.93,1.11-1.39Z"/>
      <path class="cls-6" d="m244.87,82.93c-2.12-.69-4.24-1.39-6.36-2.08.94-.23,1.87-.45,2.81-.68.69.41,1.42.75,2.05,1.23.56.43,1,1.02,1.5,1.53Z"/>
      <path class="cls-21" d="m262.52,95.97c-.96-1.03-1.92-2.05-2.88-3.08,1.4.62,2.85,1.19,2.88,3.08Z"/>
      <path class="cls-21" d="m265.27,98.46c-.11-.21-.23-.43-.34-.64.12,0,.24,0,.36,0,0,.21,0,.43-.01.64Z"/>
      <path class="cls-6" d="m271.38,202.5c.21-.25.42-.5.63-.75-.21.25-.42.5-.63.75Z"/>
      <path class="cls-15" d="m67.04,122.34c.08-.24.16-.47.24-.71-.08.24-.16.47-.24.71Z"/>
      <path class="cls-15" d="m64.96,126.93c.11-.24.22-.48.32-.71-.11.24-.22.48-.32.71Z"/>
      <path class="cls-15" d="m65.28,126.21c.09-.12.19-.23.28-.35-.09.12-.19.23-.28.35Z"/>
      <path class="cls-6" d="m233.95,79.74c-.11.04-.23.06-.34.05-.36-.23-.72-.45-1.08-.68-.22-.03-.43-.07-.65-.1-.02-.1-.04-.21-.05-.32,1.05-.34,1.92-.32,2.13,1.05Z"/>
      <path class="cls-8" d="m231.82,78.69c.01.11.03.21.05.32-.37-.1-.73-.2-1.1-.31.35,0,.7,0,1.04-.01Z"/>
      <path class="cls-20" d="m154.18,108.63c-1.59-.14-3.55-1.84-3.71-3.35-.03-.26.55-.58.84-.87.96,1.4,1.91,2.81,2.87,4.21Z"/>
      <path class="cls-25" d="m149.95,103.71c-.1-.49-.19-.98-.29-1.46.34.48.68.96,1.03,1.44-.25,0-.49.02-.74.02Z"/>
      <path class="cls-21" d="m151.68,159.66c.7.69,1.41,1.39,2.11,2.08-.7-.69-1.41-1.39-2.11-2.08Z"/>
      <path class="cls-21" d="m150.02,158.16c.11.11.22.22.34.32-.11-.11-.22-.22-.34-.32Z"/>
      <path class="cls-21" d="m149.67,157.79c.11.11.21.23.32.34-.11-.11-.21-.23-.32-.34Z"/>
      <path class="cls-6" d="m200.31,215.87c-2.27-1.99-4.09-4.26-4.49-7.38.94,1.3,1.91,2.59,2.82,3.91.39.56.68,1.19.97,1.81.26.54.47,1.11.7,1.66Z"/>
      <path class="cls-6" d="m187.71,150.12c.05-1.34.77-2.02,2.09-2.13-.7.71-1.39,1.42-2.09,2.13Z"/>
      <path class="cls-21" d="m182.34,115.73c-.18-.14-.49-.27-.5-.42-.21-2.41-.23-4.81,1.03-7.01-.18,2.48-.35,4.96-.53,7.43Z"/>
      <path class="cls-21" d="m187.75,96.35c.32-.49.64-.99.96-1.48-.32.49-.64.99-.96,1.48Z"/>
      <path class="cls-21" d="m185.35,100.6c.29-.51.57-1.03.86-1.54-.29.51-.57,1.03-.86,1.54Z"/>
      <path class="cls-21" d="m182.45,117.41c-.02-.35-.04-.7-.06-1.05.13.12.26.24.39.35-.11.23-.22.46-.33.7Z"/>
      <path class="cls-21" d="m186.4,98.14c.19-.26.38-.53.57-.79-.19.26-.38.53-.57.79Z"/>
      <path class="cls-25" d="m196.87,177.87c.21-.27.42-.54.63-.81-.21.27-.42.54-.63.81Z"/>
      <path class="cls-13" d="m183.05,128.67c-.3-.13-.71-.18-.89-.4-.67-.81-1.58-1.6-1.83-2.54-.34-1.28-.36-2.74-.13-4.05.19-1.11,1.1-1.91,2.44-1.81.14,2.94.28,5.87.42,8.81Z"/>
      <path class="cls-15" d="m183.47,134.29c.16-.37.31-.75.47-1.12.09,0,.17.02.25.05.69,1.18,1.38,2.36,2.07,3.54.03.2.07.41.1.61-.03.27-.05.53-.08.8-1.66-.77-2.67-2.01-2.81-3.87Z"/>
      <path class="cls-6" d="m186.26,136.76c-.69-1.18-1.38-2.36-2.07-3.54.69,1.18,1.38,2.36,2.07,3.54Z"/>
      <path class="cls-6" d="m186.29,138.16c.03-.26.05-.53.08-.8.22.37.44.74.67,1.12-.25-.11-.5-.21-.75-.32Z"/>
      <path class="cls-27" d="m188.06,154.68c-.24.47-.47.94-.71,1.41.24-.47.47-.94.71-1.41Z"/>
      <path class="cls-8" d="m232.52,79.11c.36.23.72.45,1.08.68-.36-.23-.72-.45-1.08-.68Z"/>
      <path class="cls-13" d="m249.34,212.7c1.13,2.5-.02,4.91-3.03,6.35.05-.22.04-.57.17-.64,2.42-1.19,2.2-3.67,2.86-5.71Z"/>
    </g>
  </g>
</svg>