<?xml version="1.0" encoding="utf-8"?>
<!-- Generator: Adobe Illustrator 28.0.0, SVG Export Plug-In . SVG Version: 6.00 Build 0)  -->
<svg version="1.1" id="Layer_1" xmlns="http://www.w3.org/2000/svg" xmlns:xlink="http://www.w3.org/1999/xlink" x="0px" y="0px"
	 viewBox="0 0 259.5 259.5" style="enable-background:new 0 0 259.5 259.5;" xml:space="preserve">
<style type="text/css">
	.st0{fill:#4285F4;}
	.st1{fill:#34A853;}
	.st2{fill:#FBBC05;}
	.st3{fill:#EA4335;}
	.st4{fill:none;}
</style>
<path class="st0" d="M254.3,132.7c0-9.2-0.8-18-2.4-26.5H129.7v50.2h69.8c-3.1,16.2-12.3,29.8-26.1,39v32.7h42.1
	C240.1,205.5,254.3,172.2,254.3,132.7z"/>
<path class="st1" d="M129.7,259.5c35,0,64.4-11.6,85.9-31.4l-42.1-32.7c-11.6,7.8-26.3,12.5-43.8,12.5c-33.7,0-62.4-22.8-72.7-53.4
	H13.9V188C35.3,230.3,79,259.5,129.7,259.5z"/>
<path class="st2" d="M57.1,154.4c-2.6-7.8-4.1-16-4.1-24.7s1.5-16.9,4.1-24.7V71.6H13.9C5.1,89,0,108.7,0,129.7s5.1,40.7,13.9,58.1
	l33.6-26.2C47.5,161.7,57.1,154.4,57.1,154.4z"/>
<path class="st3" d="M129.7,51.7c19.1,0,36.1,6.6,49.7,19.3l37.2-37.2C194,12.9,164.8,0,129.7,0C79,0,35.3,29.1,13.9,71.6l43.2,33.5
	C67.3,74.4,96,51.7,129.7,51.7z"/>
<path class="st4" d="M0,0h259.5v259.5H0V0z"/>
</svg>
