<?xml version="1.0" encoding="UTF-8"?>
<svg id="Layer_2" data-name="Layer 2" xmlns="http://www.w3.org/2000/svg" viewBox="0 0 498.5 383.54">
  <defs>
    <style>
      .cls-1 {
        fill: #fde5d4;
      }

      .cls-2 {
        fill: #ee723a;
      }

      .cls-3 {
        fill: #f37237;
      }

      .cls-4 {
        fill: #fddcc0;
      }

      .cls-5 {
        fill: #fdc497;
      }

      .cls-6 {
        fill: #fc633a;
      }

      .cls-7 {
        fill: #f07241;
      }

      .cls-8 {
        fill: #f0733a;
      }

      .cls-9 {
        fill: #dd5936;
      }

      .cls-10 {
        fill: #ef9c6f;
      }

      .cls-11 {
        fill: #ec733b;
      }

      .cls-12 {
        fill: #565971;
      }

      .cls-13 {
        fill: #fec08d;
      }

      .cls-14 {
        fill: #fbc49a;
      }

      .cls-15 {
        fill: #5b5768;
      }

      .cls-16 {
        fill: #3e3d49;
      }

      .cls-17 {
        fill: #f7985b;
      }

      .cls-18 {
        fill: #f0723a;
      }

      .cls-19 {
        fill: #ff8d55;
      }

      .cls-20 {
        fill: #565972;
      }

      .cls-21 {
        fill: #fa965a;
      }

      .cls-22 {
        fill: #d95d35;
      }

      .cls-23 {
        fill: #eb7540;
      }

      .cls-24 {
        fill: #f68448;
      }

      .cls-25 {
        fill: #8d94a0;
      }

      .cls-26 {
        fill: #fffcec;
      }

      .cls-27 {
        fill: #fde2c4;
      }

      .cls-28 {
        fill: #e38053;
      }
    </style>
  </defs>
  <g id="Layer_1-2" data-name="Layer 1">
    <g>
      <path class="cls-1" d="m0,193.32c0-12.16,0-24.33,0-36.49.52-.63,1.38-1.2,1.49-1.89.64-4.12,1.1-8.28,1.62-12.42.75-6.04,1.7-12.01,3.58-17.84,1.1-3.4,1.08-7.19,2.35-10.51,1.46-3.8.82-8.15,3.62-11.6,1.4-1.73,1.85-4.2,2.9-6.25.58-1.12,1.74-2,.52-3.4-.13-.15.28-.85.53-1.24.31-.47.82-.82,1.08-1.31,1.81-3.42,3.48-6.93,5.4-10.3,2.46-4.3,5.16-8.45,7.68-12.72,2.21-3.76,4.41-7.52,7.85-10.34.05-.04.07-.11.11-.16,5.63-7.72,12.67-14.1,20.01-20.06,5.27-4.27,10.84-8.26,16.95-11.41,4.68-2.42,9.12-5.21,14.12-7.1,7.52-2.85,14.68-6.61,22.68-8.15,3.51-.68,6.89-2.01,10.37-2.86,4.93-1.19,9.9-2.25,14.86-3.28,3.02-.63,6.05-1.35,9.12-1.59,5.91-.46,11.84-.6,17.76-.87,12.04,0,24.08,0,36.12,0,3.35.13,6.7.25,10.05.4,2.25.1,4.58.69,6.73.28,3.09-.6,5.97-.33,8.9.52,1.05.3,2.13.54,3.2.74,6.96,1.26,13.94,2.43,20.88,3.76,5.55,1.07,10.86,3.26,16.63,3.31,1.51.01,3.04.48,4.5.92,1.59.48,3.1,1.23,4.68,1.75,7.6,2.48,15.26,4.76,22.8,7.42,4.42,1.56,8.64,3.7,12.97,5.54,3.74,1.59,7.55,3.01,11.25,4.7,3.05,1.39,5.98,3.05,8.96,4.62,6.33,3.33,12.71,6.58,18.97,10.05,4.38,2.43,8.59,5.16,12.86,7.76.71.43,1.43.88,2.1,1.37,2.8,2.07,5.56,4.18,8.38,6.23,4.89,3.56,9.92,6.95,14.69,10.67,4.38,3.41,8.51,7.16,12.74,10.77,2.74,2.33,5.51,4.64,8.21,7.02,3.39,2.98,6.84,5.89,10.05,9.05,3.62,3.56,6.98,7.39,10.5,11.05.5.52,1.23,1.05,1.91,1.13,1.28.16,2,.41,1.48,1.92-.11.32.22.93.53,1.22,2.26,2.1,4.74,4,6.81,6.27,3.42,3.76,6.58,7.75,9.85,11.65,1.24,1.48,2.3,3.16,3.73,4.42,2.24,1.98,4.09,4.11,5.59,6.76,1.89,3.34,4.39,6.34,6.66,9.46,2.2,3.02,4.55,5.94,6.64,9.03,1.11,1.63,1.57,3.72,2.74,5.29,3.81,5.06,7.12,10.36,9.77,16.16,2.6,5.68,5.46,11.16,7.18,17.26,1.8,6.38,4.1,12.57,4.55,19.29.41,5.96.68,11.88-1.41,17.58-1.17,3.2-2.57,6.33-4.07,9.39-1,2.05-2.33,3.94-3.58,5.85-.97,1.5-2.19,2.85-3.03,4.41-.91,1.71-2.24,2.7-3.93,3.54-1.7.85-3.29,1.97-4.83,3.1-1.08.8-1.87,2.03-3.01,2.71-3.22,1.95-6.82,3.38-9.78,5.65-4.86,3.72-10.57,5.57-15.99,8.02-6.39,2.89-12.94,5.47-19.5,7.97-5.82,2.21-11.32,5.19-17.44,6.71-3.73.92-7.24,2.7-10.9,3.9-5.57,1.84-11.23,3.4-16.78,5.29-5.49,1.87-10.86,4.07-16.32,6.01-10.26,3.65-20.6,7.1-30.82,10.86-6.64,2.44-13.14,5.26-19.68,7.97-2.89,1.2-5.71,2.57-8.55,3.88-.34.16-.61.46-.94.66-.62.37-1.22.83-1.9,1.05-5.38,1.72-10.93,3.07-15.45,6.77-.34.27-.8.51-1.22.54-4.57.38-8.36,2.85-12.4,4.63-1.52.67-2.76,1.95-4.28,2.6-2.82,1.2-5.75,2.14-8.63,3.2-1.93.71-3.91,1.33-5.77,2.19-3.4,1.56-6.65,3.46-10.1,4.85-4.44,1.8-9.06,3.15-13.54,4.85-6.8,2.58-13.55,5.3-20.32,7.96-.36.14-.72.3-1.09.4-3.72,1.04-7.44,2.05-11.15,3.13-1.55.45-3.02,1.21-4.58,1.53-5.35,1.08-10.73,2.03-16.1,3.02-5.22.96-10.27,3.01-15.73,2.48-7.25,0-14.5,0-21.75,0-2.5-.21-5.06-.17-7.49-.7-4.26-.94-8.45-2.22-12.67-3.38-2.53-.69-5.19-1.13-7.56-2.2-4.87-2.21-9.63-4.68-14.35-7.21-3-1.61-5.84-3.53-8.75-5.31-2.41-1.47-4.82-2.93-7.23-4.39-.43-.26-1.04-.37-1.32-.74-2.07-2.79-4.95-4.64-7.53-6.87-4.34-3.74-8.21-8.02-12.25-12.1-1.18-1.19-2.29-2.45-3.38-3.72-1.16-1.35-2.26-2.75-3.4-4.11-.98-1.17-1.97-2.34-2.97-3.49-.64-.73-1.35-1.38-1.96-2.13-2.72-3.34-4.29-7.52-7.76-10.34-1.11-.9-1.9-2.26-2.65-3.53-2.66-4.48-5.22-9.03-7.87-13.52-.93-1.58-2.18-3-2.97-4.65-.97-2.02-1.3-4.38-2.45-6.26-2.42-3.97-4.58-7.97-6.05-12.45-2.42-7.38-6.59-14.09-8.35-21.78-.74-3.23-2.45-6.18-3.29-9.5-1.5-5.98-3.74-11.75-4.38-17.98-.4-3.89-1.65-7.68-2.32-11.54-1.11-6.33-2.1-12.68-3.06-19.04-.16-1.08-.55-1.67-1.63-1.76Zm345.12-93.16c-.39-.77-.78-1.55-1.18-2.32-.39-.78-.78-1.55-1.17-2.33-.25-.39-.5-.78-.75-1.17-.23-.15-.45-.29-.68-.44-.02-.25-.03-.5-.05-.75-.15-.25-.31-.49-.46-.74h0c-.14-1.13-.2-2.29-.44-3.41-.31-1.42-.36-3.18-1.24-4.14-1.66-1.82-3.83-3.17-5.8-4.7-.13-.1-.45-.18-.53-.11-1.1,1.03-2.12-.03-3.17-.1-.14-.14-.28-.28-.41-.42.14-2.08-1-3.74-2.48-4.69-1.92-1.23-4.26-1.82-6.42-2.68-.27-.12-.55-.23-.82-.35-.26-.12-.53-.24-.79-.36-1.31-1.77-2.62-3.55-3.96-5.31-.18-.24-.53-.34-.8-.52-2.02-1.35-4.03-2.7-6.05-4.04-2.22-1.48-4.52-3.12-7.3-2.46-2.2.52-4.24,1.73-6.36,2.63-2.72-.25-5.43-.51-8.15-.76-5.57,0-11.13-.01-16.7-.02-.25,0-.5,0-.75.01-.27,0-.53.01-.8.02-4.15.74-8.3,1.48-12.45,2.23-.5.09-1.06.06-1.5.27-5.67,2.64-11.36,5.24-16.96,8.01-1.4.69-2.74,1.79-3.7,3.02-1.98,2.55-4.34,4.5-7.3,5.76-1.04-.37-2.08-.75-3.12-1.12-.27-.07-.53-.14-.8-.22-.89-.07-1.78-.15-2.67-.22-3.38-.76-6.49-2.11-9.24-4.23-.4-.41-.79-.84-1.2-1.24-2.74-2.68-5.49-5.36-8.23-8.04-.39-.8-.72-1.64-1.17-2.4-2.68-4.55-5.44-9.06-8.04-13.66-.7-1.23-1.49-1.71-2.84-1.86-2.97-.33-5.24,1.22-7.77,2.35-5.41,2.41-9.51,6.35-13.48,10.53-2.92,2.98-5.14,6.17-3.2,10.62.75,1.71,1.61,3.39,2.2,5.15,2.17,6.46,6.85,11.42,10.15,17.21.09.17.23.32.38.44,4.1,3.41,7.13,7.83,11.55,11.05,4.31,3.14,8.62,5.83,13.76,7.19,2.98,2.34,6.21,3.99,10.13,3.9.15.1.29.21.44.31h.16s.16-.02.16-.02l.43.15c.06.12.15.21.27.27.03.26.06.53.1.79-.64.59-1.8,1.15-1.85,1.78-.51,7.77-1.02,15.56-1.17,23.34-.06,2.98,1.07,5.96,1.19,8.96.21,5.34.13,10.7.04,16.05-.06,3.51-.44,7.01-.52,10.52-.04,1.86.43,3.73.31,5.58-.09,1.46-.83,2.87-1.08,4.34-.45,2.72-.9,5.46-1.06,8.21-.1,1.68.36,3.39.56,5.08-.65,1.79-1.3,3.57-1.95,5.36-.19.3-.39.6-.58.9-.06.22-.12.44-.18.66-.35.54-.7,1.09-1.06,1.63-.04.1-.07.21-.1.32-.48.54-.96,1.09-1.44,1.63-2.91,3.07-5.82,6.14-8.72,9.22-.2.03-.4.06-.6.09-.96,0-1.98-.23-2.87.02-2.18.6-4.46,1.15-6.38,2.27-.92.54-1.13,2.31-1.66,3.52-.52.13-1.05.25-1.57.38-.11,0-.21.05-.3.12-.77.1-1.54.2-2.32.3-.15.07-.31.15-.46.22-.27.03-.53.07-.8.1-.52.1-1.04.21-1.56.31-.63.07-1.26.14-1.89.2-.4.09-.8.19-1.2.28-.39.08-.77.17-1.16.26-1.21-.38-2.4-.95-3.65-1.1-3.58-.43-7.2-.88-10.72.42-.27.04-.54.08-.81.11-2.87-.26-5.75-.55-8.62-.75-.61-.04-1.24.21-1.87.32-1.67-.15-3.34-.31-5.01-.46-2.72-.25-5.43-.7-8.15-.71-5.15-.02-10.3.31-15.45.32-6.23.02-12.2,1.09-17.4,4.64-4.45,3.04-9.81,5.1-12.24,10.53-.17.39-.58.69-.9,1-2.99,2.94-4.9,6.53-5.88,10.53-1.44,5.9-3.26,11.73-3.54,17.89-.24,5.07-1.6,10.16-.05,15.19,1.47,4.75,3.21,9.44,8.82,10.92.15.12.28.27.45.35,5.28,2.47,10.93,2.68,16.54,2.19,2.11-.18,4.83-.78,5.46-3.74.4-1.41.95-2.8,1.17-4.24.41-2.78.62-5.58.93-8.38.66-5.96,3.3-10.66,8.78-13.47,1.53-.79,3.18-1.36,4.77-2.03,2.24.21,4.48.42,6.72.63,1.51.41,3.02.83,4.53,1.24.44,1.45,1.44,2.27,2.78,2.93,2.36,1.14,4.72,2.31,6.9,3.74,2.74,1.79,5.07,4.32,7.98,5.7,3.82,1.82,8.03,2.81,12.05,4.24.72.26,1.39.85,1.93,1.43,1.48,1.62,2.96,3.09,5.24,3.65,1.98.49,3.91,1.2,5.27,2.96,1.24,1.6,2.75,2.88,4.96,3.02.47.03,1.08.3,1.35.66,2.31,3.08,5.62,3.13,8.93,2.9,1.48-.11,2.91-.75,4.37-1.14.25.02.51.04.76.06,1.42.4,2.84.81,4.27,1.21.26.56.38,1.38.82,1.63,2.54,1.44,5.09,2.88,7.77,4.02.87.37,2.12-.15,3.2-.28.88-.11,1.76-.28,2.65-.37,1.87-.2,3.77-.27,5.6-.63.53-.11.9-1.04,1.35-1.59,1.28-.01,2.57-.02,3.85-.03.77.06,1.55.11,2.32.17.27,0,.54,0,.81,0,2.71-.1,5.42-.21,8.13-.31.18-.06.36-.12.55-.17.6-.06,1.19-.12,1.79-.18.26-.03.51-.06.77-.09l20.59-2.72c2.25-.72,4.62-1.19,6.73-2.2,7.19-3.46,15.16-5.1,21.98-9.41,1.05.31,2.66,1.2,3.06.82,1.97-1.86,4.28-1.45,6.56-1.6.63-.04,1.45-.55,1.78-1.09,1-1.65,1.61-3.55,2.72-5.09.88-1.22,2.26-2.87,3.46-2.9,2.43-.06,4.13-1.1,5.93-2.37,1.14-.81,1.91-1.49,1.43-3.13-.42-1.43.43-1.96,1.85-1.58.42.11,1.34-.14,1.39-.37.65-3.05,3.37-4.02,5.41-5.73,1.44-1.2,2.91-2.7,3.61-4.39,1.24-2.98,3.2-5.53,4.15-8.78.78-2.67,1.6-5.46,2.6-8.12.36-.96,1.13-1.83,1.89-2.54.79-.74,1.84-1.18,2.69-1.85,1.78-1.39,3.14-2.95,2.76-5.53-.27-1.84-.27-3.76,1.58-5.05.31-.22.34-.81.53-1.22,1.44-3.15,2.94-6.28,4.3-9.47.8-1.87,1.7-3.77,2.03-5.75.61-3.73.86-7.51,1.2-11.28.11-1.23.09-2.51-1.45-2.99.09-.74.13-1.48.27-2.21.4-1.98.84-3.96,1.26-5.93.07-.06.07-.13,0-.19.36-1.23.73-2.46,1.09-3.69.29-1.75.59-3.49.88-5.24.34-2.78.69-5.56,1.03-8.35.02-.52.05-1.03.07-1.55.14-1.81.27-3.63.41-5.44.02-2.45.04-4.91.07-7.36-.04-4.53-.08-9.06-.13-13.6-.01-.39-.02-.79-.04-1.18-.11-.14-.21-.28-.32-.42-.15-1.93-.3-3.86-.46-5.79-.09-.31-.19-.62-.28-.92-.18-1.25-.36-2.49-.54-3.74-.09-.13-.18-.26-.28-.4,0-.12-.02-.24-.06-.36.03-.91.05-1.82.08-2.73-.05-.26-.11-.52-.16-.79-.07-.26-.13-.51-.2-.77,1.47-1.14,1.78-2.52,1.12-4.27-1.82-4.85-3.54-9.73-5.36-14.57-.2-.53-.81-.9-1.23-1.34-.51-.82-1.01-1.64-1.52-2.46-.15-.6-.29-1.2-.44-1.81-.3-.61-.6-1.21-.91-1.82l.14-.09s-.14.08-.14.08c-.61-.81-1.21-1.63-1.82-2.44h0ZM83.52,329.62c0-.52,0-1.03,0-1.55-.01-3.84-3.08-6.82-6.59-7.03-4.03-.24-6.03,2.52-7.63,5.56-1.38,2.61-.74,5.3,1.05,7.38,3.52,4.1,7.48,4.99,11.36,1.34,1.64-1.55,1.99-3.55,1.82-5.7Z"/>
      <path class="cls-26" d="m164.6,1.54V0c11.91,0,23.82,0,35.72,0,.13.51.26,1.02.39,1.54-12.04,0-24.08,0-36.12,0Z"/>
      <path class="cls-26" d="m143.64,383.54c0-.51,0-1.03,0-1.54,7.25,0,14.5,0,21.75,0,0,.51,0,1.03,0,1.54h-21.74Z"/>
      <path class="cls-17" d="m195.71,220.91c.2-.03.4-.06.6-.09,1.46-.55,3.27-.74,4.27-1.75,1.26-1.27,2.57-2.24,4.16-2.94.41-.18.88-.38,1.13-.72,2.48-3.36,4.72-6.71,5.45-11.09.7-4.17,1.35-8.49,4.01-12.16.93-1.29,1.05-3.26,1.23-4.96.27-2.46.31-4.95.34-7.42.03-2.44.32-4.96-1.44-7.04-.03-1.17-.06-2.35-.09-3.52.05-5.16.1-10.32.14-15.48.24-.53.6-1.03.69-1.58.19-1.13.35-2.29.31-3.43-.12-3.04,1.16-6.1-.15-9.14-.34-.79-.49-1.73-.5-2.6-.05-5.09.08-10.18-.09-15.26-.05-1.38-.95-2.73-1.46-4.1-.14-.13-.28-.25-.42-.38-.03-.26-.06-.53-.1-.79-.09-.09-.18-.18-.27-.27-.14-.05-.29-.1-.43-.15.38-.63.96-1.21,1.1-1.89.63-2.99,1.09-6.01,1.69-9,.45-2.24.88-4.51,1.59-6.67.85-2.58,1.95-5.08,3.05-7.57.55-1.25,1.4-2.37,2.02-3.6,1.17-2.31,2.27-4.66,3.39-6.99,2.96-1.26,5.31-3.21,7.3-5.76.96-1.23,2.3-2.33,3.7-3.02,5.6-2.77,11.29-5.38,16.96-8.01.45-.21,1-.19,1.5-.27,1.82.53,3.65,1.05,5.47,1.58.97,2.3,1.91,4.61,2.95,6.87.18.39.75.74,1.2.84,1.13.23,2.28.42,3.43.43,5.55.04,11.11.1,16.66-.01,2.88-.06,5.64.09,8.17,1.65.36.22.86.21,1.29.34,2.45.7,5.05,1.08,7.29,2.19,1.96.98,3.48,2.81,5.24,4.21,1.31,1.04,2.55,2.38,4.06,2.89,2.62.88,3.88,2.94,5.56,4.79,2.25,2.49,4.94,4.59,7.44,6.86.66,1.15,1.23,2.36,2,3.44,1.07,1.49,2.28,2.89,3.44,4.32,3.17,2.37,5.3,5.22,4.69,9.5-.13.9.16,1.94.54,2.8.94,2.15,2.03,4.24,3.06,6.35,1.25,2.55,2.48,5.09,2.22,8.07-.05.55.09,1.19.34,1.68,1.29,2.59,1.22,5.35,1.19,8.12-.04,3.61,0,7.23,0,10.84.12,2.71.23,5.41.35,8.12-.91.27-1.81.6-2.74.79-2.05.43-4.11.8-6.16,1.19-1.52.26-3.06.42-4.55.79-2.65.65-5.25,1.52-7.92,2.11-4.35.97-8.45,2.6-12.5,4.39-.33.15-.78,0-1.15.09-1.31.27-2.67.43-3.91.89-1.53.57-2.98,1.38-4.44,2.13-1.83.93-3.65,1.88-5.45,2.88-1.85,1.03-3.68,2.08-5.47,3.2-2.32,1.46-4.6,2.99-6.87,4.53-.85.57-1.56,1.36-2.45,1.84-1.44.77-2.83,1.44-3.46,3.15-.23.63-1.09,1.03-1.69,1.51-.92.75-2.01,1.35-2.77,2.24-2.24,2.64-4.31,5.42-6.53,8.07-1.06,1.27-2.56,2.23-3.44,3.6-2.02,3.13-3.64,6.53-6.64,8.94-.22.17-.25.57-.37.87-.39.28-.93.48-1.16.86-2.34,3.88-4.51,7.85-5.41,12.36-.64,1.16-1.28,2.33-1.93,3.49-.42.41-.82.84-1.27,1.21-.83.69-1.58,1.66-2.54,1.97-2.01.65-4.64.11-5.02,3.48-.97-2.01-.92-4.44-4.06-4.65.14,1.23.22,2.33.4,3.42.23,1.39.51,2.77.83,4.14.34,1.46.55,2.99,1.17,4.33,1.2,2.63.32,4.56-2.57,5.13-.34.07-.82.25-.95.51-1.07,2.18-2.21,4.33-3.05,6.6-.79,2.13-.97,4.5-1.9,6.55-1.07,2.36-1.32,2.26-3.62,1.06,0-1.53,0-3.06,0-4.59.64-1.06,1.28-2.13,1.93-3.19.14-.25.28-.5.42-.76,0-.26-.01-.51-.02-.77l.03-.77c.13-.13.26-.26.39-.39.24-.18.57-.31.7-.55.87-1.56,1.71-3.13,2.52-4.72.51-1.01,1.16-2,1.41-3.07,1.19-5.19.31-10.23-1.62-15.07-.7-1.76-1.99-3.29-3.01-4.93-.14-.11-.27-.22-.41-.34-1.1-.65-1.54-2.82-3.49-1.53-.75-.3-2.06-.98-2.15-.84-1,1.49-1.7.22-2.48-.15-.35-.21-.71-.61-1.05-.61-2.32.06-4.46-.06-5.95,2.66-1.7,3.11-3.69,5.95-3.14,9.72-.76,1.62-1.41,3.3-2.32,4.83-2.32,3.91-3.68,8.12-4.25,12.61-1.28,3.34-2.34,6.8-3.92,9.99-1.27,2.55-2.19,5.04-1.94,7.9-1.82.59-3.63,1.22-5.47,1.77-1.09.33-2.21.56-3.32.78-1.73.35-3.59.36-5.16,1.04-2.49,1.08-6.9-.39-7.69-3.07-.51-1.74-1.56-1.86-2.95-1.55-.69.15-1.35.45-2.03.66-1.84.57-2.33.17-2.11-1.73.27-2.39-.56-3.32-3.01-3.33-1.16,0-2.35-.12-3.49.05-.68.1-1.46.51-1.89,1.03-.8.97-1.38,2.12-2.05,3.2-2.2-.52-4.4-1.03-6.6-1.55l-1.56-1.55c-.91-.02-1.82-.04-2.72-.06.06-.31.03-.67.18-.93,2.04-3.54,4.24-6.99,6.09-10.63,1.07-2.11,2.3-4.39,1.51-6.94-1.2-3.88-1.36-7.85-1.11-11.84.05-.75.81-2,1.38-2.09,3.72-.57,7.48-.98,11.24-1.25,2.44-.18,4.9.02,7.35-.07.57-.02,1.13-.49,1.7-.76.39-.17.79-.33,1.18-.5.39-.08.77-.17,1.16-.25.4-.09.8-.19,1.2-.28.63-.07,1.26-.14,1.89-.2.52-.1,1.04-.21,1.56-.31.27-.03.53-.07.8-.1.15-.07.31-.15.46-.22.77-.1,1.54-.2,2.31-.3,0,0,.18.02.18.02l.13-.14c.52-.13,1.05-.25,1.57-.38,4.57-.19,7.6-3.26,10.91-5.81Zm88.86-100.58c-.34-.91-.59-1.96-1.95-1.17-1.19-.6-2.33-1.33-3.57-1.79-4.76-1.79-9.29-4.5-14.68-4-.4-.96-.97-1.48-2.12-1.75-4.43-1.06-8.82-2.29-13.19-3.56-2.01-.59-3.83-.32-5.84.19-5.26,1.32-6.62,5.84-8.67,9.85-.16.31-.1.77-.07,1.15.24,3.29,1.08,6.37,3.55,8.73,3.46,3.31,8.01,4.22,12.36,5.58,1.38.43,2.79.94,4.02,1.68,1.43.87,2.49.93,3.42-.57,1.94.73,3.88,1.48,5.83,2.19.6.22,1.29.26,1.83.57,4.83,2.78,9.87,3.23,15.14,1.51,3.44-.86,5.02-3.71,6.58-6.44.74-1.3.93-2.92,1.41-4.38.93-2.8-1.32-7.16-4.05-7.79Z"/>
      <path class="cls-20" d="m126.17,268.47c-1.59.67-3.24,1.24-4.77,2.03-5.47,2.8-8.11,7.51-8.78,13.47-.31,2.79-.52,5.6-.93,8.38-.21,1.44-.77,2.83-1.17,4.24-1.09-.07-2.19-.05-3.27-.22-1.56-.24-3.11-.94-4.65-.88-3.07.12-6.13.52-9.17.98-1.81.27-3.57.86-5.36,1.31-5.61-1.48-7.35-6.16-8.82-10.92-1.55-5.03-.18-10.12.05-15.19.29-6.16,2.1-11.98,3.54-17.89.98-4,2.89-7.59,5.88-10.53.32-.32.73-.61.9-1,2.42-5.43,7.79-7.5,12.24-10.53,5.2-3.55,11.17-4.62,17.4-4.64,5.15-.01,10.3-.34,15.45-.32,2.72,0,5.44.46,8.15.71.49.77.82,1.75,1.5,2.27,1.36,1.03,2.34,2.18,2.55,3.91.2,1.65.56,3.3.57,4.96.02,2.31-.09,4.63-.38,6.92-.54,4.31-.23,8.82-3.71,12.35-2.41,2.44-4.04,5.62-7.11,7.48-1.94,1.18-3.76,2.03-6.09.9-2-.96-3.75.12-4.04,2.22Z"/>
      <path class="cls-8" d="m253.5,212.33c.12-.29.15-.69.37-.87,3-2.41,4.62-5.8,6.64-8.94.88-1.37,2.37-2.33,3.44-3.6,2.22-2.65,4.29-5.43,6.53-8.07.76-.89,1.84-1.49,2.77-2.24.59-.48,1.45-.89,1.69-1.51.63-1.72,2.02-2.38,3.46-3.15.89-.48,1.61-1.27,2.45-1.84,2.27-1.54,4.55-3.07,6.87-4.53,1.79-1.13,3.62-2.17,5.47-3.2,1.79-1,3.62-1.94,5.45-2.88,1.46-.75,2.91-1.56,4.44-2.13,1.24-.46,2.6-.63,3.91-.89.38-.08.82.06,1.15-.09,4.05-1.8,8.15-3.42,12.5-4.39,2.66-.59,5.26-1.47,7.92-2.11,1.49-.37,3.03-.53,4.55-.79-.96,1.21-.87,2.19.3,3.33.51.5.84,1.88.52,2.39-.68,1.07-1.85,1.83-3.05,2.93-.74-2.36-2.16-2.41-3.93-1.4-.34.19-.89-.03-1.33.03-1.22.18-2.46.31-3.63.66-.97.29-1.82,1.07-2.79,1.26-4.86.93-6.97,4.73-9.09,8.53-.22.4-.08.99-.18,1.48-.42,2.08-.52,4.32-1.42,6.17-.77,1.57-.67,2.46.5,3.51,1.57,1.41,3.02,2.97,4.69,4.24,1.79,1.36,1.61,3.6,2.7,5.25.54.83.65,2.06,1.35,2.64,2.24,1.88,4.66,3.55,7.22,5.45.43-.94.66-1.6,1.02-2.18.54-.87,1.43-1,1.76-.03.53,1.54,1.56,2.23,2.97,2.72.48.17.93.72,1.16,1.2.81,1.75,2.17,2.15,3.95,1.98,1.28-.12,2.59-.14,3.87,0,1.83.19,2.53-.59,1.97-2.41-.13-.42-.42-1.07-.25-1.25,1.29-1.35.45-2.95.66-4.41.16-1.06.48-2.13.91-3.12.91-2.11,1.85-4.22,2.97-6.21.47-.84,1.36-1.81,2.22-1.99,1.93-.41,3.96-.36,5.95-.49-.42,1.98-.86,3.95-1.26,5.93-.14.73-.18,1.47-.27,2.21-.19.79-.39,1.57-.58,2.36-.08.13-.17.26-.25.39,0,0,.02,0,.02,0-1.98,1.69-3.25,3.85-3.03,6.44.24,2.74-.5,5.12-1.75,7.43-.95,1.74-2.08,3.39-2.93,5.17-1.33,2.79-2.48,5.66-3.73,8.49-.5,1.14-1.04,2.26-1.67,3.61-1.09-1.38-3.37-1.26-3.23-3.55.1-1.63.23-3.26.23-4.9,0-.46-.44-.93-.67-1.39.25-.72.56-1.42.72-2.15.25-1.13-.07-1.9-1.44-1.72-.41-.13-.82-.36-1.24-.36-4.14,0-8.28.03-12.41.06-3.3-1.69-3.8-3.05-2.24-6.35.41-.87.93-1.73,1.6-2.41,1-1.02.81-1.91.07-2.92-2.61-3.52-7.19-2.99-8.99,1.01-.28.62-.74,1.16-.91,1.42-1.54-1.13-2.77-2.06-4.03-2.95-.79-.56-1.72-.96-2.39-1.63-.86-.86-1.54-2.16-.19-2.98,3.44-2.1,3.12-4.96,1.98-8.09-.54-.39-1.05-1.09-1.62-1.14-4.34-.37-6.37,1.16-8,5.82-.02.11-.05.22-.08.32-.22.29-.45.58-.67.86l-.13.68c-.12.27-.24.53-.36.8-1.24,3.93,0,7.07,3.13,9.54,1.64,1.29,2.5,2.74,1.5,4.81-1.33.82-1.39,1.7-.18,2.72.32.27.47.75.7,1.13.18,1.58-.65,2.17-2.1,2.13-.52-.49-.95-1.12-1.56-1.44-2.9-1.54-3.76-3.69-3.22-7.03.46-2.84-.76-4.07-3.25-3.71-.57.08-1.17.08-1.74,0-1.58-.23-2.43.58-2.89,1.95-1.04,3.14-1.58,6.26.3,9.32.28.45.3,1.05.47,1.68-2.26,0-4.3-.09-6.32.02-2.7.15-5.39.46-8.08.7-1.29-.54-2.59-1.09-3.88-1.63-1.31-2.21-3.38-3.12-5.81-3.48-2.17-.32-3.05,1.18-3.91,2.72-.66-.79-1.37-1.54-1.96-2.38-.86-1.22-2.81-1.64-3.36-.59-.53,1-1.03,2.06-1.26,3.16-.35,1.6-1.05,2.35-2.72,1.75,1.68-3.63,3.35-7.25,5.03-10.88Z"/>
      <path class="cls-12" d="m200.69,65.22c2.74,2.68,5.49,5.36,8.23,8.04.41.4.8.83,1.2,1.24-1.54.7-.3,1.14.13,1.71,1.03,1.36,2,2.78,3.04,4.14,1.48,1.95-.06,3.31-.89,4.82-.08.15-.04.38-.05.57-.4.79-.8,1.58-1.2,2.37-.25.26-.49.51-.74.77h0c-1.08,1.24-1.8,2.57-1.16,4.28,0,.26,0,.52,0,.79-.51,1.55-1.03,3.1-1.54,4.66-1.52,2.64-1.15,5.55-1.18,8.4-.02,2.41-.97,3.51-3.38,4.07-.35.08-.61.51-.92.77-5.13-1.36-9.44-4.05-13.76-7.19-4.42-3.22-7.46-7.64-11.55-11.05-.15-.12-.28-.28-.38-.44-3.3-5.78-7.98-10.75-10.15-17.21-.59-1.77-1.45-3.44-2.2-5.15-1.94-4.45.28-7.64,3.2-10.62.71-.24,1.49-.37,2.12-.74,1.82-1.09,3.73-2.11,5.33-3.48,2.49-2.13,4.97-3.85,8.49-3.94,1.24-.03,2.38-.33,3.42.42,1.51,1.09,3.06,2.17,4.39,3.46,2.35,2.28,4.51,4.74,6.81,7.07.82.83,1.82,1.5,2.73,2.25Z"/>
      <path class="cls-3" d="m354.1,191.38c-1.99.14-4.02.09-5.95.49-.86.18-1.75,1.15-2.22,1.99-1.13,2-2.06,4.11-2.97,6.21-.43.99-.75,2.06-.91,3.12-.21,1.46.62,3.06-.66,4.41-.17.18.13.83.25,1.25.56,1.81-.14,2.6-1.97,2.41-1.28-.13-2.59-.12-3.87,0-1.78.17-3.14-.23-3.95-1.98-.23-.49-.68-1.04-1.16-1.2-1.41-.49-2.45-1.18-2.97-2.72-.33-.97-1.22-.85-1.76.03-.36.58-.59,1.24-1.02,2.18-2.56-1.9-4.98-3.57-7.22-5.45-.7-.58-.81-1.82-1.35-2.64-1.09-1.65-.9-3.89-2.7-5.25-1.67-1.27-3.12-2.83-4.69-4.24-1.17-1.05-1.27-1.93-.5-3.51.91-1.84,1-4.09,1.42-6.17.1-.49-.04-1.08.18-1.48,2.12-3.8,4.23-7.6,9.09-8.53.97-.19,1.82-.97,2.79-1.26,1.17-.35,2.41-.48,3.63-.66.44-.07.99.16,1.33-.03,1.78-1.01,3.19-.96,3.93,1.4,1.19-1.09,2.36-1.86,3.05-2.93.32-.51,0-1.89-.52-2.39-1.17-1.14-1.26-2.12-.3-3.33,2.06-.39,4.12-.76,6.16-1.19.93-.2,1.83-.52,2.74-.79.6.14,1.21.27,1.81.42,2.81.68,5.42-.41,8.09-.91,1.99-.37,4.07-1.64,5.57.9.02.03.12.02.19.03-.02,2.45-.04,4.91-.07,7.36-1.29.66-2.62,1.25-3.83,2.03-.4.25-.71,1.42-.68,1.44,1.34.71,2.72,1.33,4.1,1.96-.02.52-.05,1.03-.07,1.55-.48.21-1.3.32-1.39.64-.72,2.59-.89,5.19.36,7.71-.29,1.75-.59,3.49-.88,5.24-2.05.73-.82,2.43-1.09,3.69.07.06.07.13,0,.19Zm-15.52,15.84c.23,0,.47,0,.7,0,.26-.76.69-1.51.7-2.27,0-.48-.61-.97-.94-1.45-.4.5-1.11.98-1.14,1.5-.04.73.43,1.49.68,2.23Z"/>
      <path class="cls-18" d="m341.65,151.01c0-3.61-.05-7.23,0-10.84.03-2.78.1-5.53-1.19-8.12-.25-.5-.39-1.13-.34-1.68.27-2.98-.96-5.52-2.22-8.07-1.04-2.11-2.13-4.2-3.06-6.35-.37-.86-.66-1.91-.54-2.8.61-4.29-1.53-7.13-4.69-9.5-.39-1.21-.91-2.41-1.15-3.65-.94-4.81-4.62-7.31-8.18-9.93-2.61-2.55-4.85-5.53-8.23-7.21-.28-.14-.47-.43-.72-.63-1.87-1.44-3.61-3.13-5.66-4.25-5.41-2.96-10.96-5.67-16.45-8.48.48-1.35,1.41-.63,2.23-.49,2.23.41,3.64-1.15,2.87-3.3-.4-1.12-1.07-2.14-1.61-3.2.52-.13,1.04-.26,1.56-.4.26.03.51.06.77.09.53.49,1,1.07,1.6,1.47,1.49.98,3.38,1.58,4.48,2.87,2.18,2.56,5.13,1.36,7.65,2.08.14.04.45-.49.68-.76.26.02.52.03.78.05.12.06.24.12.36.19.1.03.21.03.32.03.14.07.29.14.43.21.78.25,1.56.51,2.34.76.87,1.14,1.57,2.51,2.67,3.38,1.72,1.39,3.76,2.37,5.56,3.66,2.08,1.5,4.21,2.98,6.02,4.78,1.96,1.94,3.41,4.39,5.36,6.34,2.34,2.34,4.97,4.4,7.48,6.56.12.1.37.06.56.08.23.15.45.29.68.44.25.39.5.78.75,1.17.39.78.78,1.55,1.17,2.33.39.77.78,1.55,1.18,2.32,0,0,0,0,0,0,.61.81,1.21,1.63,1.82,2.44l.14-.08s-.14.09-.13.08c.3.6.6,1.21.91,1.82.15.6.29,1.2.44,1.81.03.38.01.78.1,1.14.58,2.49,1.12,4.91.72,7.56-.28,1.9-.22,3.81-1.28,5.54-.31.51-.27,1.23-.36,1.86-.2,1.38.29,1.95,1.79,1.97.63.01,1.46.78,1.83,1.42,1.35,2.31,2.55,4.71,3.83,7.06.1.18.43.25.65.36.04.11.06.23.06.36.09.13.18.26.28.4.18,1.25.36,2.49.54,3.74.09.31.19.62.28.92.15,1.93.3,3.86.46,5.79.11.14.21.28.32.42.01.39.02.79.04,1.18-.56.97-1.12,1.94-1.86,3.22-.49-.58-.88-1.31-1.49-1.72-.73-.49-1.79-1.16-2.44-.95-1.47.48-3.1,1.18-4.09,2.3-1.7,1.93-3.62,2.49-6,2.18Zm10.02-5.49c3.01-3.96,3.84-6.82,2.62-7.75-.47.67-.78,1.63-1.41,1.92-2.21,1.04-2.86,3.57-1.2,5.82Z"/>
      <path class="cls-23" d="m334.98,223.59c.24.46.67.92.67,1.39,0,1.63-.12,3.27-.23,4.9-.14,2.28,2.14,2.17,3.23,3.55.63-1.35,1.17-2.47,1.67-3.61,1.24-2.83,2.4-5.7,3.73-8.49.85-1.78,1.98-3.43,2.93-5.17,1.26-2.31,1.99-4.69,1.75-7.43-.22-2.59,1.05-4.75,3.03-6.44-.71,3.07-1.27,6.19-2.16,9.2-1.22,4.16-2.53,8.31-4.08,12.35-1.49,3.88-3.32,7.62-5.01,11.42-.8,1.8-1.62,3.6-2.43,5.4-2.37,1.09-3.57,3.19-4.51,5.43-.46,1.1-.58,2.34-.85,3.52-.36.67-.66,1.38-1.1,2-2.36,3.33-4.75,6.65-7.13,9.96-.22.29-.44.58-.66.87-.17.23-.33.46-.5.69-2.03,2.1-4.06,4.19-6.08,6.3-.07.07-.02.25-.03.38-1.25,1.42-2.36,3.01-3.78,4.24-3.49,3.04-7.04,6.03-10.71,8.83-3.1,2.37-6.42,4.45-9.65,6.66-6.82,4.31-14.79,5.95-21.98,9.41-2.11,1.01-4.48,1.48-6.73,2.2.4-.7.98-1.35,1.16-2.1.35-1.44.75-2.96.56-4.37-.07-.51-1.75-.8-2.69-1.21-.6-.26-1.18-.56-1.77-.85,3.12-1.12,6.27-2.16,9.35-3.4,2.16-.87,4.21-2.02,6.3-3.04.97-.31,2.03-.48,2.91-.97,3.98-2.21,7.92-4.47,11.84-6.79,2.09-1.23,4.18-2.49,6.09-3.96,1.45-1.12,2.61-2.61,3.9-3.93,3.24-1.75,6.21-3.8,7.78-7.34.9-.9,1.81-1.81,2.71-2.71,1.94-2.47,3.88-4.93,5.81-7.4,1.29-1.68,2.58-3.36,3.87-5.05.03-.11.06-.22.08-.33.23-.28.47-.56.7-.84.03-.11.05-.22.08-.33.23-.28.47-.56.7-.84.28-.38.56-.76.84-1.13.24-.4.49-.79.73-1.19h0c.22-.11.57-.17.65-.34,1.66-3.73,5.25-6.44,5.77-10.79.03-.23.32-.41.42-.64.56-1.41,1.1-2.83,1.64-4.25.39-1.26.79-2.52,1.18-3.79Z"/>
      <path class="cls-2" d="m199.93,300.49c-.25-.02-.51-.04-.76-.06-2.86-1.26-5.71-2.53-8.57-3.79.08-.46.15-.93.23-1.39-.13-.13-.26-.26-.39-.38-.47.36-.94.72-1.4,1.07-.38-.17-.76-.35-1.13-.52-.75-1.42-1.47-2.86-2.26-4.26-.12-.22-.56-.24-.84-.38-.88-.42-1.76-.86-2.64-1.29-.73-.36-1.45-.77-2.21-1.04-2.31-.82-4.97-.91-6.34-3.51-.22-.42-1.07-.51-1.63-.76-.26,0-.51,0-.77,0-.21-.3-.35-.7-.64-.89-2.13-1.42-4.44-2.62-6.4-4.24-2.34-1.94-4.51-4.12-6.52-6.4-1.02-1.15-.47-1.94,1.07-2.07.68-.06,1.34-.25,2.01-.38,1.42.52,2.84,1.04,4.27,1.56.79.71,1.51,1.52,2.37,2.12,1.25.85,2.66,1.46,3.9,2.33,4.1,2.9,8.29,5.58,13.07,7.32,2.38.86,4.76,2.11,6.7,3.71,3.87,3.19,8.39,4.99,13.06,6.09,3.88.92,8.04.73,12.08.91,1.44.06,2.89-.23,4.34-.36,6.66,1.62,13.44,1.1,20.18,1.16.72,2.22.26,4.16-1.56,5-2.61,1.2-5.37,2.09-8.03,3.19-.62.26-1.12.82-1.68,1.23-1.28.01-2.57.02-3.85.03-3.5-.42-7.01-.84-10.51-1.26-.64-.16-1.27-.32-1.91-.47-.19-.23-.35-.64-.58-.68-4.19-.72-8.15-3.34-12.65-1.58Z"/>
      <path class="cls-7" d="m229.43,304.45c.56-.42,1.05-.98,1.68-1.23,2.66-1.1,5.42-1.98,8.03-3.19,1.82-.84,2.28-2.79,1.56-5-.28-1.42-.54-2.83-.83-4.25-.49-2.46-.99-4.92-1.49-7.39.24-.07.55-.08.72-.23,2.27-1.97,4.75-3.22,7.87-2.49.25,1.31.44,2.64.77,3.94.61,2.43,1.32,4.84,1.96,7.26.36,1.36,1.09,2.2,2.6,2.01,3.12-.4,6.23-.83,9.34-1.24.59.28,1.17.58,1.77.85.94.41,2.62.7,2.69,1.21.19,1.41-.21,2.94-.56,4.37-.18.75-.76,1.4-1.16,2.1-6.86.91-13.73,1.81-20.59,2.72-.26.03-.51.06-.77.09-.6.06-1.19.12-1.79.17-.18.06-.36.12-.55.18-2.71.1-5.42.21-8.13.31-.27,0-.54,0-.81,0-.77-.06-1.55-.11-2.32-.17Z"/>
      <path class="cls-4" d="m323.34,263.14c.17-.23.33-.46.5-.69.22-.29.44-.58.66-.87,2.38-3.32,4.77-6.63,7.13-9.96.44-.62.73-1.33,1.1-2,1.79-2.99,3.58-5.97,5.37-8.96.81-1.8,1.62-3.6,2.43-5.4,1.69-3.8,3.52-7.54,5.01-11.42,1.55-4.05,2.86-8.19,4.08-12.35.88-3.02,1.45-6.13,2.16-9.2,0,0-.02,0-.02,0,.08-.13.17-.26.25-.39.19-.79.39-1.57.58-2.36,1.55.48,1.56,1.76,1.45,2.99-.34,3.77-.59,7.55-1.2,11.28-.32,1.97-1.22,3.88-2.03,5.75-1.37,3.18-2.87,6.31-4.3,9.47-.19.41-.22,1-.53,1.22-1.85,1.3-1.85,3.21-1.58,5.05.38,2.58-.98,4.14-2.76,5.53-.86.67-1.91,1.12-2.69,1.85-.76.72-1.54,1.59-1.89,2.54-1,2.66-1.82,5.45-2.6,8.12-.95,3.25-2.91,5.8-4.15,8.78-.7,1.68-2.17,3.18-3.61,4.39-2.04,1.71-4.76,2.69-5.41,5.73-.05.23-.97.48-1.39.37-1.42-.38-2.27.15-1.85,1.58.48,1.64-.29,2.32-1.43,3.13-1.8,1.28-3.5,2.31-5.93,2.37-1.2.03-2.58,1.68-3.46,2.9-1.12,1.55-1.73,3.45-2.72,5.09-.33.54-1.15,1.05-1.78,1.09-2.28.15-4.59-.26-6.56,1.6-.4.38-2.01-.52-3.06-.82,3.22-2.21,6.55-4.29,9.65-6.66,3.68-2.8,7.23-5.79,10.71-8.83,1.42-1.23,2.53-2.82,3.78-4.24.68-.47,1.3-1.14,2.05-1.37,2.66-.82,2.91-3.39,4.06-5.31Z"/>
      <path class="cls-16" d="m202.23,111.85c.3-.27.57-.69.92-.77,2.41-.56,3.35-1.66,3.38-4.07.03-2.85-.34-5.76,1.18-8.4,1.46-.85,2.14-2.91,1.54-4.66,0-.26,0-.52,0-.79.39-1.42.77-2.84,1.16-4.27,0,0,0,0,0,0,.25-.26.49-.51.74-.77.4-.79.8-1.58,1.2-2.37.87-.84,2.15-1.53,2.53-2.55.84-2.28,2.72-3.26,4.49-4.47.89.07,1.78.15,2.67.22.27.07.53.14.8.22,1.04.37,2.08.75,3.12,1.12-1.13,2.33-2.22,4.68-3.39,6.99-.62,1.23-1.47,2.35-2.02,3.6-1.1,2.49-2.19,4.99-3.05,7.57-.72,2.16-1.14,4.43-1.59,6.67-.6,2.99-1.07,6.01-1.69,9-.14.68-.72,1.26-1.1,1.89,0,0-.16.02-.16.02h-.16c-.15-.11-.29-.21-.44-.32-3.91.1-7.15-1.56-10.13-3.9Z"/>
      <path class="cls-27" d="m215.52,153.73c-.05,5.16-.1,10.32-.14,15.48-1.3,1.48-.71,3.09-.34,4.69-.36,4.14-.71,8.28-1.07,12.43-.38,2.09-.76,4.18-1.14,6.27-.07.73-.14,1.47-.21,2.2-.46,1.33-.92,2.65-1.39,3.98-.3.77-.6,1.54-.9,2.3-.21-1.7-.66-3.4-.56-5.08.16-2.75.61-5.48,1.06-8.21.24-1.47.99-2.88,1.08-4.34.11-1.85-.36-3.72-.31-5.58.08-3.51.46-7.01.52-10.52.09-5.35.17-10.71-.04-16.05-.12-3-1.25-5.98-1.19-8.96.15-7.79.66-15.57,1.17-23.34.04-.63,1.2-1.19,1.85-1.78.14.13.28.25.42.38.12,7.9.23,15.79.35,23.69.03,1.29.06,2.58.09,3.87.01.23.03.47.04.7.2,1.07.41,2.14.61,3.21.04,1.54.08,3.09.11,4.63Z"/>
      <path class="cls-12" d="m83.52,329.62c.17,2.15-.17,4.16-1.82,5.7-3.88,3.65-7.84,2.76-11.36-1.34-1.78-2.08-2.43-4.77-1.05-7.38,1.61-3.03,3.6-5.79,7.63-5.56,3.52.21,6.58,3.18,6.59,7.03,0,.52,0,1.03,0,1.55Z"/>
      <path class="cls-4" d="m187.9,295.41c.38.17.76.35,1.14.52.52.23,1.04.47,1.56.7,2.86,1.26,5.71,2.53,8.57,3.79-1.45.4-2.89,1.04-4.37,1.14-3.31.24-6.62.18-8.93-2.9-.27-.36-.88-.63-1.35-.66-2.2-.14-3.72-1.41-4.96-3.02-1.36-1.77-3.29-2.48-5.27-2.96-2.27-.56-3.76-2.04-5.24-3.65-.53-.58-1.2-1.18-1.93-1.43-4.01-1.43-8.23-2.42-12.05-4.24-2.9-1.38-5.24-3.91-7.98-5.7-2.18-1.43-4.55-2.6-6.9-3.74-1.35-.65-2.35-1.48-2.78-2.93.91.2,1.82.41,2.73.61,3.88,1.95,7.76,3.89,11.64,5.84,1.82.97,3.68,1.86,5.44,2.93,1.53.94,2.84,2.29,4.43,3.1,3.38,1.74,6.87,3.25,10.32,4.85.84,2.38,2.7,3.41,6.24,3.47.62.34,1.24.67,1.86,1.01.15.18.3.37.46.55.52.1,1.04.19,1.56.29.65.29,1.29.59,1.94.88.13.11.25.22.38.34,1.17.4,2.33.8,3.5,1.21Z"/>
      <path class="cls-6" d="m292.71,62.5c.55,1.06,1.21,2.09,1.61,3.2.77,2.15-.64,3.7-2.87,3.3-.81-.15-1.74-.86-2.23.49-1.17-.13-2.33-.27-3.5-.4-.26-.25-.52-.5-.79-.75-1.64-.16-3.72.25-4.84-.59-2.24-1.7-4.57-1.64-7.07-1.8-3.04-.19-6.05-.72-9.07-1.1,1.3-1.27,2.6-2.55,3.9-3.82.27,0,.53-.01.8-.02.25,0,.5,0,.75-.01,5.57,0,11.13.01,16.7.02.86.5,1.67,1.25,2.59,1.43,1.29.25,2.67.07,4.01.08Z"/>
      <path class="cls-8" d="m341.65,151.01c2.38.31,4.3-.26,6-2.18.99-1.12,2.61-1.82,4.09-2.3.65-.21,1.71.46,2.44.95.61.41,1,1.13,1.49,1.72.74-1.29,1.3-2.25,1.86-3.22.04,4.53.08,9.06.13,13.6-.06,0-.17,0-.19-.03-1.5-2.53-3.58-1.27-5.57-.9-2.67.5-5.28,1.59-8.09.91-.6-.15-1.2-.28-1.81-.42-.12-2.71-.23-5.41-.35-8.12Z"/>
      <path class="cls-15" d="m126.17,268.47c.28-2.1,2.04-3.19,4.04-2.22,2.33,1.12,4.15.28,6.09-.9,3.07-1.87,4.7-5.04,7.11-7.48,3.48-3.53,3.17-8.04,3.71-12.35.29-2.29.4-4.61.38-6.92-.01-1.65-.37-3.3-.57-4.96-.21-1.72-1.19-2.88-2.55-3.91-.68-.52-1.01-1.5-1.5-2.27,1.67.15,3.34.31,5.01.46.39,1.4.92,2.77,1.13,4.19.33,2.14.56,4.31.61,6.48.11,5.01,1.23,10.16-1.35,14.9-1.15,2.11-2.56,4.07-3.89,6.07-.9,1.37-1.86,2.7-2.79,4.04-2.31,2.78-5.47,4.19-8.7,5.5l-6.72-.63Z"/>
      <path class="cls-15" d="m200.69,65.22c-.92-.74-1.91-1.41-2.73-2.25-2.3-2.33-4.46-4.79-6.81-7.07-1.33-1.29-2.88-2.37-4.39-3.46-1.04-.75-2.18-.45-3.42-.42-3.52.09-6,1.81-8.49,3.94-1.6,1.37-3.51,2.39-5.33,3.48-.63.38-1.41.5-2.12.74,3.97-4.18,8.07-8.12,13.48-10.53,2.53-1.13,4.8-2.68,7.77-2.35,1.36.15,2.15.63,2.84,1.86,2.6,4.6,5.36,9.1,8.04,13.66.45.76.78,1.6,1.17,2.4Z"/>
      <path class="cls-10" d="m213.97,186.34c.36-4.14.71-8.28,1.07-12.43.15-.39.29-.78.44-1.17,1.76,2.08,1.47,4.6,1.44,7.04-.03,2.48-.08,4.97-.34,7.42-.18,1.69-.3,3.67-1.23,4.96-2.66,3.68-3.31,8-4.01,12.16-.73,4.38-2.97,7.73-5.45,11.09-.25.34-.72.54-1.13.72-1.59.7-2.9,1.67-4.16,2.94-1,1-2.82,1.19-4.27,1.75,2.91-3.07,5.81-6.14,8.72-9.22.48-.54.96-1.09,1.44-1.63.03-.11.06-.21.1-.32.35-.54.7-1.09,1.06-1.63.06-.22.12-.44.17-.66.19-.3.39-.6.59-.9.65-1.79,1.3-3.57,1.95-5.36.3-.77.6-1.54.9-2.31.46-1.33.92-2.65,1.39-3.98.07-.73.14-1.47.21-2.2,1.51-1.89,1.71-4.01,1.14-6.27Z"/>
      <path class="cls-10" d="m141.59,263.6c.93-1.35,1.89-2.68,2.79-4.04,1.32-2.01,2.74-3.97,3.89-6.07,2.58-4.74,1.46-9.89,1.35-14.9-.05-2.16-.28-4.34-.61-6.48-.22-1.42-.74-2.8-1.13-4.19.62-.12,1.25-.37,1.87-.32,2.88.21,5.75.49,8.62.75.27.1.54.19.81.29.25.02.5.04.75.07.3.2.59.41.89.61,3.85.03,7.7.06,11.56.1-.57.26-1.12.74-1.7.76-2.45.09-4.91-.11-7.35.07-3.76.27-7.52.68-11.24,1.25-.58.09-1.34,1.34-1.38,2.09-.25,3.99-.09,7.96,1.11,11.84.79,2.55-.44,4.83-1.51,6.94-1.85,3.64-4.06,7.09-6.09,10.63-.15.26-.13.62-.18.94-.38,0-.76.02-1.14.03-.43-.11-.86-.23-1.28-.34Z"/>
      <path class="cls-15" d="m88.08,297.78c1.78-.45,3.55-1.04,5.36-1.31,3.04-.46,6.11-.86,9.17-.98,1.53-.06,3.09.63,4.65.88,1.07.17,2.18.15,3.27.22-.63,2.96-3.35,3.55-5.46,3.74-5.61.49-11.26.28-16.54-2.19-.17-.08-.3-.23-.45-.35Z"/>
      <path class="cls-4" d="m295.04,62.2c-.26-.03-.51-.06-.77-.09-.02-.11-.03-.23-.02-.35,2.11-.9,4.15-2.1,6.36-2.63,2.77-.66,5.08.98,7.3,2.46,2.02,1.35,4.03,2.7,6.05,4.04.26.18.62.28.8.52,1.34,1.75,2.64,3.53,3.96,5.31-.77-.27-1.54-.54-2.31-.81-.72-.57-1.45-1.14-2.17-1.71-.67-.24-1.35-.48-2.02-.72-.43-.03-.87-.06-1.3-.09-.11,0-.21,0-.32-.02-.12-.06-.24-.12-.36-.19-.26-.02-.52-.03-.78-.05.03-.11.05-.22.04-.33-.32-.58-.51-1.5-.97-1.67-1.61-.59-3.32-.92-4.98-1.35l-8.49-2.31Z"/>
      <path class="cls-23" d="m355.56,133.15c-.22-.12-.55-.18-.65-.36-1.28-2.35-2.48-4.75-3.83-7.06-.38-.64-1.2-1.41-1.83-1.42-1.5-.02-1.99-.6-1.79-1.97.09-.63.06-1.35.36-1.86,1.05-1.73.99-3.63,1.28-5.54.4-2.65-.14-5.08-.72-7.56-.09-.37-.07-.76-.1-1.14.51.82,1.01,1.64,1.52,2.46,1.11,3.91,2.25,7.82,3.33,11.74.76,2.8,1.43,5.62,2.15,8.44.07.26.13.51.2.77.05.26.11.52.16.79-.03.91-.05,1.82-.08,2.73Z"/>
      <path class="cls-4" d="m215.06,303.22c3.5.42,7.01.84,10.51,1.26-.44.55-.81,1.49-1.35,1.59-1.84.36-3.73.43-5.6.63-.89.1-1.76.26-2.65.37-1.08.13-2.33.65-3.2.28-2.68-1.14-5.23-2.58-7.77-4.02-.44-.25-.55-1.07-.82-1.63.51,0,1.02,0,1.53.01.7.6,1.38,1.67,2.11,1.71,2.4.13,4.82-.11,7.23-.21Z"/>
      <path class="cls-28" d="m314.23,68.93c.72.57,1.45,1.14,2.17,1.71.55,1.47,1.79,1.6,3.1,1.56,0,0,0,0,0,0,.41.24.82.49,1.23.73.36.28.72.57,1.08.85.06,1.28.67,1.96,2,1.88,1.8,1.29,3.61,2.58,5.41,3.87.14.14.28.28.41.42,1.3,1.3,2.66,2.54,3.87,3.91,2.48,2.81,4.89,5.7,7.32,8.55,0,0,0,0,0,0,.15.25.31.49.46.74.02.25.03.5.05.75-.19-.02-.44.03-.56-.08-2.52-2.16-5.14-4.22-7.48-6.56-1.95-1.95-3.4-4.4-5.36-6.34-1.81-1.8-3.94-3.28-6.02-4.78-1.8-1.3-3.84-2.28-5.56-3.66-1.09-.88-1.79-2.24-2.67-3.38.18-.05.37-.11.55-.16Z"/>
      <path class="cls-4" d="m340.84,92.42c-2.44-2.86-4.84-5.74-7.32-8.55-1.21-1.37-2.58-2.61-3.87-3.91,1.05.07,2.07,1.13,3.17.1.08-.07.4,0,.53.11,1.97,1.53,4.14,2.88,5.8,4.7.88.96.93,2.72,1.24,4.14.24,1.12.3,2.28.44,3.41Z"/>
      <path class="cls-4" d="m355.27,128.87c-.71-2.81-1.38-5.64-2.15-8.44-1.07-3.92-2.21-7.83-3.33-11.74.42.44,1.04.81,1.23,1.34,1.82,4.84,3.55,9.72,5.36,14.57.65,1.75.34,3.13-1.12,4.27Z"/>
      <path class="cls-15" d="m219.36,78.74c-1.77,1.21-3.65,2.18-4.49,4.47-.37,1.02-1.66,1.71-2.53,2.55.01-.19-.04-.42.05-.57.83-1.51,2.37-2.87.89-4.82-1.03-1.36-2-2.78-3.04-4.14-.43-.57-1.67-1.01-.13-1.71,2.75,2.13,5.87,3.47,9.24,4.23Z"/>
      <path class="cls-4" d="m195.71,220.91c-3.31,2.55-6.35,5.62-10.91,5.81.53-1.21.74-2.98,1.66-3.52,1.92-1.12,4.2-1.67,6.38-2.27.89-.25,1.91-.03,2.87-.02Z"/>
      <path class="cls-11" d="m267.86,61.02c-1.3,1.27-2.6,2.55-3.9,3.82-1.03,0-2.05-.01-3.08-.02-1.82-.53-3.65-1.05-5.47-1.58,4.15-.74,8.3-1.48,12.45-2.23Z"/>
      <path class="cls-4" d="m159.92,228.7c-.25-.02-.5-.04-.75-.07,0-.13,0-.27,0-.4,3.53-1.3,7.14-.85,10.72-.42,1.24.15,2.43.72,3.65,1.1-.39.17-.79.33-1.18.5-3.85-.03-7.7-.06-11.56-.1-.3-.2-.59-.41-.89-.61Z"/>
      <path class="cls-28" d="m141.59,263.6c.43.11.86.23,1.28.35-2.55,1.7-4.51,3.62-2.73,7-.91-.2-1.82-.41-2.73-.61-1.51-.41-3.02-.83-4.53-1.24,3.23-1.31,6.4-2.72,8.7-5.5Z"/>
      <path class="cls-4" d="m329.23,79.53c-1.8-1.29-3.61-2.58-5.41-3.87-.67-.63-1.34-1.25-2-1.88-.36-.28-.72-.57-1.08-.85-.16-.24-.31-.47-.47-.71l.06-.06c2.16.86,4.5,1.45,6.42,2.68,1.48.95,2.63,2.62,2.48,4.69Z"/>
      <path class="cls-8" d="m357.18,172.36c-1.38-.63-2.76-1.26-4.1-1.96-.03-.02.28-1.19.68-1.44,1.21-.78,2.54-1.37,3.83-2.03-.14,1.81-.27,3.63-.41,5.44Z"/>
      <path class="cls-28" d="m205.72,301.72c-.51,0-1.02,0-1.53-.01-1.42-.4-2.84-.81-4.27-1.21,4.5-1.76,8.46.86,12.65,1.58.22.04.39.44.58.68-2.48-.34-4.95-.69-7.43-1.03Z"/>
      <path class="cls-8" d="m356.08,182.26c-1.25-2.52-1.08-5.12-.36-7.71.09-.32.91-.43,1.39-.64-.34,2.78-.69,5.56-1.03,8.35Z"/>
      <path class="cls-23" d="m294.26,61.76c-.01.12,0,.23.02.35-.52.13-1.04.26-1.56.4-1.34,0-2.71.17-4.01-.07-.92-.18-1.73-.93-2.59-1.43,2.72.25,5.43.51,8.15.76Z"/>
      <path class="cls-8" d="m354.11,191.19c.27-1.26-.96-2.96,1.09-3.69-.36,1.23-.73,2.46-1.09,3.69Z"/>
      <path class="cls-10" d="m319.51,72.2c-1.32.04-2.55-.08-3.1-1.56.77.27,1.54.54,2.31.81.26.12.53.24.79.36,0,.13,0,.26,0,.39Z"/>
      <path class="cls-4" d="m346.94,102.6c-.61-.81-1.21-1.63-1.82-2.44.61.81,1.21,1.63,1.82,2.44Z"/>
      <path class="cls-4" d="m345.12,100.16c-.39-.77-.78-1.55-1.18-2.32.39.77.78,1.55,1.18,2.32Z"/>
      <path class="cls-14" d="m206.47,209.97c-.48.54-.96,1.09-1.44,1.63.48-.54.96-1.09,1.44-1.63Z"/>
      <path class="cls-4" d="m179.35,227.85c-.52.11-1.04.21-1.56.31.52-.11,1.04-.21,1.56-.31Z"/>
      <path class="cls-4" d="m347.85,104.42c-.3-.61-.6-1.21-.91-1.82.3.61.6,1.21.91,1.82Z"/>
      <path class="cls-14" d="m207.63,208.03c-.35.54-.7,1.09-1.06,1.63.35-.54.7-1.09,1.06-1.63Z"/>
      <path class="cls-4" d="m342.77,95.51c-.25-.39-.5-.78-.75-1.17.25.39.5.78.75,1.17Z"/>
      <path class="cls-4" d="m175.9,228.37c-.4.09-.8.19-1.2.28.4-.09.8-.19,1.2-.28Z"/>
      <path class="cls-4" d="m319.51,72.2c0-.13,0-.26,0-.39.27.12.55.23.82.35,0,0-.06.06-.06.06-.25,0-.51-.01-.76-.02h0Z"/>
      <path class="cls-10" d="m243.02,303.96c.26-.03.51-.06.77-.09-.26.03-.51.06-.77.09Z"/>
      <path class="cls-13" d="m159.17,228.23c0,.13,0,.27,0,.4-.27-.1-.54-.19-.81-.29.27-.04.54-.07.81-.11Z"/>
      <path class="cls-4" d="m355.63,130.43c-.05-.26-.11-.52-.16-.79.05.26.11.52.16.79Z"/>
      <path class="cls-15" d="m222.84,79.18c-.27-.07-.53-.14-.8-.22.27.07.53.14.8.22Z"/>
      <path class="cls-14" d="m208.39,206.46c-.2.3-.39.6-.59.9.2-.3.39-.6.59-.9Z"/>
      <path class="cls-4" d="m341.29,93.15c-.15-.25-.31-.5-.46-.74.15.25.31.49.46.74Z"/>
      <path class="cls-10" d="m231.75,304.62c.27,0,.54,0,.81,0-.27,0-.54,0-.81,0Z"/>
      <path class="cls-8" d="m356.72,138.57c-.09-.31-.19-.61-.28-.92.09.31.19.61.28.92Z"/>
      <path class="cls-11" d="m269.41,60.98c-.25,0-.5,0-.75.01.25,0,.5,0,.75-.01Z"/>
      <path class="cls-8" d="m357.49,144.79c-.11-.14-.21-.28-.32-.42.11.14.21.28.32.42Z"/>
      <path class="cls-27" d="m212.36,115.74c.15.1.29.21.44.31-.15-.1-.29-.21-.44-.31Z"/>
      <path class="cls-10" d="m240.69,304.31c.18-.06.36-.12.55-.18-.18.06-.36.12-.55.18Z"/>
      <path class="cls-4" d="m183.23,227.1l-.13.14s-.18-.01-.18-.02c.09-.07.19-.11.3-.12Z"/>
      <path class="cls-27" d="m213.54,116.18c.09.09.18.18.27.27-.12-.06-.21-.15-.27-.27Z"/>
      <path class="cls-4" d="m180.61,227.53c-.15.07-.31.15-.46.22.15-.07.31-.15.46-.22Z"/>
      <path class="cls-8" d="m355.9,133.91c-.09-.13-.18-.26-.28-.4.09.13.18.26.28.4Z"/>
      <path class="cls-25" d="m64.06,348.38c-.01,2.59-1.61,4.12-4.27,4.11-2.17,0-4.24-2.17-4.24-4.45,0-2.75,1.73-4.56,4.37-4.54,2.76.02,4.16,1.68,4.15,4.88Z"/>
      <path class="cls-21" d="m238.38,283.38c.5,2.46,1,4.92,1.49,7.39.28,1.42.55,2.83.83,4.25-6.75-.06-13.53.47-20.18-1.16-1.77-.13-3.57-.14-5.32-.42-1.88-.3-3.73-.83-5.58-1.3-2.22-.57-4.42-1.18-6.63-1.77-2.15-.58-4.41-.89-6.42-1.78-3.46-1.53-6.78-3.38-10.11-5.18-1.45-.78-3.03-1.57-4.09-2.76-1.58-1.77-2.94-3.56-5.66-3.3-.45.04-.99-.3-1.41-.58-3.21-2.15-6.58-3.94-10.3-5.03-1.42-.52-2.84-1.04-4.27-1.56-1.94-1.03-3.88-2.06-5.83-3.09.67-1.08,1.25-2.23,2.05-3.2.43-.52,1.22-.93,1.89-1.03,1.14-.17,2.32-.05,3.49-.05,2.45.02,3.29.94,3.01,3.33-.22,1.9.27,2.3,2.11,1.73.68-.21,1.34-.5,2.03-.66,1.39-.31,2.44-.19,2.95,1.55.79,2.68,5.2,4.15,7.69,3.07,1.57-.68,3.43-.69,5.16-1.04,1.12-.22,2.24-.46,3.32-.78,1.84-.55,3.65-1.17,5.47-1.77-.05,4.94,2.53,8.02,6.5,10.78,6.15,4.28,15.87-.84,17.25-6.25.53-2.09,1.49-4.07,2.26-6.1.83.27,1.66.54,2.5.81.16-.21.31-.42.47-.64-.6-.7-1.2-1.41-1.8-2.11.39-.65.78-1.29,1.17-1.94,2.3,1.2,2.55,1.3,3.62-1.06.93-2.05,1.11-4.42,1.9-6.55.84-2.27,1.98-4.42,3.05-6.6.13-.27.6-.45.95-.51,2.88-.57,3.77-2.5,2.57-5.13-.61-1.34-.83-2.87-1.17-4.33-.32-1.37-.6-2.75-.83-4.14-.18-1.09-.26-2.19-.4-3.42,3.14.2,3.09,2.64,4.06,4.65.39-3.37,3.01-2.83,5.02-3.48.96-.31,1.71-1.28,2.54-1.97.45-.38.85-.81,1.27-1.21-.53,1.42-1.06,2.84-1.59,4.26-.56.73-1.4,1.38-1.63,2.2-.87,3.08-1.57,6.21-2.28,9.34-.31,1.37-.86,2.82-.66,4.14.36,2.42.45,4.69-.83,6.87-.13,3.67-.33,7.34-.39,11.01-.07,4.13-.09,8.27.01,12.4.03,1.38.49,2.76.75,4.14Z"/>
      <path class="cls-9" d="m220.08,266.67c-.77,2.03-1.73,4.01-2.26,6.1-1.38,5.41-11.1,10.53-17.25,6.25-3.97-2.76-6.55-5.84-6.5-10.78-.25-2.86.67-5.34,1.94-7.9,1.59-3.19,2.64-6.65,3.92-9.99.8.21,1.62.37,2.41.64,6.75,2.24,13.64,4.09,20.07,7.22,0,1.53,0,3.06,0,4.59-.39.65-.78,1.29-1.17,1.94-.39.65-.78,1.29-1.17,1.94Z"/>
      <path class="cls-22" d="m257.84,134.66c-.93,1.49-1.99,1.44-3.42.57-1.23-.75-2.63-1.25-4.02-1.68-4.35-1.36-8.91-2.27-12.36-5.58-2.47-2.37-3.31-5.44-3.55-8.73-.03-.38-.09-.83.07-1.15,2.04-4.01,3.41-8.54,8.67-9.85,2.01-.5,3.83-.77,5.84-.19,4.37,1.27,8.76,2.51,13.19,3.56,1.15.28,1.72.79,2.12,1.75-.6,1.81-1.24,3.61-1.8,5.44-1.6,5.28-3.17,10.57-4.75,15.86Z"/>
      <path class="cls-11" d="m238.38,283.38c-.26-1.38-.72-2.75-.75-4.14-.1-4.13-.08-8.27-.01-12.4.06-3.67.25-7.34.39-11.01.7-.8,1.8-1.49,2.04-2.41.78-3.03,1.46-6.12,1.76-9.23.36-3.67-.29-7.46,1.6-10.9.53-1.42,1.06-2.84,1.59-4.26.64-1.16,1.28-2.33,1.93-3.49.52-.78,1.03-1.56,1.55-2.34,1.67.6,2.37-.15,2.72-1.75.24-1.1.73-2.16,1.26-3.16.55-1.04,2.5-.63,3.36.59.59.84,1.3,1.59,1.96,2.38-.26,2.2-.52,4.4-.78,6.59-.64.78-1.51,1.47-1.89,2.36-1.33,3.18-2.61,6.38-3.68,9.65-.78,2.4-1.19,4.93-1.77,7.4-.27,2.21-.48,4.42-.82,6.61-.3,1.95-.74,3.87-1.12,5.81-.37,4.01-.74,8.03-1.1,12.04,0,.51,0,1.03,0,1.54.11,2.46.23,4.92.34,7.37-3.12-.73-5.6.52-7.87,2.49-.18.15-.48.16-.72.23Z"/>
      <path class="cls-5" d="m257.84,134.66c1.58-5.29,3.15-10.58,4.75-15.86.55-1.83,1.2-3.63,1.8-5.44,5.39-.49,9.91,2.21,14.68,4,1.24.47,2.38,1.19,3.57,1.79.51.41,1.03.81,1.54,1.22.36,1.22.6,2.49,1.1,3.65,1.05,2.44,1.68,4.81.07,7.28-.32.49-.27,1.22-.39,1.85h0c-.26.39-.51.78-.77,1.18-1.18,1.54-2.37,3.07-3.55,4.61-5.27,1.71-10.31,1.26-15.14-1.51-.54-.31-1.23-.35-1.83-.57-1.95-.72-3.89-1.46-5.83-2.19Z"/>
      <path class="cls-14" d="m222.42,258.21c-6.43-3.13-13.32-4.98-20.07-7.22-.79-.26-1.61-.43-2.41-.64.57-4.49,1.92-8.7,4.25-12.61.91-1.53,1.55-3.22,2.32-4.83.86-1.98,1.86-3.91,2.56-5.95,1.24-3.57,2.96-6.36,7.39-5.79.06,0,.13-.02.19-.03.79.38,1.48,1.64,2.48.15.1-.14,1.41.54,2.15.84.26.62.52,1.25.77,1.87-1.17-.57-2.25-1.62-3.71-.61-.17.12-.6-.13-.91-.2h0c-1.28-1.46-1.62-1.42-3.14.4h0c-.39.26-.78.52-1.16.78-.03.11-.04.21-.05.32-.98.37-2.63.55-2.82,1.16-.9,3.04-1.69,6.19-.58,9.39,1.13,2.04,3.03,3.26,5.16,3.52,1.86.23,3.87-.24,5.74-.71,1.12-.28,2.17-1.04,3.13-1.76.94-.71,2.48-1.26,1.51-2.99,0-.25,0-.51,0-.76-.14-.91-.28-1.82-.42-2.73-.11-.79-.21-1.58-.32-2.37.23.02.47.04.7.05.51,1.29,1.01,2.59,1.52,3.88.02.38.03.75.05,1.13,0,1.35-.17,2.73.05,4.05.68,4.03.43,7.86-1.38,11.63-.63,1.31-.44,3.02-.62,4.54-.01.26-.02.52-.03.77-.13.26-.26.52-.39.78,0,.25,0,.5-.01.75l-1.93,3.19Z"/>
      <path class="cls-19" d="m260.89,64.82c1.03,0,2.05.01,3.08.02,3.02.38,6.04.91,9.07,1.1,2.5.16,4.83.1,7.07,1.8,1.12.85,3.2.44,4.84.59.26.25.52.5.79.75,1.17.13,2.33.27,3.5.4,5.49,2.81,11.04,5.52,16.45,8.48,2.05,1.12,3.79,2.81,5.66,4.25.25.19.44.49.72.63,3.38,1.68,5.62,4.66,8.23,7.21.57.93,1.12,1.88,1.73,2.79.69,1.03,1.43,2.02,2.16,3.03-2.5-2.27-5.18-4.37-7.44-6.86-1.68-1.86-2.94-3.91-5.56-4.79-1.51-.51-2.75-1.85-4.06-2.89-1.76-1.4-3.28-3.24-5.24-4.21-2.24-1.12-4.84-1.5-7.29-2.19-.43-.12-.93-.11-1.29-.34-2.53-1.56-5.29-1.71-8.17-1.65-5.55.11-11.11.06-16.66.01-1.15,0-2.31-.2-3.43-.43-.45-.09-1.02-.45-1.2-.84-1.04-2.27-1.98-4.58-2.95-6.87Z"/>
      <path class="cls-23" d="m154.9,267.08c1.94,1.03,3.88,2.06,5.83,3.09-.67.13-1.33.33-2.01.38-1.54.13-2.09.92-1.07,2.07,2.02,2.28,4.18,4.46,6.52,6.4,1.96,1.62,4.27,2.82,6.4,4.24.28.19.43.59.64.89-3.48-.84-6.19-3.76-10.01-3.71-.05,0-.1-.07-.16-.1-2.49-1.34-4.95-2.73-7.49-3.97-.42-.2-1.16.25-1.76.4-3.88-1.95-7.76-3.89-11.64-5.84-1.78-3.38.18-5.3,2.73-7,.38,0,.76-.02,1.14-.03.91.02,1.82.04,2.72.06.52.52,1.04,1.04,1.56,1.55,2.2.52,4.4,1.03,6.6,1.55Z"/>
      <path class="cls-10" d="m214.67,141.31c-.12-7.9-.23-15.79-.35-23.69.51,1.36,1.41,2.72,1.46,4.1.18,5.08.05,10.18.09,15.26,0,.87.15,1.81.5,2.6,1.31,3.04.02,6.1.15,9.14.05,1.14-.12,2.3-.31,3.43-.09.55-.45,1.05-.69,1.58-.04-1.54-.08-3.09-.11-4.63-.2-1.07-.41-2.14-.61-3.21-.01-.23-.03-.47-.04-.7-.03-1.29-.06-2.58-.09-3.87Z"/>
      <path class="cls-10" d="m226.74,232.5c-.02-.38-.03-.75-.05-1.13,0-1.49.37-3.13-1.52-3.88-.23-.02-.47-.04-.7-.05-.04-.63-.07-1.26-.1-1.89.27-.52.53-1.03.8-1.55,1.02,1.64,2.31,3.17,3.01,4.93,1.93,4.84,2.81,9.88,1.62,15.07-.25,1.08-.9,2.07-1.41,3.07-.81,1.59-1.65,3.16-2.52,4.72-.13.24-.46.37-.7.55.35-1.09.63-2.22,1.07-3.28,1.05-2.53,2.78-4.83,2.42-7.81-.19-1.59-.11-3.23-.44-4.79-.29-1.36-.97-2.64-1.48-3.95Z"/>
      <path class="cls-10" d="m280.63,138.93c1.18-1.54,2.37-3.07,3.55-4.61.26-.39.51-.78.77-1.18,0,0,0,0,0,0,2.69-3.08,3.07-6.92,1.04-10.29-.5-.82-.96-1.67-1.44-2.5l.02-.02c2.73.63,4.98,4.98,4.05,7.79-.48,1.46-.67,3.08-1.41,4.38-1.56,2.73-3.14,5.58-6.58,6.44Z"/>
      <path class="cls-13" d="m226.74,232.5c.51,1.31,1.19,2.59,1.48,3.95.33,1.56.25,3.2.44,4.79.36,2.98-1.37,5.28-2.42,7.81-.44,1.06-.72,2.18-1.07,3.28-.13.13-.26.26-.39.39.18-1.52,0-3.23.62-4.54,1.81-3.77,2.07-7.6,1.38-11.63-.22-1.31-.04-2.7-.05-4.05Z"/>
      <path class="cls-24" d="m324.17,95.88c-.72-1.01-1.47-2-2.16-3.03-.61-.91-1.15-1.86-1.73-2.79,3.56,2.62,7.24,5.12,8.18,9.93.24,1.24.76,2.43,1.15,3.65-1.15-1.44-2.37-2.83-3.44-4.32-.77-1.07-1.34-2.29-2-3.44Z"/>
      <path class="cls-10" d="m216.64,221.14c-.06.01-.13.04-.19.03-4.43-.57-6.15,2.23-7.39,5.79-.71,2.03-1.7,3.97-2.56,5.95-.56-3.77,1.44-6.6,3.14-9.72,1.49-2.72,3.62-2.6,5.95-2.66.35,0,.7.39,1.05.61Z"/>
      <path class="cls-24" d="m248.47,223.21c-.52.78-1.03,1.56-1.55,2.34.9-4.51,3.07-8.48,5.41-12.36.23-.38.77-.58,1.16-.86-1.68,3.63-3.35,7.25-5.03,10.88Z"/>
      <path class="cls-13" d="m222.05,224c-.26-.62-.52-1.25-.77-1.87,1.95-1.28,2.39.88,3.49,1.53-.51.37-1.02.73-1.54,1.1-.26-.12-.52-.24-.79-.36-.13-.13-.26-.27-.38-.4,0,0,0,0,0,0Z"/>
      <path class="cls-14" d="m215.47,172.74c-.15.39-.29.78-.44,1.17-.36-1.6-.95-3.22.34-4.69.03,1.17.06,2.35.09,3.52Z"/>
      <path class="cls-14" d="m223.23,224.76c.51-.37,1.02-.73,1.54-1.1.13.11.27.22.4.34-.27.52-.53,1.03-.8,1.55-.38-.26-.76-.53-1.14-.79Z"/>
      <path class="cls-10" d="m284.17,120.37c-.51-.41-1.03-.81-1.54-1.22,1.36-.78,1.61.27,1.95,1.17,0,0-.02.02-.02.02-.13,0-.26.01-.39.02Z"/>
      <path class="cls-21" d="m148.3,265.53c-.52-.52-1.04-1.04-1.56-1.55.52.52,1.04,1.04,1.56,1.55Z"/>
      <path class="cls-13" d="m224.36,254.27c.13-.26.26-.52.39-.78,0,.26.01.51.02.77-.14,0-.27,0-.41,0Z"/>
      <path class="cls-10" d="m224.36,254.27c.14,0,.27,0,.41,0-.14.25-.28.5-.42.76,0-.25,0-.5.01-.75Z"/>
      <path class="cls-13" d="m334.98,223.59c-.39,1.26-.79,2.52-1.18,3.79-.45.6-.98,1.14-1.34,1.79-1.77,3.23-3.54,6.47-5.23,9.76-.74,1.44-1.28,2.98-1.91,4.47,0,0,0,0,0,0-.25.13-.5.27-.76.4-.32-2.02.01-3.87,1.39-5.49,1.97-2.31,1.65-4.48-.89-6.08-.49-.31-1.03-.53-1.56-.77-2.51-1.14-5.1-2.13-7.49-3.47-1.28-.72-2.28-.85-3.47-.11.13-3.96-2.87-6.68-4.05-10.13-.06-.18-.43-.25-.65-.38q1.16-2.72-1.26-4.46c-.68-.48-1.36-.96-2.09-1.36-1.99-1.1-3.59-.12-3.82,2.15-.1.95.21,2.34-1.41,2.51,1-2.07.14-3.51-1.5-4.81-3.13-2.47-4.37-5.61-3.13-9.54.12-.27.24-.53.36-.8.04-.23.09-.45.13-.68.22-.29.45-.58.67-.86.03-.11.06-.21.08-.32.64-.58,1.46-1.05,1.9-1.76,2.15-3.41,3.86-4.1,7.71-2.93,1.14,3.14,1.46,5.99-1.98,8.09-1.35.82-.67,2.12.19,2.98.67.67,1.61,1.07,2.39,1.63,1.26.89,2.49,1.82,4.03,2.95.17-.26.63-.8.91-1.42,1.8-4,6.38-4.53,8.99-1.01.74,1,.93,1.89-.07,2.92-.66.68-1.19,1.54-1.6,2.41-1.56,3.3-1.06,4.65,2.24,6.35,2.31,1.94,2.89,4.14.95,6.82,1.73,1.02,3.17.28,4.63-.59,1.7-1.01,3.39-2.04,5.17-2.89,1.4-.67,2.6-1.38,2.91-3.04,1.37-.17,1.69.59,1.44,1.72-.16.73-.48,1.44-.72,2.15Z"/>
      <path class="cls-13" d="m271.38,223.66c2.69-.24,5.38-.55,8.08-.7,2.02-.11,4.06-.02,6.32-.02-.17-.62-.19-1.23-.47-1.68-1.88-3.06-1.34-6.18-.3-9.32.46-1.37,1.31-2.18,2.89-1.95.57.08,1.17.09,1.74,0,2.49-.36,3.71.87,3.25,3.71-.54,3.35.33,5.49,3.22,7.03.6.32,1.04.96,1.56,1.44,1.2,3.44,1.77,7.31,5.92,8.76-.35.14-.69.4-1.03.4-4.25-.1-8.21-1.21-11.72-3.63-2.43-1.68-5-3.1-7.93-3.27-2.81-.16-5.65.22-8.48.31-1.41.05-2.83,0-4.24,0,.4-.36.79-.73,1.19-1.09Z"/>
      <path class="cls-10" d="m303.61,230.94c-4.15-1.45-4.72-5.32-5.92-8.76,1.46.04,2.28-.55,2.1-2.13,2.51,2.68,2.93,2.68,5.74-.16.81-.81,1.55-1.68,2.32-2.53.22.12.59.2.65.38,1.17,3.45,4.18,6.16,4.05,10.13.07.44.13.88.21,1.32.47,2.39.09,2.69-2.29,2.35-2.27-.33-4.58-.41-6.87-.61Z"/>
      <path class="cls-5" d="m307.85,217.37c-.77.84-1.52,1.72-2.32,2.53-2.81,2.83-3.24,2.84-5.74.16-.23-.38-.38-.85-.7-1.13-1.21-1.02-1.15-1.9.18-2.72,1.63-.17,1.32-1.56,1.41-2.51.23-2.27,1.83-3.25,3.82-2.15.73.4,1.41.88,2.09,1.36q2.43,1.74,1.26,4.46Z"/>
      <path class="cls-17" d="m334.26,219.71c-.3,1.65-1.5,2.37-2.91,3.04-1.78.85-3.47,1.88-5.17,2.89-1.46.86-2.9,1.6-4.63.59,1.93-2.68,1.35-4.88-.95-6.82,4.14-.02,8.28-.06,12.41-.06.41,0,.83.24,1.24.36Z"/>
      <path class="cls-21" d="m271.38,223.66c-.4.36-.79.73-1.19,1.09-2.78.95-5.43,2.42-8.53,2-1.03.25-2.07.5-3.1.75-.06-.51-.12-1.01-.18-1.52-.24-2.13,1.1-4.08,3.14-4.26,1.99-.18,4.04-.82,5.97.3,1.29.54,2.59,1.09,3.88,1.63Z"/>
      <path class="cls-24" d="m267.5,222.03c-1.94-1.13-3.98-.48-5.97-.3-2.04.18-3.38,2.12-3.14,4.26.06.51.12,1.01.18,1.52-.52.12-1.04.24-1.56.37.26-2.2.52-4.4.78-6.59.86-1.54,1.74-3.04,3.91-2.72,2.43.35,4.5,1.26,5.81,3.48Z"/>
      <path class="cls-17" d="m305.5,194.52c-3.85-1.17-5.56-.48-7.71,2.93-.45.71-1.26,1.18-1.9,1.76,1.63-4.66,3.66-6.19,8-5.82.57.05,1.08.74,1.62,1.14Z"/>
      <path class="cls-17" d="m295.81,199.52c-.22.29-.45.57-.67.86.22-.29.45-.58.67-.86Z"/>
      <path class="cls-17" d="m295.01,201.06c-.12.27-.24.53-.36.8.12-.27.24-.53.36-.8Z"/>
      <path class="cls-23" d="m351.99,201.89c-.08.13-.17.26-.25.39.08-.13.17-.26.25-.39Z"/>
      <path class="cls-15" d="m209.25,93.95c.59,1.75-.09,3.8-1.54,4.66.51-1.55,1.03-3.1,1.54-4.66Z"/>
      <path class="cls-15" d="m210.41,88.9c-.39,1.42-.77,2.84-1.16,4.27-.65-1.7.07-3.03,1.16-4.27Z"/>
      <path class="cls-15" d="m211.15,88.12c-.25.26-.49.51-.74.77.25-.26.49-.51.74-.77Z"/>
      <path class="cls-8" d="m338.59,207.22c-.25-.74-.71-1.5-.68-2.23.03-.52.73-1,1.14-1.5.33.48.95.97.94,1.45-.02.76-.45,1.52-.7,2.27-.23,0-.47,0-.7,0Z"/>
      <path class="cls-23" d="m295.04,62.2c2.83.77,5.66,1.54,8.49,2.31,1.99,1.01,3.97,2.01,5.96,3.02.01.11,0,.23-.04.33-.23.27-.54.8-.68.76-2.52-.72-5.47.48-7.65-2.08-1.1-1.29-2.99-1.89-4.48-2.87-.6-.39-1.07-.97-1.6-1.47Z"/>
      <path class="cls-8" d="m351.68,145.52c-1.66-2.25-1-4.78,1.2-5.82.63-.3.95-1.26,1.41-1.92,1.22.92.39,3.78-2.62,7.75Z"/>
      <path class="cls-10" d="m314.23,68.93c-.18.05-.37.11-.55.16-.78-.25-1.56-.51-2.34-.76.29-.04.58-.08.87-.12.67.24,1.35.48,2.02.72Z"/>
      <path class="cls-13" d="m312.21,68.21c-.29.04-.58.08-.87.12-.14-.07-.29-.14-.43-.21.43.03.87.06,1.3.09Z"/>
      <path class="cls-13" d="m310.23,67.91c.12.06.24.13.36.19-.12-.06-.24-.13-.36-.19Z"/>
      <path class="cls-14" d="m261.67,226.75c3.1.42,5.75-1.05,8.53-2,1.41,0,2.83.05,4.24,0,2.83-.1,5.67-.47,8.48-.31,2.94.17,5.5,1.59,7.93,3.27,3.51,2.41,7.47,3.53,11.72,3.63.34,0,.69-.26,1.03-.4,2.29.19,4.6.28,6.87.61,2.38.34,2.76.04,2.29-2.35-.09-.44-.14-.88-.21-1.32,1.18-.73,2.19-.61,3.47.11,2.39,1.34,4.98,2.33,7.49,3.47.53.24,1.07.46,1.56.77,2.54,1.6,2.86,3.77.89,6.08-1.37,1.61-1.7,3.46-1.39,5.49,0,.26.02.52.03.79-.28.38-.56.76-.84,1.13-.23.28-.47.56-.7.84-.02.11-.05.22-.08.33-.24.01-.49.02-.73.03-.52.65-1.05,1.29-1.57,1.94-.12.13-.25.26-.37.39-.34.25-.71.48-1.03.75-4.83,4.22-8.13,9.92-13.34,13.77-2.27,1.68-3.48,4.01-3.91,6.77-1.29,1.32-2.45,2.81-3.9,3.93-1.91,1.48-4.01,2.73-6.09,3.96-3.91,2.32-7.86,4.58-11.84,6.79-.88.49-1.93.65-2.91.96-2.16-.9-4.26-1.09-6.52-.06-1.17.54-2.63.75-3.93.66-5.73-.39-9.61-4.04-12.91-8.18-2.02-2.53-4.14-4.54-7.3-5.32,0-.51,0-1.03,0-1.54.61-1.82,1.22-3.64,1.88-5.64.61-.45,1.66-1.06,2.45-1.91.3-.32.25-1.42-.07-1.77-.94-1.01-2.09-1.83-3.16-2.72.38-1.93.82-3.86,1.12-5.81.34-2.19.55-4.41.82-6.61.24-.18.57-.32.7-.56,2.35-4.32,4.64-8.67,7.03-12.96.57-1.02,1.03-1.83.24-2.98-.17-.25.42-1.27.89-1.68.97-.87,2.09-1.57,3.14-2.34Z"/>
      <path class="cls-13" d="m246.63,273.28c3.16.78,5.29,2.79,7.3,5.32,3.3,4.14,7.18,7.79,12.91,8.18,1.3.09,2.76-.12,3.93-.66,2.25-1.04,4.35-.85,6.52.06-2.1,1.03-4.14,2.17-6.3,3.05-3.07,1.24-6.23,2.28-9.35,3.4-3.11.42-6.23.84-9.34,1.24-1.51.19-2.24-.65-2.6-2.01-.64-2.42-1.35-4.83-1.96-7.26-.33-1.3-.52-2.63-.77-3.94-.11-2.46-.23-4.92-.34-7.37Z"/>
      <path class="cls-13" d="m302.03,270.54c.43-2.76,1.64-5.09,3.91-6.77,5.21-3.85,8.51-9.56,13.34-13.77.32-.28.69-.5,1.03-.76-.66,1.29-1.32,2.57-1.98,3.86-1.94,2.47-3.88,4.93-5.81,7.39-.9.9-1.81,1.81-2.71,2.71-1.57,3.53-4.53,5.58-7.78,7.34Z"/>
      <path class="cls-28" d="m325.32,243.4c.63-1.49,1.17-3.04,1.91-4.47,1.69-3.28,3.45-6.52,5.23-9.76.35-.65.89-1.2,1.34-1.79-.55,1.42-1.08,2.83-1.64,4.25-.09.23-.39.42-.42.64-.52,4.35-4.11,7.05-5.77,10.79-.08.18-.43.23-.65.35Z"/>
      <path class="cls-28" d="m338.09,240.66c-1.79,2.99-3.58,5.97-5.37,8.96.27-1.18.39-2.42.85-3.52.94-2.25,2.15-4.34,4.51-5.43Z"/>
      <path class="cls-13" d="m323.34,263.14c-1.15,1.92-1.4,4.49-4.06,5.31-.75.23-1.37.9-2.05,1.37,0-.13-.04-.31.03-.38,2.02-2.11,4.05-4.2,6.08-6.3Z"/>
      <path class="cls-10" d="m318.33,253.09c.66-1.29,1.32-2.57,1.98-3.86.12-.13.25-.26.37-.39.51-.27,1.02-.54,1.53-.8-1.29,1.68-2.58,3.36-3.87,5.05Z"/>
      <path class="cls-17" d="m309.81,263.2c.9-.91,1.81-1.81,2.71-2.71-.9.91-1.81,1.81-2.71,2.71Z"/>
      <path class="cls-13" d="m322.21,248.05c-.51.27-1.02.54-1.53.8.52-.65,1.05-1.29,1.57-1.94,0,.27.02.54.03.81-.02.11-.05.22-.08.33Z"/>
      <path class="cls-28" d="m324.59,244.58c0-.26-.02-.52-.03-.79.25-.13.5-.27.76-.4-.24.4-.49.79-.73,1.19Z"/>
      <path class="cls-13" d="m324.5,261.58c-.22.29-.44.58-.66.87.22-.29.44-.58.66-.87Z"/>
      <path class="cls-10" d="m322.28,247.72c-.01-.27-.02-.54-.03-.81.24-.01.49-.02.73-.03-.23.28-.47.56-.7.84Z"/>
      <path class="cls-10" d="m323.06,246.55c.23-.28.47-.56.7-.84-.23.28-.47.56-.7.84Z"/>
      <path class="cls-24" d="m164.99,271.74c3.72,1.09,7.09,2.89,10.3,5.03.42.28.96.62,1.41.58,2.72-.26,4.08,1.53,5.66,3.3,1.06,1.19,2.64,1.98,4.09,2.76,3.33,1.81,6.65,3.65,10.11,5.18,2.01.89,4.27,1.21,6.42,1.78,2.21.59,4.42,1.2,6.63,1.77,1.85.47,3.7,1,5.58,1.3,1.75.28,3.54.29,5.32.42-1.45.13-2.9.42-4.34.36-4.04-.18-8.2,0-12.08-.91-4.67-1.1-9.19-2.9-13.06-6.09-1.94-1.6-4.32-2.84-6.7-3.71-4.78-1.74-8.97-4.42-13.07-7.32-1.23-.87-2.65-1.48-3.9-2.33-.87-.59-1.59-1.41-2.37-2.12Z"/>
      <path class="cls-28" d="m151.79,276.78c.59-.15,1.34-.61,1.76-.4,2.54,1.24,5,2.63,7.49,3.97.06.03.11.1.16.1,3.81-.05,6.52,2.87,10.01,3.71.26,0,.51,0,.77,0,.95,1.77,1.55,3.98,3.98,4.21,2.36.22,3.59,1.66,4.59,3.52l-.1.11c-.12.04-.25.09-.37.13-.62-.34-1.24-.67-1.86-1.01-2.08-1.16-4.16-2.31-6.24-3.47-3.45-1.6-6.94-3.11-10.32-4.85-1.59-.82-2.89-2.16-4.43-3.1-1.75-1.07-3.62-1.96-5.44-2.93Z"/>
      <path class="cls-23" d="m180.54,291.91c-1-1.86-2.24-3.3-4.59-3.52-2.43-.23-3.03-2.44-3.98-4.21.56.24,1.41.34,1.63.76,1.37,2.6,4.03,2.7,6.34,3.51.76.27,1.48.69,2.21,1.04.88.43,1.76.86,2.64,1.29.28.14.72.16.84.38.79,1.4,1.51,2.84,2.26,4.26-1.17-.4-2.33-.8-3.5-1.21-.13-.11-.25-.22-.38-.34-.65-.29-1.29-.59-1.94-.88-.51-.36-1.03-.72-1.54-1.09Z"/>
      <path class="cls-14" d="m205.72,301.72c2.48.34,4.95.69,7.43,1.03.64.16,1.27.32,1.91.47-2.41.1-4.83.34-7.23.21-.73-.04-1.41-1.11-2.11-1.71Z"/>
      <path class="cls-23" d="m190.59,296.64c-.52-.24-1.04-.47-1.56-.7.47-.36.94-.72,1.4-1.07.13.13.26.26.39.38-.08.46-.15.93-.23,1.39Z"/>
      <path class="cls-14" d="m213.97,186.34c.57,2.26.38,4.39-1.14,6.27.38-2.09.76-4.18,1.14-6.27Z"/>
      <path class="cls-14" d="m214.67,141.31c.03,1.29.06,2.58.09,3.87-.03-1.29-.06-2.58-.09-3.87Z"/>
      <path class="cls-14" d="m212.62,194.81c-.46,1.33-.92,2.65-1.39,3.98.46-1.33.92-2.65,1.39-3.98Z"/>
      <path class="cls-14" d="m214.8,145.89c.2,1.07.41,2.14.61,3.21-.2-1.07-.41-2.14-.61-3.21Z"/>
      <path class="cls-14" d="m171.97,287.67c2.08,1.16,4.16,2.31,6.24,3.47-3.54-.06-5.4-1.09-6.24-3.47Z"/>
      <path class="cls-28" d="m180.54,291.91c.51.36,1.03.72,1.54,1.09-.52-.1-1.04-.19-1.56-.29-.03-.23-.06-.46-.08-.69,0,0,.1-.11.1-.11Z"/>
      <path class="cls-14" d="m180.44,292.01c.03.23.06.46.08.69-.15-.19-.3-.37-.46-.55.12-.04.25-.09.37-.13Z"/>
      <path class="cls-28" d="m184.02,293.87c.13.11.25.22.38.34-.13-.11-.25-.22-.38-.34Z"/>
      <path class="cls-18" d="m285.73,69.09c-.26-.25-.52-.5-.79-.75.26.25.52.5.79.75Z"/>
      <path class="cls-13" d="m159.92,228.7c.3.2.59.41.89.61-.3-.2-.59-.41-.89-.61Z"/>
      <path class="cls-13" d="m309.49,67.52c-1.99-1.01-3.97-2.02-5.96-3.02,1.67.43,3.37.76,4.98,1.35.47.17.66,1.09.97,1.67Z"/>
      <path class="cls-10" d="m321.82,73.78c.67.63,1.34,1.25,2,1.88-1.33.08-1.95-.6-2-1.88Z"/>
      <path class="cls-10" d="m319.51,72.2c.25,0,.51.01.76.02.16.24.31.47.47.71-.41-.24-.82-.49-1.23-.73Z"/>
      <path class="cls-24" d="m243.41,233.3c-1.89,3.44-1.25,7.23-1.6,10.9-.3,3.11-.99,6.2-1.76,9.23-.23.92-1.33,1.61-2.04,2.41,1.29-2.17,1.19-4.44.83-6.87-.2-1.32.35-2.77.66-4.14.71-3.12,1.41-6.25,2.28-9.34.23-.82,1.07-1.47,1.63-2.2Z"/>
      <path class="cls-17" d="m220.08,266.67c.39-.65.78-1.29,1.17-1.94.6.7,1.2,1.41,1.8,2.11-.16.21-.31.42-.47.64-.83-.27-1.66-.54-2.5-.81Z"/>
      <path class="cls-13" d="m261.67,226.75c-1.06.77-2.17,1.47-3.14,2.34-.46.42-1.06,1.43-.89,1.68.79,1.15.33,1.96-.24,2.98-2.39,4.3-4.68,8.65-7.03,12.96-.13.24-.46.37-.7.56.58-2.47.99-4.99,1.77-7.4,1.06-3.27,2.35-6.48,3.68-9.65.37-.89,1.25-1.58,1.89-2.36.52-.12,1.04-.24,1.56-.37,1.03-.25,2.07-.5,3.1-.75Z"/>
      <path class="cls-13" d="m247.73,259.7c1.07.89,2.22,1.71,3.16,2.72.32.35.37,1.45.07,1.77-.79.85-1.84,1.46-2.45,1.91-.67,2-1.28,3.82-1.88,5.64.37-4.01.74-8.03,1.1-12.04Z"/>
      <path class="cls-13" d="m284.17,120.37c.13,0,.26-.01.39-.02.48.84.94,1.68,1.44,2.5,2.03,3.38,1.64,7.22-1.04,10.29.12-.62.07-1.36.39-1.85,1.61-2.47.98-4.84-.07-7.28-.5-1.16-.74-2.43-1.1-3.65Z"/>
      <path class="cls-13" d="m284.95,133.15c-.26.39-.51.78-.77,1.18.26-.39.51-.78.77-1.18Z"/>
      <path class="cls-26" d="m213.06,224.68c0-.11.03-.22.05-.32.39-.26.78-.52,1.16-.78,0,0,0,0,0,0,1.05-.13,2.09-.26,3.14-.4,0,0,0,0,0,0,.96.87,1.79,1.99,2.9,2.58,2.57,1.35,2.58,3.58,2.52,5.97-.05,2.02-1.8,2.13-3,2.85-.54.33-1.22.44-1.77.76-2.38,1.36-4.26.09-5.92-1.32-1.73-1.47-1.05-3.34-.36-5.15.52-1.36.84-2.79,1.26-4.19Z"/>
      <path class="cls-1" d="m213.06,224.68c-.41,1.4-.74,2.83-1.26,4.19-.69,1.81-1.37,3.68.36,5.15,1.66,1.41,3.54,2.68,5.92,1.32.55-.32,1.23-.43,1.77-.76,1.2-.72,2.95-.84,3-2.85.06-2.39.05-4.62-2.52-5.97-1.11-.58-1.94-1.7-2.9-2.58.31.08.73.32.91.2,1.46-1.01,2.54.04,3.71.61,0,0,0,0,0,0,.13.13.26.27.38.4.26.12.52.24.79.36.38.26.76.53,1.14.79.03.63.07,1.26.1,1.89.11.79.21,1.58.32,2.37.14.91.28,1.82.42,2.73,0,.25,0,.51,0,.76-.68,1.27-1.49,2.19-3.07,2.6-1.3.34-2.37,1.46-3.92.95-.2-.07-.65.18-.8.4-1.04,1.61-2.03.89-2.94-.08-1.32-1.4-2.89-2.11-4.82-1.94-1.11-3.2-.33-6.35.58-9.39.18-.61,1.84-.78,2.82-1.16Z"/>
      <path class="cls-4" d="m209.67,235.23c1.93-.16,3.5.54,4.82,1.94.92.97,1.9,1.69,2.94.08.15-.22.59-.47.8-.4,1.55.52,2.62-.6,3.92-.95,1.57-.42,2.38-1.34,3.07-2.6.97,1.73-.57,2.28-1.51,2.99-.96.72-2,1.48-3.13,1.76-1.87.46-3.88.94-5.74.71-2.13-.26-4.03-1.47-5.16-3.52Z"/>
      <path class="cls-13" d="m225.17,227.49c1.89.75,1.52,2.39,1.52,3.88-.51-1.29-1.01-2.59-1.52-3.88Z"/>
      <path class="cls-1" d="m217.42,223.19c-1.05.13-2.09.26-3.14.4,1.52-1.81,1.86-1.85,3.14-.4Z"/>
      <path class="cls-4" d="m225.21,232.54c-.14-.91-.28-1.82-.42-2.73.14.91.28,1.82.42,2.73Z"/>
      <path class="cls-1" d="m214.28,223.58c-.39.26-.78.52-1.16.78.39-.26.78-.52,1.16-.78Z"/>
      <path class="cls-14" d="m222.44,224.4c-.13-.13-.26-.27-.38-.4.13.13.26.27.38.4Z"/>
    </g>
  </g>
</svg>