<?xml version="1.0" encoding="UTF-8"?>
<svg id="Layer_2" data-name="Layer 2" xmlns="http://www.w3.org/2000/svg" viewBox="0 0 389.02 378.46">
  <defs>
    <style>
      .cls-1 {
        fill: #fde5d4;
      }

      .cls-2 {
        fill: #eda279;
      }

      .cls-3 {
        fill: #fdf2df;
      }

      .cls-4 {
        fill: #fbe6d8;
      }

      .cls-5 {
        fill: #e17d4f;
      }

      .cls-6 {
        fill: #756c65;
      }

      .cls-7 {
        fill: #c6c5c0;
      }

      .cls-8 {
        fill: #f8f6f3;
      }

      .cls-9 {
        fill: #f9e3cc;
      }

      .cls-10 {
        fill: #fedec0;
      }

      .cls-11 {
        fill: #ec7542;
      }

      .cls-12 {
        fill: #bf7a53;
      }

      .cls-13 {
        fill: #f8f9f6;
      }

      .cls-14 {
        fill: #f7975a;
      }

      .cls-15 {
        fill: #f27236;
      }

      .cls-16 {
        fill: #ef7238;
      }

      .cls-17 {
        fill: #6f6b64;
      }

      .cls-18 {
        fill: #8e644f;
      }

      .cls-19 {
        fill: #f4e6df;
      }

      .cls-20 {
        fill: #75746e;
      }

      .cls-21 {
        fill: #f07339;
      }

      .cls-22 {
        fill: #777168;
      }

      .cls-23 {
        fill: #fbf9f4;
      }

      .cls-24 {
        fill: #f8985a;
      }

      .cls-25 {
        fill: #ec743c;
      }

      .cls-26 {
        fill: #f4c19f;
      }

      .cls-27 {
        fill: #f7f8fa;
      }

      .cls-28 {
        fill: #df764d;
      }

      .cls-29 {
        fill: #f5eadf;
      }
    </style>
  </defs>
  <g id="Layer_1-2" data-name="Layer 1">
    <g>
      <path class="cls-8" d="m389.02,218.49c-.71,0-1.42,0-2.13,0,.14-1.19.39-2.38.39-3.58.03-7.13.01-14.25,0-21.38.58,0,1.15,0,1.73,0v24.95Z"/>
      <path class="cls-1" d="m387.29,193.54c0,7.13.02,14.25,0,21.38,0,1.19-.26,2.38-.39,3.58-.16,3.42.02,6.9-.56,10.25-.58,3.34-1.97,6.53-2.89,9.82-.55,1.98-.87,4.02-1.3,6.03-.14.63-.25,1.27-.49,1.86-1.55,3.9-3.38,7.71-4.64,11.7-1.28,4.08-3.55,7.42-6.15,10.73-1.77,2.26-2.68,5.18-4.23,7.64-2.28,3.62-4.74,7.14-7.23,10.62-1.35,1.89-3.25,3.44-3.16,6.08.01.27-.32.7-.59.81-3.78,1.56-5.2,5.31-7.63,8.13-.54.62-1.38.97-2.04,1.5-1.09.88-2.42,1.61-3.18,2.73-2.16,3.16-4.37,6.2-7.98,7.87-.19.09-.35.26-.48.43-2.84,3.55-6.21,6.49-10.11,8.83-.24.14-.52.36-.61.6-1.36,3.78-5.04,4.79-7.94,6.75-3.01,2.04-5.97,4.17-8.99,6.2-4.83,3.24-9.57,6.63-14.57,9.59-5.95,3.53-12.19,6.59-18.2,10.04-5.73,3.29-12.2,4.64-18.15,7.33-.32.15-.72.16-1.01.35-4.69,3.01-10.14,3.55-15.36,4.89-4.95,1.27-9.74,3.15-14.7,4.35-4.4,1.06-8.94,1.55-13.42,2.32-2.6.44-5.18.97-7.78,1.36-2.25.34-4.52.71-6.78.75-12.38.21-24.77.44-37.16.41-7.21-.02-14.42-.39-21.62-.88-3.09-.21-6.13-1.15-9.19-1.72-6.92-1.28-13.85-2.47-20.76-3.82-3.35-.66-6.63-1.67-9.98-2.38-4.04-.86-8.12-1.48-12.15-2.36-3.47-.76-7.18-1.17-10.25-2.77-3.09-1.61-6.19-2.69-9.52-3.41-.65-.14-1.18-.76-1.78-1.15-1.24-.8-2.38-1.99-4.03-.7-.22.17-.88-.13-1.3-.3-2.66-1.12-5.33-2.2-7.94-3.42-1.01-.48-1.79-1.43-2.79-1.94-2.41-1.22-4.96-2.16-7.32-3.47-3.17-1.76-6.22-3.74-9.29-5.66-6.02-3.75-11.78-7.83-16.6-13.12-.99-1.09-2.3-1.91-3.49-2.82-1.96-1.51-2.25-3.02-.89-5.04-1.19-.51-2.43-.93-3.54-1.56-.58-.33-1.44-1.25-1.32-1.54,1.09-2.57-1.16-3.84-2.1-5.52-2.43-4.37-3.24-9.18-3.57-13.99-.85-12.55,1.94-24.48,6.39-36.18,2.39-6.28,4.49-12.66,7.67-18.6.56-1.06,1.16-2.14,1.96-3.01,1.38-1.5,1.45-1.43.21-2.56.78-1.7,1.41-3.33,2.24-4.86,2.51-4.65,5.15-9.23,7.62-13.9.96-1.81,1.55-3.81,2.37-5.7.99-2.31,1.96-4.64,3.09-6.88.72-1.43,1.83-2.66,2.59-4.07,3.28-6.17,6.57-12.34,9.72-18.58,2.54-5.04,4.79-10.22,7.39-15.23.69-1.32,3.3-2.68,3.07-3.25-.68-1.72-.28-2.98.36-4.4,2.22-4.87,4.49-9.72,6.65-14.62.94-2.14,1.63-4.39,2.49-6.57.78-1.98,1.65-3.93,2.47-5.9,2.6-6.3,5.18-12.61,7.79-18.91,1.45-3.51,2.95-7,4.39-10.51,1.4-3.42,2.67-6.91,4.17-10.29,2.23-5.02,4.62-9.98,6.95-14.96.33-.71.79-1.37,1.03-2.1,1.98-6.07,5.48-11.44,7.99-17.23,2.18-5.04,5.64-9.17,8.09-13.95,1.42-2.77,3.16-5.38,4.86-7.99.93-1.43,2.03-2.75,3.09-4.1,1.58-2.02,3.09-4.09,4.79-6,2.59-2.9,5.12-5.91,8.02-8.47,3.94-3.48,8.21-6.59,12.35-9.84,1.17-.92,2.33-2.34,3.63-2.52,2.39-.34,4.08-1.64,6.07-2.69,3.04-1.59,6.6-2.13,9.86-3.33,6.3-2.34,12.98-2.55,19.5-3.46,3.91-.55,7.99.08,11.99.15,1.5.02,3.09-1.06,4.44.45,0,.78,0,1.55.02,2.33.04,1.33.62,1.66,1.94,1.27,1.55-.46,2.11-1.23,1.47-2.75,4.87,1.06,9.97.91,14.7,2.7,1.05.4,2.02,1.03,2.86,1.46,1.06.18,2.01.29,2.93.51,2.83.66,5.72,1.18,8.47,2.1,4.29,1.45,8.51,3.13,12.71,4.82,5.16,2.07,10.33,4.12,15.38,6.44,3.6,1.65,7.01,3.72,10.48,5.64,3,1.67,6.01,3.31,8.92,5.12,5.38,3.34,10.7,6.8,16.04,10.21.12.08.24.17.33.28,2.94,3.86,7.53,5.61,11.08,8.66,4.3,3.7,8.38,7.65,12.55,11.49.58.53,1.1,1.15,1.74,1.59,2.74,1.85,5.11,3.99,7.11,6.69,1.59,2.15,3.92,3.74,5.88,5.62.56.54,1.22,1.14,1.43,1.83.37,1.29.99,2.06,2.34,2.35.48.1.95.6,1.28,1.03,1.13,1.44,2.08,3.03,3.31,4.38,5.83,6.39,10.69,13.47,15.35,20.72,1.5,2.34,3.25,4.52,4.79,6.84.74,1.12,1.29,2.37,1.89,3.58.28.57.29,1.47.73,1.75,4.25,2.78,3.79,8.25,6.79,11.77.99,1.16,1.11,3.04,1.75,4.54.58,1.35,1.37,2.61,1.99,3.94,1.2,2.57,2.44,5.12,3.51,7.75,1.32,3.24,2.05,6.82,3.88,9.72,1.45,2.3,1.1,4.67,1.79,6.94,1.42,4.7,2.71,9.44,3.91,14.2,1.32,5.26,2.22,10.6,2.13,16.06,0,.38.26.77.4,1.16Zm-289.93-23.26c.15.29.3.58.45.87-1.5,2.09-1.6,4.6-1.06,6.81,1.09,4.47,3.11,8.57,6.52,11.84,2.56,2.46,4.48,5.31,5.33,8.85.42,1.75,1.39,2.94,3.53,3.15,1.26.13,2.44,1.24,3.63,1.94.46.27.83.81,1.31.94,2.91.79,5.44,2.14,7.34,4.53,1.81,2.28,4.43,2.96,7.07,3.72,1.15.33,2.32,1.02,3.19,1.85,2.41,2.29,4.61,4.81,7,7.13,2.32,2.25,5.15,4.07,7.07,6.61,2.1,2.77,4.4,4.5,7.86,4.59,2.33.05,4.65.02,6.98.02,1.01.57,2.01,1.15,3.02,1.72.02,1.69-1.23,1.55-2.36,1.75-.66.11-1.25.61-1.87.94.41.61.72,1.58,1.27,1.75,1.23.37,2.57.42,3.87.46,1.73.04,3.61-.5,5.15.03,1.66.57,2.95.52,4.37-.25,2,.93,4,1.86,6.01,2.79-.64,2.38-2.68,2.12-4.46,2.42-5.43.92-11.39.02-15.85,4.44-.14.14-.38.19-.58.25-4.16,1.2-5.83,4.77-6.97,8.28-.56,1.71-1.22,2.87-2.51,3.88-2.55,2-2.74,4.2-.65,6.66.37.43.72,1.13.64,1.63-.27,1.64-.84,3.23-1.14,4.87-.73,3.97,2.6,8.84,6.71,9.91.08.14.16.28.25.42.55,1.25,1.11,2.5,1.5,3.38-1.33.97-2.81,1.91-4.07,3.1-.31.29-.03,1.48.3,2.09.5.92,1.38,1.64,1.91,2.55.58.98.75,2.22,1.43,3.1,3.93,5.1,5.44,11.03,5.23,17.24-.15,4.4,3.11,6.66,4.85,9.88.11.21.51.24.74.41,1,.73,2.13,1.35,2.93,2.26,1.67,1.89,5.59,2.41,7.51.83.86,0,1.72,0,2.58,0,.88.69,1.67,1.64,2.66,2,1.14.42,2.53.43,2.5-1.5,1,.14,2.01.29,3.01.43.1.26.12.59.3.78,1.77,1.97,4.34,3.5,3.65,6.81-.04.21.24.5.38.74,1.61,2.94,5.36,4.64,8.71,3.95,3.77-.77,7.22-2.06,9.79-5.2.68-.83,1.98-1.19,3.04-1.64,1.78-.76,3.97.04,5.54-1.79,1.58-1.84,4.65-2.29,6.89-1.11,2.17,1.15,4,.46,5.39-1.01,2.54-2.68,3.71-6.16,3.91-9.75.22-3.98-.07-7.99-.3-11.98-.14-2.39-.38-4.83-.96-7.14-1-4.03-3.49-6.64-7.86-7.06-.28-.03-.55-.15-.82-.25-3.08-1.07-6.15-2.19-9.25-3.22-3.91-1.3-7.84-2.54-11.76-3.82-.27-.09-.55-.22-.75-.42-1.38-1.38-2.85-.84-4.35-.27-2.59.99-5.17,2-7.78,2.93-1.37.49-2.64.22-3.17-1.29-.83-2.35.41-4.14,1.82-5.82,1.09-1.3,2.46-1.25,4.08-1.14,2.44.17,4.93-.16,7.39-.33,1-.07,1.98-.41,2.97-.42,2.53-.02,5.07.21,7.59.05,1.04-.07,2.3-.56,1.36-2.31-1.4-2.62-1.09-3.13,1.83-4.06.54.48,1.09.95,1.63,1.43.19.1.38.19.56.29.81.61,1.62,1.22,2.43,1.83.13,2.84-3.07.77-3.69,2.53.94,1.91,1.99,2.25,3.8.86,1.29-.99,2.23-1.1,3.57-.07,1.68,1.28,4.66.57,5.36-1.07,1.9-.46,3.8-.93,5.69-1.39,2.39-1.74,4.86-3.37,7.12-5.26.92-.77,1.68-2,2.02-3.16,1.77-6.07,2.29-12.03-2.48-17.19-.05-.05-.06-.13-.09-.2.35-.29.67-.62,1.06-.85.51-.3,1.08-.75,1.59-.72,2.33.14,4.64.42,6.96.65,1.86.18,3.6.1,4.09-1.66,1.5-.28,2.61-.52,3.74-.69.77-.12,1.56-.26,2.32-.17,3.58.43,7.24.51,10.53,2.28.3.16.69.22,1.03.2,3.81-.31,12.51-5.54,13.18-10.27,4.42-1.15,8.82-2.36,13.25-3.44,6.83-1.66,13.73-3.02,20.48-4.94,2.78-.79,5.56-2.33,7.77-4.21,2.07-1.75,3.38-4.39,5.02-6.65,1.28-2.62,2.57-5.25,3.85-7.87.18-.11.47-.18.52-.33,1.18-3.68,2.21-7.38,1.96-11.31.14-.44.28-.88.41-1.32.18-.82.48-1.63.51-2.45.12-3.76.15-7.52.22-11.28,1.79-.22,1.74-1.69,1.45-2.74-.69-2.48-1.64-4.9-2.64-7.28-.22-.52-1.07-.77-1.63-1.15,0,0,.01,0,.01,0-.12-.15-.23-.3-.35-.45-.99-1.37-1.84-2.86-2.98-4.08-3.12-3.35-5.86-7.17-10.42-8.84-.15-.09-.31-.17-.46-.26-.14-.05-.28-.1-.41-.15-.33-.82-.45-1.87-1.03-2.43-2.45-2.34-5.57-3.06-8.86-3.18-.42-.16-.85-.33-1.27-.49-.16-.13-.31-.35-.48-.37-4.44-.55-8.88-1.09-13.32-1.62-.79-.03-1.58-.11-2.36-.07-7.24.41-14.49.84-21.73,1.26-2.17-.43-4.33-1.05-6.52-1.23-3.13-.26-6.24-.25-8.53,2.64-.82,1.03-2.17,1.64-3.28,2.45-.36.26-.69.55-1.04.83-3.73.85-7.45,1.7-11.18,2.55-.6-.4-1.19-1.11-1.82-1.15-3.62-.25-7.26-.49-10.89-.4-1.16.03-2.76.74-3.36,1.65-1.85,2.8-3.78,5.71-4.81,8.86-1.29,3.98-3.26,7.83-3.25,12.19,0,2.06-.44,4.12-.36,6.17.1,2.54.29,5.13.92,7.58.36,1.42,1.65,2.6,2.52,3.89,0,.55-.02,1.09-.03,1.64-.56.24-1.12.47-1.68.71-1.37-3.77-2.74-7.54-4.1-11.32-.36-.26-.73-.52-1.09-.78-.13.56-.21,1.14-.41,1.68-.45,1.2-.88,2.41-1.44,3.55-2.02,4.12-2.06,4.17-6.35,2.34-1.54-.66-2.56-.32-3.08,1.15-.36,1.02-.44,2.15-.54,3.24-.13,1.4.06,2.87-.33,4.18-.2.67-1.34,1.45-2.1,1.49-2.27.14-4.56-.06-6.85-.13.58-.36,1.17-.7,1.73-1.1.86-.6,1.99-1.06,2.49-1.9,1.73-2.9,3.26-5.93,4.82-8.93.79-1.51,1.41-3.11,2.28-4.57.31-.53,1.06-.99,1.68-1.1,3.2-.56,3.39-.75,2.65-3.99-.25-1.11-.02-1.72.91-2.51.91-.77,1.46-2.1,1.89-3.28.43-1.18.51-2.49.75-3.74.34-1.8.82-3.58.98-5.39.2-2.24-.14-4.55.27-6.73.3-1.65-.27-2.52-1.46-3.14-.92-.49-2.02-.65-3.03-.95-4.02-2.89-8.04-5.78-12.05-8.68l-9.86-8.24c-.77-.7-1.54-1.4-2.3-2.11-1.69-1.57-3.38-3.13-5.07-4.7-.14-.62-.32-1.24-.4-1.87-.46-3.57-.42-7.38-4.6-9.07-.11-.04-.19-.22-.24-.35-1.18-2.92-3.55-2.66-5.94-2.17-2.58.53-4.8.03-6.66-1.91-1.04-1.09-2.11-2.14-3.19-3.19-2.16-2.11-4.56-3.63-7.79-3.33-.71.06-1.5-.29-2.2-.58-2.53-1.06-4.8-.88-6,.56-.86,0-1.71,0-2.57,0-.22-.25-.38-.63-.65-.73-1.31-.47-2.62-.97-3.97-1.26-1.3-.28-2.78-.74-3.95-.38-4.21,1.32-8.33.29-12.44-.19-2.75-.32-4.03.07-5.4,2.47-.48.83-1.26,2.1-1.92,2.11-2.58.06-4.02,1.47-5.25,3.43-.22.35-.58.75-.94.85-3.27.9-3.77,3.74-4.61,6.38-.31.96-.86,1.86-1.39,2.73-1.5,2.47-3.11,4.88-4.53,7.4-.6,1.07-.93,2.34-1.15,3.57-.44,2.38-2.2,4.47-1.22,7.2.41,1.17-.17,2.66-.15,4,.02,1.84.19,3.67.29,5.51-.05,1-.09,2-.14,3-.39,1.34-.93,2.67-1.1,4.04-.06.45.8,1.03,1.25,1.54Z"/>
      <path class="cls-8" d="m198.83,1.66c.64,1.52.08,2.29-1.47,2.75-1.32.39-1.9.06-1.94-1.27-.03-.77-.01-1.55-.02-2.33,1.14.28,2.28.56,3.43.84Z"/>
      <path class="cls-4" d="m219.19,276.09c-2.93.94-3.23,1.44-1.83,4.06.94,1.75-.33,2.25-1.36,2.31-2.52.16-5.06-.07-7.59-.05-.99,0-1.98.35-2.97.42-2.46.17-4.94.49-7.39.33-1.61-.11-2.99-.16-4.08,1.14-1.41,1.68-2.65,3.47-1.82,5.82.54,1.51,1.8,1.78,3.17,1.29,2.61-.93,5.19-1.94,7.78-2.93,1.5-.57,2.97-1.11,4.35.27.19.19.48.33.75.42,3.92,1.28,7.85,2.51,11.76,3.82,3.1,1.03,6.17,2.14,9.25,3.22.27.09.54.22.82.25,4.36.41,6.85,3.03,7.86,7.06.58,2.32.82,4.75.96,7.14.23,3.99.53,8,.3,11.98-.2,3.58-1.37,7.07-3.91,9.75-1.39,1.47-3.22,2.16-5.39,1.01-2.23-1.18-5.3-.74-6.89,1.11-1.57,1.83-3.76,1.03-5.54,1.79-1.07.45-2.36.82-3.04,1.64-2.57,3.14-6.02,4.42-9.79,5.2-3.35.69-7.1-1.01-8.71-3.95-.14-.25-.42-.53-.38-.74.68-3.31-1.88-4.84-3.65-6.81-.17-.19-.2-.52-.3-.78.57-.04,1.13-.08,1.7-.12.76.84,1.59,1.63,2.27,2.54.85,1.14,1.63.8,2.48.08,1.83.83,3.66,1.67,5.51,2.47.23.1.56,0,.83-.06,3.02-.76,5-2.97,7.04-5.1.41.11.82.21,1.23.32.8.21,1.6.57,2.41.6,2.36.09,4.72.04,7.08.05.57-.24,1.15-.49,1.72-.73.15-.04.3-.08.44-.13.13-.11.27-.22.4-.32,1.71-1.19,3.42-2.38,5.14-3.57.51-1.13.85-2.38,1.56-3.36,2.28-3.16,2.39-6.73,2.28-10.38-.34-3.89-1.81-7.25-4.6-10.02-8.8-6.94-16.97-5.19-24.58,2.02-1.11-1.35-2.04-2.49-2.98-3.63-6.52-6.39-15.31-5.19-20.38-.46-1.82,2.03-3.64,4.07-5.46,6.1-.1.13-.2.25-.3.38-.19,3.04-.56,6.09-.52,9.13.04,2.79.26,5.68,3.24,7.27.47.25.78.8,1.16,1.2-1.74.93-.57,1.98-.05,2.9.41.71,1.07,1.26,1.62,1.89-1.92,1.58-5.84,1.06-7.51-.83-.8-.91-1.94-1.53-2.93-2.26-.23-.17-.63-.2-.74-.41-1.74-3.21-4.99-5.48-4.85-9.88.21-6.22-1.3-12.14-5.23-17.24-.68-.88-.85-2.12-1.43-3.1-.54-.91-1.41-1.62-1.91-2.55-.33-.61-.61-1.8-.3-2.09,1.25-1.19,2.74-2.12,4.07-3.1-.39-.88-.95-2.13-1.5-3.38,1.49.98,3.02,1.9,4.45,2.97,2.78,2.08,6.01,2.92,9.29,2.63,4.33-.39,7.95-2.84,11.51-5.18.47-.31.68-1.03,1-1.57.25-.88.5-1.76.75-2.64.54-1.73,1.08-3.46,1.62-5.2-.11-2.41-.22-4.83-.33-7.24.65-.75,1.29-1.5,1.94-2.25,8.75,7.02,19.27,6.43,25.67-2.51.28.86.57,1.72.85,2.58.41,3.53,2.13,6.51,3.99,9.42Z"/>
      <path class="cls-21" d="m336.15,224.22c-1.64,2.25-2.95,4.89-5.02,6.65-2.21,1.87-4.98,3.42-7.77,4.21-6.75,1.92-13.66,3.28-20.48,4.94-4.43,1.08-8.84,2.29-13.25,3.44-4.29.93-8.58,1.88-12.87,2.79-4.88,1.04-9.77,2.06-14.66,3.09-.44-.53-.78-1.3-1.34-1.53-.9-.36-1.94-.36-2.92-.5-1.98-.29-2.59-1.12-2.24-3.14.58-3.35,1.14-6.71,1.82-10.04.64-3.15,1.28-3.58,4.69-3.6,1.41.15,2.83.5,4.22.4,4.81-.34,9.62-.81,14.42-1.31,1.04-.11,2.23-.35,3.02-.96,3.04-2.34,6.61-2.8,10.21-3.29,3.37-.46,6.89-.48,10.06-1.53,5.85-1.95,11.81-3.93,16.13-8.78.54.43,1.04,1.16,1.62,1.23,3.44.39,6.9.58,10.34.95,1.45.16,2.77.7,3.09,2.44.28,1.52.62,3.04.93,4.55Z"/>
      <path class="cls-4" d="m158.2,284.66c-4.11-1.07-7.44-5.94-6.71-9.91.3-1.64.86-3.23,1.14-4.87.08-.5-.27-1.2-.64-1.63-2.09-2.45-1.9-4.65.65-6.66,1.29-1.01,1.95-2.18,2.51-3.88,1.14-3.51,2.81-7.08,6.97-8.28.2-.06.44-.11.58-.25,4.46-4.42,10.42-3.51,15.85-4.44,1.79-.3,3.82-.04,4.46-2.42,1.55.61,3.1,1.23,4.7,1.86-.94,1.67-2,3.11-2.61,4.72-1.34,3.54-1.03,7.23-.44,10.89-1.17.3-2.34.6-3.51.89-.56-.29-1.11-.58-1.67-.88-2.91-1.74-6.12-1.79-9.37-1.75-9.45.11-14.53,6.37-15.19,15.35-.31,4.15,1.42,7.72,3.27,11.26Z"/>
      <path class="cls-25" d="m336.15,224.22c-.31-1.52-.65-3.03-.93-4.55-.32-1.74-1.64-2.28-3.09-2.44-3.44-.37-6.9-.55-10.34-.95-.58-.07-1.08-.8-1.62-1.23,1.96-2.03,3.75-4.26,5.91-6.05,3.71-3.1,5.89-6.99,7.01-11.6.31-1.85.55-3.7.93-5.53,1.17-5.7,1.57-11.34-.94-16.83.7-.43,1.5-1.31,2.06-1.17.79.19,1.47,1.07,2.07,1.77,1.27,1.46,2.46,2.99,3.68,4.5l-.02.02c.24,1.23-.93,2.96,1.25,3.48h0c.11.28.23.57.34.86.05.96.1,1.91.15,2.87-.16,1.26-.48,2.53-.46,3.78.05,3.05.24,6.09.4,9.14.06,1.04.22,2.08.33,3.11-.14.44-.28.88-.41,1.32-.37.69-.91,1.35-1.09,2.09-.66,2.58-1.23,5.18-1.74,7.79-.1.54.23,1.17.36,1.75-1.28,2.62-2.57,5.25-3.85,7.87Z"/>
      <path class="cls-10" d="m163.57,233.12c-2.33,0-4.65.04-6.98-.02-3.45-.08-5.76-1.82-7.86-4.59-1.92-2.53-4.75-4.36-7.07-6.61-2.39-2.32-4.59-4.83-7-7.13-.87-.83-2.04-1.51-3.19-1.85-2.64-.76-5.25-1.43-7.07-3.72-1.9-2.39-4.43-3.75-7.34-4.53-.48-.13-.85-.66-1.31-.94-1.19-.7-2.37-1.81-3.63-1.94-2.15-.22-3.11-1.4-3.53-3.15-.85-3.54-2.77-6.39-5.33-8.85-3.41-3.28-5.43-7.38-6.52-11.84-.54-2.22-.43-4.72,1.06-6.81.12,0,.24,0,.36.02.57,1.59,1.14,3.18,1.71,4.78.46,1.42.92,2.83,1.37,4.25.28.99.32,2.15.88,2.95,1.28,1.83,2.81,3.49,4.24,5.22.15,2.13,3.86,6.07,6.05,6.42,0,0,0,0,0,0,.43.43.87.87,1.3,1.3,1.64,1.32,3.2,2.77,4.95,3.94,2.54,1.7,5.22,3.2,7.83,4.79h0c2.85,3.38,5.52,7.01,10.28,7.91l.09.17c.44.29.88.58,1.32.86h0c.29.29.57.58.86.87,2.31,1.86,4.75,3.58,6.9,5.6,5.07,4.75,10.66,8.76,16.76,12.07.29.27.59.53.88.8l-.02.03Z"/>
      <path class="cls-9" d="m262.1,249.33c4.89-1.03,9.78-2.05,14.66-3.09,4.29-.92,8.58-1.86,12.87-2.79-.67,4.73-9.37,9.96-13.18,10.27-.34.03-.74-.04-1.03-.2-3.29-1.78-6.95-1.86-10.53-2.28-.76-.09-1.55.05-2.32.17-1.13.17-2.25.41-3.74.69-.49,1.76-2.23,1.85-4.09,1.66-2.32-.23-4.64-.51-6.96-.65-.52-.03-1.09.42-1.59.72-.39.23-.71.56-1.06.85-2.28-2.27-4.64-4.53-7.93-5.1-2.56-.44-5.19-.44-7.79-.64-.12-.82-.33-1.65-.35-2.47-.07-2.42-.06-4.84-.08-7.25,1.31-.19,2.62-.39,3.93-.58,1.11.63,2.5,1.02,3.25,1.94,1.25,1.51,2.09,3.37,3.1,5.08,1.21,3.32,8.01,6.36,11.87,5.92.55-.06,1.06-.52,1.59-.79,3.13-.48,6.27-.97,9.4-1.45Z"/>
      <path class="cls-22" d="m229.4,248.95c2.6.2,5.23.19,7.79.64,3.29.57,5.65,2.83,7.93,5.1.03.07.04.15.09.2,4.76,5.16,4.25,11.12,2.48,17.19-.34,1.16-1.09,2.39-2.02,3.16-2.26,1.89-4.74,3.52-7.12,5.26-1.06-.32-2.1-.76-3.18-.94-2.12-.35-4.25-.56-6.38-.83.29-.43.58-.87.87-1.3,2.15.16,4.31.32,6.46.47.28-.1.56-.19.85-.29,3.7-.83,5.09-3.91,6.91-6.74,2.9-4.49.41-11.05-2.53-13.72-2.34-3.19-5.32-4.95-9.43-4.7-4.26.26-7.5,2.35-10.4,5.21-1.79-1.12-2.72-.84-3.32,1.04-.21.67-.12,1.5-.48,2.05-.43.66-1.19,1.1-1.82,1.63-.58-1.78-1.16.09-1.74,0-.84,0-1.69,0-2.53,0,.57-3.56,2.1-7.05.81-10.76l-.38-1.72c-.01-.43-.03-.86-.04-1.3.62-.88,1.24-1.77,1.86-2.65,2.86,3.14,3.44,7.09,3.8,11.35,2.92-4.36,6.37-7.57,11.53-8.35Z"/>
      <path class="cls-10" d="m97.36,161.71c-.1-1.84-.27-3.67-.29-5.51-.02-1.34.57-2.84.15-4-.97-2.73.78-4.82,1.22-7.2.23-1.22.56-2.49,1.15-3.57,1.41-2.52,3.03-4.93,4.53-7.4.53-.87,1.08-1.77,1.39-2.73.85-2.65,1.34-5.48,4.61-6.38.37-.1.72-.5.94-.85,1.23-1.95,2.67-3.37,5.25-3.43.66-.01,1.44-1.28,1.92-2.11,1.37-2.4,2.65-2.79,5.4-2.47,4.11.48,8.23,1.51,12.44.19,1.17-.37,2.65.1,3.95.38,1.35.29,2.66.79,3.97,1.26.27.1.44.48.65.73-1.87.05-3.74.1-5.61.16-5.11.92-10.42,1.08-15.04,3.87-.76.38-1.53.76-2.29,1.15-.38.19-.75.37-1.13.56-2.02,1.55-4.04,3.1-6.05,4.66-.28.03-.56.06-.85.09-.66.46-1.52.79-1.94,1.41-1.06,1.57-1.91,3.28-2.85,4.93-.71.98-1.42,1.96-2.13,2.94-.44.31-.88.61-1.32.92-1.49.55-2.39,1.53-2.37,3.2-.08.36-.16.73-.24,1.09-1.34.43-1.55,1.39-1.23,2.61-.04.27-.09.55-.13.82-.25.73-.51,1.46-.76,2.19-.04.27-.08.55-.12.82-.18.35-.37.71-.55,1.06-.11.53-.23,1.06-.34,1.59-.5,1.14-1.01,2.28-1.52,3.42-.27,1.87-.55,3.73-.82,5.6Z"/>
      <path class="cls-4" d="m197.56,211.6c2.28.07,4.57.27,6.85.13.76-.05,1.9-.82,2.1-1.49.39-1.31.2-2.78.33-4.18.1-1.09.18-2.22.54-3.24.52-1.46,1.54-1.8,3.08-1.15,4.28,1.82,4.33,1.78,6.35-2.34.56-1.15,1-2.35,1.44-3.55.2-.54.28-1.12.41-1.68.36.26.73.52,1.09.78,1.37,3.77,2.74,7.54,4.1,11.31-1.42.84-2.93,1.54-4.23,2.53-3.96,3.03-7.85,6.16-7.53,11.91-2.71,1.06-5.42.16-8.14.02-.73-1.29-1.45-2.57-2.18-3.86-1.57-1.44-3.15-2.88-4.72-4.31.17-.29.34-.58.5-.88Z"/>
      <path class="cls-22" d="m212.1,220.64c-.32-5.75,3.57-8.88,7.53-11.91,1.3-.99,2.82-1.7,4.23-2.53.56-.24,1.12-.47,1.68-.71.42-.13.84-.26,1.25-.39.99-.11,1.97-.22,2.96-.34.67.44,1.3.97,2.02,1.3,1.5.68,3.05,1.25,4.58,1.87-.59,1.2-1.19,2.41-1.78,3.61-5.87-2.98-10.76-2.22-15.58,2.04-4.68,4.13-5.15,11.63-.83,15.9,5.38,8.1,16.07,6.23,20.63.36.41-.53.89-1.01,1.34-1.52.61.75,1.22,1.51,1.83,2.26-.75,1.27-1.51,2.53-2.26,3.8-.57.47-1.13.93-1.7,1.4-2.21.05-3.95.94-5.11,2.87-1.31.19-2.62.39-3.93.58-4.91.26-8.66-2.14-12.22-5.15-3.82-3.23-5.14-7.32-4.58-12.16.05-.42-.04-.85-.07-1.28Z"/>
      <path class="cls-6" d="m158.2,284.66c-1.85-3.53-3.57-7.11-3.27-11.26.66-8.99,5.73-15.24,15.19-15.35,3.25-.04,6.46.01,9.37,1.75-.14,1.43-.28,2.86-.43,4.3-1.72-.85-3.45-1.71-5.17-2.56-.69-.29-1.4-.86-2.05-.81-3.06.28-6.11.71-8.21,3.37-1.15,1.06-2.32,2.1-3.44,3.18-2.7,2.63-3.8,9.65-.09,12.74.18.61.19,1.35.57,1.79,5.09,6.12,11.13,6.51,18.18,2.93,3.28-1.67,4.15-5.07,5.31-8.21.97-.15,1.94-.3,2.91-.45-.54,1.73-1.08,3.46-1.62,5.2-.88.44-1.76.89-2.96,1.49,1.13.59,1.67.87,2.21,1.15-.33.53-.53,1.26-1,1.57-3.56,2.34-7.18,4.79-11.51,5.18-3.28.29-6.52-.55-9.29-2.63-1.42-1.07-2.96-1.98-4.45-2.97-.08-.14-.16-.28-.25-.42Z"/>
      <path class="cls-28" d="m139.04,118.78c1.87-.05,3.74-.1,5.61-.16.86,0,1.71,0,2.57,0,.7.18,1.4.36,2.1.54,3.02,1.28,6.05,2.57,9.07,3.85,5.93,4.12,12.57,7.14,17.95,12.13,2.31,2.15,5.24,3.63,7.89,5.41,1.69,1.57,3.38,3.14,5.07,4.7.76.71,1.53,1.41,2.3,2.11-1.03.34-2.07.68-3.1,1.01-2.47-2.22-4.97-4.29-7.86-6.07-4.93-3.04-9.67-6.6-13.81-10.64-2.43-2.37-5.06-3.44-8.01-4.38-2.43-.86-4.84-1.79-7.3-2.54-.79-.24-1.72-.04-2.59-.04-.45.03-.89.05-1.34.08-.27,0-.54-.01-.82-.02-2.06-.61-4.11-1.15-6.07.28-.99.03-1.98.06-2.96.09,0-.17,0-.33,0-.5-.14-.26-.28-.52-.43-.79.4-.13.81-.22,1.18-.39,2.28-1.07,2.46-1.99.83-3.91-.17-.2-.21-.51-.31-.76Z"/>
      <path class="cls-20" d="m184.67,259.78c-.59-3.66-.9-7.34.44-10.89.61-1.61,1.66-3.04,2.61-4.72-1.59-.63-3.15-1.24-4.7-1.86-2-.93-4-1.86-6.01-2.79-1.31-2.59-2.63-5.19-3.94-7.78-.15-.14-.3-.28-.45-.42-.03-.59-.07-1.17-.1-1.76.03-.25.06-.51.09-.76.15,0,.3,0,.45,0,1.03,1.25,1.34,3.43,3.75,2.88.29.36.58.72.87,1.09,2.14,4.33,5.56,6.57,10.43,6.9,3.75.25,6.98-.83,10.03-2.83-.12.75.01,1.73-.42,2.19-.9.98-1.11,1.9-.58,3.05-2.36,2.02-4.82,3.94-7.06,6.08-3.03,2.91-2.79,6.59-2.05,10.32-1.01.44-2.01.88-3.02,1.32-.11,0-.23-.02-.34-.04Z"/>
      <path class="cls-6" d="m175.63,307.13c1.82-2.03,3.64-4.07,5.46-6.1,1.52.05,2.43.83,2.75,2.32-3.5,1.7-5.07,4.67-5.88,8.34-.84,3.8.25,7.46,3.2,9.4.14.39.18.88.44,1.15,3.71,3.89,8.13,5.33,13.38,3.79.71.29,1.41.59,2.13.85.88.32,1.78.61,2.67.91-.04.11-.06.23-.08.35-2.15.86-4.3,1.73-6.46,2.59-.57.04-1.13.08-1.7.12-1-.14-2.01-.29-3.01-.43l-4.67-1.53c-1.55-1.26-3.1-2.51-4.65-3.77-.38-.41-.69-.95-1.16-1.2-2.98-1.59-3.21-4.48-3.24-7.27-.04-3.04.33-6.08.52-9.13.1-.13.2-.25.3-.38Z"/>
      <path class="cls-10" d="m149.32,119.16c-.7-.18-1.4-.36-2.1-.54,1.19-1.43,3.46-1.62,6-.56.7.29,1.49.65,2.2.58,3.23-.29,5.63,1.22,7.79,3.33,1.08,1.05,2.15,2.1,3.19,3.19,1.85,1.95,4.08,2.44,6.66,1.91,2.4-.49,4.76-.74,5.94,2.17.05.13.13.3.24.35,4.18,1.69,4.14,5.5,4.6,9.07.08.63.27,1.25.4,1.87-2.65-1.78-5.58-3.26-7.89-5.41-5.38-4.99-12.02-8.01-17.95-12.13-.39-.83-.62-2.25-1.19-2.39-2.58-.68-5.25-1-7.89-1.45Z"/>
      <path class="cls-10" d="m197.56,211.6c-.17.29-.34.58-.5.88-.27-.18-.54-.35-.81-.53.16-.83.33-1.66.49-2.49,2.5-1.53,4.62-3.36,5.11-6.47,0,0,0,0,0,0,.59-1.13,1.18-2.26,1.77-3.38.78-1.11,1.55-2.21,2.32-3.32.24-.18.49-.36.73-.55.24-.47.48-.95.72-1.42.47-.68.94-1.35,1.41-2.03.67-.55,1.64-.97,1.94-1.67,1.05-2.46,1.91-5,2.74-7.55.5-1.54.8-3.13,1.19-4.7.07-.5.13-1,.2-1.49,1.1-2.11,2.36-4.19.87-6.64-.74-1.98-1.48-3.96-2.22-5.93,1.02.31,2.11.47,3.03.95,1.19.62,1.76,1.49,1.46,3.14-.4,2.18-.07,4.49-.27,6.73-.16,1.81-.65,3.6-.98,5.39-.24,1.25-.32,2.56-.75,3.74-.43,1.18-.98,2.51-1.89,3.28-.94.79-1.17,1.4-.91,2.51.74,3.24.55,3.43-2.65,3.99-.62.11-1.37.57-1.68,1.1-.86,1.46-1.49,3.06-2.28,4.57-1.57,3-3.09,6.03-4.82,8.93-.5.83-1.63,1.29-2.49,1.9-.56.39-1.15.73-1.73,1.1Z"/>
      <path class="cls-5" d="m340.9,180.13c-1.22-1.5-2.41-3.04-3.68-4.5-.6-.69-1.28-1.58-2.07-1.77-.56-.14-1.36.75-2.06,1.17-1.03-.53-2.1-.98-3.07-1.59-1.58-.99-3.1-2.09-4.64-3.14-.87-.29-1.73-.58-2.6-.87-.57-.57-1.15-1.15-1.72-1.72-.34-.51-.59-1.12-1.02-1.52-1.52-1.39-3.1-2.71-4.82-4.21-1.25.85-2.78,1.02-4.07-.7q3.81.23,3.91-2.66c.42.16.85.33,1.27.49,1.31.71,2.61,1.42,3.92,2.13.14.11.29.23.43.34.84.33,1.67.67,2.51,1,.24,2.56.53,2.79,2.61,2.17h.21s.21-.03.21-.03c.14.05.28.1.41.15.15.09.31.17.46.26,4.55,1.67,7.3,5.5,10.42,8.84,1.14,1.22,2,2.71,2.98,4.08.12.15.23.3.35.45,0,0-.01,0-.01,0,.03.54.07,1.09.1,1.63Z"/>
      <path class="cls-6" d="m216.08,262.37c.62-.53,1.39-.97,1.82-1.63.36-.55.26-1.38.48-2.05.6-1.88,1.53-2.16,3.32-1.04-3.14,4.63-2.48,9.37-.4,14.15,1.4,1.53,2.81,3.06,4.21,4.58-.06,2.58,1.76,2.36,3.46,2.34,2.13.27,4.27.48,6.38.83,1.08.18,2.12.62,3.18.94-1.9.46-3.8.93-5.69,1.39-3.16-.14-6.22-.7-9.04-2.24-.81-.61-1.62-1.22-2.43-1.83-.19-.1-.38-.19-.56-.29-.54-.48-1.09-.95-1.63-1.43-1.86-2.92-3.58-5.89-3.99-9.42.3-1.43.59-2.86.89-4.3Z"/>
      <path class="cls-10" d="m225.57,203.85c-.87-1.29-2.15-2.47-2.52-3.89-.62-2.45-.82-5.04-.92-7.58-.08-2.05.37-4.11.36-6.17-.01-4.37,1.95-8.22,3.25-12.19,1.03-3.15,2.96-6.05,4.81-8.86.61-.92,2.2-1.63,3.36-1.65,3.63-.08,7.26.15,10.89.4.63.04,1.21.75,1.82,1.15-.72.32-1.43.64-2.15.96-1.73-.02-3.45-.04-5.18-.06l-.9.29c-.27.05-.54.1-.82.15-1.56.22-3.12.38-4.66.67-1.4.26-2.84.59-3.01,2.42-.06.37-.12.75-.18,1.12-.11.03-.21.08-.3.13-2.9,1.98-3.14,5.09-3.45,8.17,0,.14,0,.28,0,.43l-.04-.02c-.25.21-.69.39-.74.63-.49,2.68-1.18,5.35-1.3,8.05-.14,3.24.14,6.51.42,9.75.09,1.06.79,2.08,1.2,3.11,0,0,.07-.05.07-.05,0,1.01,0,2.02-.01,3.03Z"/>
      <path class="cls-25" d="m277.15,157.82c7.24-.42,14.49-.85,21.73-1.26.78-.04,1.57.04,2.36.07.86.98,1.73,1.95,2.59,2.93-1.27-.03-2.53-.05-3.8-.08-.32-.24-.65-.48-.97-.73-.27,0-.53,0-.8-.01-4.92-.43-9.61.75-14.32,1.9-2.82.69-5.67,1.28-8.51,1.91-.57.14-1.15.28-1.72.42-.29,0-.57,0-.86.01-1.64-.85-1.27-2.38-1.28-3.78.98-.04,1.95-.08,2.93-.12.46-.26.91-.53,1.37-.79.43-.16.86-.32,1.29-.48Z"/>
      <path class="cls-5" d="m213.52,164.28c.74,1.98,1.48,3.96,2.22,5.93-.05.18-.09.35-.14.53-.57,0-1.14,0-1.71.01-.22-.16-.44-.32-.67-.48-.05-.29-.1-.59-.15-.88-.11-.13-.23-.27-.34-.4-.32-.42-.65-.84-.97-1.27-.42-.47-.84-.94-1.25-1.41-1.05-1.15-2.07-1.21-3.08.05-1.28.6-2.57,1.19-3.85,1.79-.14-1.3-.29-2.59-.43-3.89,1.43-3.02,1.3-3.83-.91-5.78-.26-.23-.53-.44-.8-.65.01-.74.02-1.49.03-2.23,4.02,2.89,8.04,5.78,12.05,8.68Z"/>
      <path class="cls-4" d="m173.07,231.74c1.31,2.59,2.63,5.19,3.94,7.78-1.42.76-2.71.81-4.37.25-1.54-.53-3.42.01-5.15-.03-1.3-.03-2.65-.08-3.87-.46-.55-.17-.85-1.14-1.27-1.75.62-.33,1.21-.82,1.87-.94,1.13-.2,2.38-.06,2.36-1.75,1.15-.7,2.3-1.41,3.45-2.11.43-.02.86-.03,1.29-.05.58-.31,1.16-.62,1.74-.94Z"/>
      <path class="cls-11" d="m201.47,155.6c-.01.74-.02,1.49-.03,2.23-3.53-2.18-7.11-4.27-10.56-6.58-.99-.66-1.59-1.9-2.37-2.88,1.03-.34,2.07-.68,3.1-1.01,3.29,2.75,6.57,5.49,9.86,8.24Z"/>
      <path class="cls-10" d="m274.5,159.09c-.98.04-1.95.08-2.93.12-4.16,1.1-8.33,2.2-12.49,3.3h-1.28c.34-.28.68-.57,1.04-.83,1.1-.81,2.46-1.42,3.28-2.45,2.29-2.89,5.4-2.9,8.53-2.64,2.19.18,4.35.8,6.52,1.23-.43.16-.86.32-1.29.48-.46.26-.91.53-1.37.79Z"/>
      <path class="cls-28" d="m303.83,159.56c-.86-.98-1.73-1.95-2.59-2.93,4.44.54,8.88,1.07,13.32,1.62.17.02.32.25.48.37q-.09,2.89-3.91,2.66c-.71-.13-1.43-.26-2.14-.39-.29-.02-.58-.03-.87-.05-.28-.13-.56-.25-.85-.38-.57-.03-1.13-.05-1.7-.08l-.91-.78c-.28-.02-.55-.03-.83-.05Z"/>
      <path class="cls-25" d="m257.79,162.51c.43,0,.85,0,1.28,0-.57.88-1.14,1.75-1.71,2.63-3.59,1-7.17,2.01-10.76,3.01-.75-.67-2.49-.34-2.14-2.13.72-.32,1.43-.64,2.15-.96,3.73-.85,7.45-1.7,11.18-2.55Z"/>
      <path class="cls-4" d="m223.81,279.63c2.81,1.54,5.87,2.11,9.04,2.24-.69,1.64-3.68,2.35-5.36,1.07-1.34-1.02-2.28-.92-3.57.07-1.81,1.39-2.85,1.05-3.8-.86.61-1.75,3.82.31,3.69-2.53Z"/>
      <path class="cls-10" d="m340.9,180.13c-.03-.54-.07-1.09-.1-1.63.56.38,1.41.63,1.63,1.15,1,2.38,1.95,4.8,2.64,7.28.29,1.05.34,2.53-1.45,2.74-.33-.77-.66-1.54-.99-2.31-.05-.96-.1-1.91-.15-2.87-.11-.29-.23-.58-.34-.87,0,0,0,0,0,0-.42-1.16-.83-2.32-1.25-3.48l.02-.02Z"/>
      <path class="cls-5" d="m342.62,187.36c.33.77.66,1.54.99,2.31-.06,3.76-.1,7.52-.22,11.28-.03.82-.33,1.63-.51,2.45-.11-1.04-.27-2.07-.33-3.11-.17-3.04-.36-6.09-.4-9.14-.02-1.26.3-2.52.46-3.78Z"/>
      <path class="cls-26" d="m320.22,161.25c-1.31-.71-2.61-1.42-3.92-2.13,3.29.12,6.41.84,8.86,3.18.58.56.7,1.6,1.03,2.43,0,0-.21.03-.21.03,0,0-.21,0-.21,0-.87-.72-1.74-1.44-2.61-2.17-.84-.33-1.67-.67-2.51-1-.14-.11-.29-.23-.43-.34Z"/>
      <path class="cls-9" d="m179.21,325.11c1.55,1.26,3.1,2.51,4.65,3.77-.17.34-.33.68-.5,1.02-.86,0-1.72,0-2.58,0-.55-.62-1.21-1.18-1.62-1.89-.53-.92-1.69-1.97.05-2.9Z"/>
      <path class="cls-2" d="m97.36,161.71c.27-1.87.55-3.73.82-5.6.26-.01.52-.02.78-.04.02.59.05,1.17.07,1.76-.29,4.45-.57,8.9-.86,13.34-.12-.01-.24-.02-.36-.02-.15-.29-.3-.58-.45-.87-.05-1.86-.09-3.72-.14-5.58.05-1,.09-2,.14-3Z"/>
      <path class="cls-5" d="m340,216.35c-.13-.59-.46-1.21-.36-1.75.51-2.61,1.08-5.21,1.74-7.79.19-.74.72-1.39,1.09-2.09.26,3.93-.77,7.63-1.96,11.31-.05.15-.34.22-.52.33Z"/>
      <path class="cls-4" d="m183.36,329.9c.17-.34.33-.68.5-1.02,1.56.51,3.11,1.02,4.67,1.53.03,1.93-1.36,1.92-2.5,1.5-1-.37-1.78-1.31-2.66-2Z"/>
      <path class="cls-10" d="m170.04,232.73c-1.15.7-2.3,1.41-3.45,2.11-1.01-.57-2.01-1.15-3.02-1.72,0,0,.02-.03.02-.03,1.79.99,3.52.99,5.24-.2.3-.21.8-.12,1.21-.17Z"/>
      <path class="cls-10" d="m97.22,164.7c.05,1.86.09,3.72.14,5.58-.44-.52-1.3-1.09-1.24-1.55.18-1.37.71-2.7,1.1-4.04Z"/>
      <path class="cls-2" d="m225.57,203.85c0-1.01,0-2.02.01-3.03.4,1.43.81,2.85,1.22,4.27-.42.13-.84.26-1.25.4,0-.55.02-1.09.03-1.64Z"/>
      <path class="cls-2" d="m327.07,165.13c-.15-.09-.31-.17-.46-.26.15.09.31.17.46.26Z"/>
      <path class="cls-4" d="m220.82,277.52c.19.1.37.19.56.29-.19-.1-.37-.19-.56-.29Z"/>
      <path class="cls-10" d="m340.82,178.51c-.12-.15-.23-.3-.35-.45.12.15.23.3.35.45Z"/>
      <path class="cls-17" d="m201.46,301.5c.93,1.14,1.87,2.28,2.98,3.63,7.61-7.21,15.78-8.96,24.58-2.02-.22,1.58-1.29,1.94-2.66,1.85-3.85-1.54-7.47-3.19-12-2.24-7.22,1.5-14.24,12.72-7.39,19.07,1.51,2.34,3.71,3.87,6.08,5.2-.15,1.32-.3,2.65-.45,3.97-.41-.11-.82-.21-1.23-.32-2.68-2.38-5.37-4.76-8.05-7.14-.98-.04-2.03,0-1.93-1.46.27-.89,1-1.96.73-2.65-1.07-2.77-.67-5.39-.05-8.15.37-1.63.91-3.53-.65-5.01-.72-.83-1.44-1.66-2.16-2.5.74-.75,1.47-1.5,2.21-2.25Z"/>
      <path class="cls-6" d="m185,259.82c1.01-.44,2.01-.88,3.02-1.32.55.78,1.11,1.56,1.66,2.34,2.06,2.16,4.12,4.33,6.18,6.49.09.09.26.14.39.15,5.81.22,11.69.62,15.54-5.11.84,0,1.69,0,2.53,0,0,.57,0,1.15,0,1.72-6.41,8.95-16.92,9.53-25.67,2.51-.64-.93-1.28-1.86-1.92-2.8.18-1.42-.19-2.57-1.62-3.16-.04-.28-.08-.55-.12-.83Z"/>
      <path class="cls-19" d="m203.31,323.52c2.68,2.38,5.37,4.76,8.05,7.14-2.04,2.13-4.01,4.34-7.04,5.1-.27.07-.6.16-.83.06-1.85-.8-3.67-1.64-5.51-2.47.17-.52.34-1.05.51-1.57.4-1.21.8-2.43,1.2-3.64.02-.12.04-.23.08-.35,2.02-.73,2.92-2.38,3.54-4.27Z"/>
      <path class="cls-22" d="m201.46,301.5c-.74.75-1.47,1.5-2.21,2.25-.91-.39-1.83-.76-2.74-1.17-2.77-1.25-5.61-2.11-8.63-1.05-1.39.49-2.7,1.21-4.05,1.82-.31-1.49-1.22-2.27-2.75-2.32,5.06-4.73,13.86-5.93,20.38.46Z"/>
      <path class="cls-20" d="m212.59,330.97c.15-1.32.3-2.65.45-3.97,4.98,2.32,9.2.75,13.11-2.53,1.02-.86,2.14-1.58,3.22-2.37-.16.9-.17,1.86-.52,2.67-.49,1.15-.12,1.72.92,2.1-1.71,1.19-3.42,2.38-5.14,3.57-.13.11-.27.22-.4.32-.15.04-.3.08-.44.13-.57.24-1.15.49-1.72.73-2.36,0-4.72.04-7.08-.05-.81-.03-1.61-.39-2.41-.6Z"/>
      <path class="cls-20" d="m179.06,264.09c.14-1.43.28-2.86.43-4.3.56.29,1.11.58,1.67.88,3.08,1.89,3.76,5.42,5.57,8.18.11,2.41.22,4.83.33,7.24-.97.15-1.94.3-2.91.45.03-.84.08-1.69.09-2.53.05-2.86-.76-5.37-2.94-7.34-.75-.86-1.5-1.72-2.25-2.58Z"/>
      <path class="cls-20" d="m226.36,304.97c1.38.08,2.44-.28,2.66-1.85,2.78,2.77,4.26,6.13,4.6,10.02-.69.6-1.4,1.17-2.05,1.81-.34.33-.55.79-.81,1.2.03-3.37-.36-6.61-2.97-9.13-.47-.68-.95-1.37-1.42-2.05Z"/>
      <path class="cls-17" d="m230.75,316.15c.27-.4.48-.86.81-1.2.65-.64,1.36-1.21,2.05-1.81.11,3.65,0,7.22-2.28,10.38-.71.98-1.05,2.23-1.56,3.36-1.04-.38-1.41-.95-.92-2.1.35-.82.36-1.78.52-2.67.46-1.98.92-3.97,1.38-5.95Z"/>
      <path class="cls-19" d="m186.73,268.85c-1.81-2.76-2.49-6.29-5.57-8.18,1.17-.3,2.34-.6,3.51-.89.11.02.22.03.34.04.04.28.08.55.12.83.54,1.05,1.08,2.11,1.62,3.16.64.93,1.28,1.86,1.92,2.8-.65.75-1.29,1.5-1.94,2.25Z"/>
      <path class="cls-3" d="m199.7,328.13c-.4,1.21-.8,2.43-1.2,3.64-.17.52-.34,1.05-.51,1.57-.85.71-1.63,1.05-2.48-.08-.67-.91-1.51-1.7-2.27-2.54,2.15-.86,4.3-1.73,6.46-2.59Z"/>
      <path class="cls-20" d="m214.34,264.09c0-.57,0-1.15,0-1.72.58.09,1.17-1.78,1.74,0-.3,1.43-.59,2.86-.89,4.3-.28-.86-.57-1.72-.85-2.58Z"/>
      <path class="cls-20" d="m184.69,283.93c-.54-.28-1.08-.56-2.21-1.15,1.2-.61,2.08-1.05,2.96-1.49-.25.88-.5,1.76-.75,2.64Z"/>
      <path class="cls-19" d="m222.08,331.62c.57-.24,1.15-.49,1.72-.73-.57.24-1.15.49-1.72.73Z"/>
      <path class="cls-22" d="m175.63,307.13c-.1.13-.2.25-.3.38.1-.13.2-.25.3-.38Z"/>
      <path class="cls-19" d="m224.25,330.76c.13-.11.27-.22.4-.32-.13.11-.27.22-.4.32Z"/>
      <path class="cls-24" d="m246.61,168.15c3.59-1,7.17-2.01,10.76-3.01,5.27.05,10.58.42,15.49-2.15.29,0,.57,0,.86-.01.57-.14,1.15-.28,1.72-.42,2.84-.63,5.69-1.22,8.51-1.91,4.71-1.15,9.41-2.33,14.32-1.9-.15.99-.29,1.99-.44,2.99-.73.4-1.45.8-2.18,1.2.19.33.39.66.58.99l2.44.75c4.61,4.4,10.13,7.01,16.34,8.22.16.11.32.21.48.32.13.05.26.09.4.1.29.01.58.02.88.04.71.01,1.42.02,2.13.04,1.56.89,2.27.12,2.64-1.34.41-.87.83-1.74,1.24-2.61.87.29,1.73.58,2.6.87,1.38,1.48,2.53,3.36,4.21,4.33,1.97,1.13,3.21,2.63,3.35,4.62.24,3.58-.02,7.2,0,10.8,0,2.45.12,4.9.18,7.35-1.11,4.6-3.29,8.5-7.01,11.6-2.15,1.8-3.95,4.02-5.91,6.05-4.32,4.85-10.28,6.83-16.13,8.78-3.17,1.06-6.7,1.07-10.06,1.53-3.6.49-7.17.95-10.21,3.29-.79.61-1.98.85-3.02.96-4.8.51-9.61.97-14.42,1.31-1.39.1-2.81-.25-4.22-.4,0-4.24-.13-8.49.02-12.73.13-3.76-.39-7.34-1.75-10.86-.68-1.76-1.01-3.68-1.32-5.56-.22-1.29.12-2.7-.24-3.92-.58-1.94-1.53-3.76-2.33-5.64-1.01-2.15-2.01-4.3-3.02-6.45-.31-.68-.64-1.36-.92-2.05-.42-1.02-1-2.02-1.18-3.09-.45-2.7-.82-5.21-3.86-6.54-2.57-1.12-3.2-2.88-2.62-5.1.57-.15,1.14-.3,1.71-.45Z"/>
      <path class="cls-11" d="m256.49,191.82c.8,1.87,1.75,3.7,2.33,5.64.36,1.22.02,2.64.24,3.92.31,1.88.64,3.8,1.32,5.56,1.36,3.52,1.88,7.1,1.75,10.86-.15,4.24-.03,8.49-.02,12.73-3.41.02-4.05.45-4.69,3.6-.68,3.33-1.24,6.69-1.82,10.04-.35,2.02.26,2.85,2.24,3.14.98.14,2.02.14,2.92.5.56.22.9,1,1.34,1.53-3.13.48-6.27.97-9.4,1.45-1.43-.25-2.86-.51-4.58-.81,1.33-1.46,2.88-2.51,3.5-3.96,1.39-3.25,2.36-6.68,3.4-10.07.18-.58-.15-1.32-.25-1.98,0-2.81.04-5.63-.04-8.44-.02-.63-.52-1.24-.79-1.86-.01-.43-.02-.86-.04-1.3.14-.45.44-.91.4-1.33-.23-2.3-.53-4.59-.87-6.88-.05-.31-.5-.55-.77-.83-.31-2-.63-4-.94-6,1.18-2.49,1.81-5.04.91-7.77.14-1.15.29-2.3.43-3.44,1.12-1.45,1.18-3.75,3.43-4.3Z"/>
      <path class="cls-11" d="m333.1,197.4c-.06-2.45-.17-4.9-.18-7.35,0-3.6.25-7.22,0-10.8-.14-1.99-1.38-3.49-3.35-4.62-1.68-.96-2.82-2.85-4.21-4.33,1.54,1.05,3.06,2.15,4.64,3.14.97.61,2.05,1.07,3.07,1.59,2.5,5.49,2.11,11.13.94,16.83-.38,1.83-.62,3.69-.93,5.53Z"/>
      <path class="cls-5" d="m340.88,180.15c.42,1.16.83,2.32,1.25,3.48-2.19-.53-1.01-2.26-1.25-3.48Z"/>
      <path class="cls-5" d="m342.13,183.63c.11.29.23.58.34.87-.11-.29-.23-.58-.34-.87Z"/>
      <path class="cls-11" d="m162.71,232.3c-6.1-3.31-11.69-7.31-16.76-12.07-2.16-2.02-4.59-3.74-6.9-5.6-.29-.29-.57-.58-.86-.87,0,0,0,0,0,0-.44-.29-.88-.58-1.32-.86,0,0-.09-.17-.09-.17-.69-.95-1.34-1.94-2.09-2.85-.64-.76-1.39-1.43-2.1-2.13,1.87.43,3.73.85,5.6,1.28.72.87,1.58,1.67,2.15,2.63,2.53,4.26,6.26,7.28,10.24,10.07,2.11,1.48,4.22,1.94,6.55.64,3.54-.57,5.56-2.42,6.44-5.82.48-1.85,1.05-3.67,1.57-5.51.39-1.36.16-2.56-1.38-2.81-2.07-.33-2.87-1.63-3.19-3.46,2.49-.59,4.93-3.85,5.18-6.92,1.92-.69,3.83-1.16,5.58.43-.46,1.81-.9,3.63-1.38,5.44-.36,1.4-.76,2.79-1.14,4.19-.61,1.19-1.27,2.37-1.81,3.59-.58,1.31-1.06,2.66-1.58,3.99-.07.56-.13,1.12-.2,1.68-.09.44-.19.88-.28,1.32-.44,2.29-.87,4.59-1.31,6.88.57,1.56,1.14,3.12,1.71,4.68l-.06,2.18-2.56.07Z"/>
      <path class="cls-11" d="m101.25,180.2c-.46-1.42-.92-2.83-1.37-4.25,0-4.46.01-8.92.02-13.39.29.41.81.8.84,1.22.2,3.41.37,6.83.45,10.25.11,4.75,2.11,7.47,6.36,9.29,1.21.52,2.2,1.91,2.92,3.11.75,1.26.93,2.86,1.62,4.17.46.89,1.25,1.74,2.1,2.26,2.78,1.68,5.93,2.87,8.42,4.88,2.37,1.91,4.1,4.62,6.12,6.98-.74.02-1.48.05-2.22.07,0,0,0,.01,0,0-1.23-5.2-7.96-8.61-12.86-9.54-.41-.16-.81-.32-1.22-.48,0,0,0,0,0,0-.16-.27-.31-.55-.47-.82-.14-.14-.27-.28-.41-.43-.46-.57-.92-1.14-1.38-1.71.88-2.78-.56-5.43-2.94-6.55-1.65-.78-2.95-2.32-4.39-3.54-.56-.48-1.06-1.03-1.59-1.54Z"/>
      <path class="cls-5" d="m113.64,195.27c4.91.93,11.63,4.34,12.86,9.54-2.62-1.59-5.29-3.09-7.83-4.79-1.75-1.17-3.3-2.61-4.95-3.94-.03-.27-.05-.54-.08-.82Z"/>
      <path class="cls-5" d="m101.25,180.2c.53.52,1.03,1.07,1.59,1.54,1.44,1.22,2.73,2.76,4.39,3.54,2.38,1.12,3.82,3.76,2.94,6.54-1.27-1.15-2.53-2.31-3.8-3.46-1.43-1.73-2.96-3.39-4.24-5.22-.56-.8-.6-1.95-.88-2.95Z"/>
      <path class="cls-5" d="m99.9,162.57c0,4.46-.01,8.92-.02,13.39-.57-1.59-1.14-3.18-1.71-4.78.29-4.45.57-8.9.86-13.34.29.46.77.9.83,1.39.13,1.1.04,2.23.04,3.34Z"/>
      <path class="cls-5" d="m126.5,204.8c.74-.02,1.48-.05,2.22-.07,0,0,0,0,0,0,.71.57,1.43,1.15,2.14,1.72,0,.14,0,.28,0,.43.29.29.57.57.86.86.29,0,.57,0,.86,0,.7.71,1.46,1.37,2.1,2.13.75.9,1.4,1.89,2.09,2.85-4.76-.91-7.43-4.54-10.28-7.92Z"/>
      <path class="cls-26" d="m106.36,188.36c1.27,1.15,2.53,2.31,3.8,3.46.46.57.92,1.14,1.38,1.71.14.14.27.28.41.43.16.27.31.55.47.82-2.19-.36-5.9-4.3-6.05-6.42Z"/>
      <path class="cls-26" d="m162.71,232.3c.85-.02,1.7-.05,2.56-.07.72.04,1.45.16,2.16.11,1.31-.09,2.61-.29,3.92-.44,0,.26-.01.52-.02.78-.43.02-.86.03-1.29.05-.41.05-.91-.04-1.21.17-1.73,1.19-3.46,1.19-5.24.2-.29-.27-.59-.53-.88-.8Z"/>
      <path class="cls-26" d="m113.64,195.27c.03.27.05.54.08.82-.43-.43-.87-.87-1.3-1.3.41.16.81.32,1.22.48Z"/>
      <path class="cls-5" d="m136.87,212.9c.44.29.88.58,1.32.86-.44-.29-.88-.58-1.32-.86Z"/>
      <path class="cls-5" d="m138.19,213.76c.29.29.57.58.86.87-.29-.29-.57-.58-.86-.87Z"/>
      <path class="cls-19" d="m212.1,220.64c.03.43.12.86.07,1.28-.56,4.84.76,8.93,4.58,12.16,3.56,3.01,7.31,5.41,12.22,5.15.02,2.42.02,4.84.08,7.25.02.83.23,1.65.35,2.47-5.16.78-8.61,3.99-11.53,8.35-.36-4.26-.94-8.21-3.8-11.35-1.47-3.21-3.73-5.51-7.31-6.19-1.59-.3-3.22-.44-4.83-.65.16-.67.22-1.38.5-2,2.41-5.32,4.18-10.68,1.55-16.46,2.71.15,5.43,1.05,8.14-.02Z"/>
      <path class="cls-5" d="m254.78,233.96c.1.66.43,1.4.25,1.98-1.04,3.39-2.01,6.83-3.4,10.07-.62,1.45-2.17,2.5-3.5,3.96,1.72.3,3.15.56,4.58.81-.53.27-1.04.73-1.59.79-3.86.44-10.65-2.6-11.86-5.92.83-.6,1.66-1.19,2.49-1.79.6.46,1.2.91,1.81,1.37,0,0,0,0,0,0,.17.24.34.49.5.74.58.39,1.12.84,1.73,1.17,2.47,1.32,4.43.42,5.23-2.36.57-1.88,1.13-3.75,1.7-5.63,1.21-.39,1.33-1.17.76-2.18-.06-.29-.12-.57-.18-.86.05-.28.11-.55.16-.83.06-.56.11-1.12.17-1.68.11-.01.21-.04.3-.09.29.15.58.31.87.46Z"/>
      <path class="cls-12" d="m241.73,243.86c-.83.6-1.66,1.19-2.49,1.79-1.01-1.71-1.85-3.56-3.1-5.08-.76-.92-2.15-1.31-3.25-1.94,1.16-1.93,2.9-2.82,5.11-2.87.85,1.86,1.71,3.72,2.56,5.58.41.71.81,1.43,1.22,2.14,0,.13-.01.25-.05.38Z"/>
      <path class="cls-27" d="m221.29,271.79c-2.09-4.78-2.75-9.52.4-14.15,2.9-2.86,6.14-4.95,10.4-5.21,4.11-.25,7.1,1.51,9.43,4.7-.33,1.31-.59,2.65-1.02,3.93-.78,2.36-1.26,4.93-3.64,6.37-4.78,2.9-9.76,5.13-15.57,4.35Z"/>
      <path class="cls-7" d="m221.29,271.79c5.81.78,10.79-1.45,15.57-4.35,2.37-1.44,2.85-4.01,3.64-6.37.43-1.28.68-2.62,1.02-3.93,2.95,2.68,5.43,9.23,2.53,13.72-1.82,2.83-3.21,5.91-6.91,6.74-.28.1-.56.19-.85.29-2.15-.16-4.31-.32-6.46-.47-1.44-.35-2.88-.69-4.33-1.04-1.4-1.53-2.81-3.06-4.21-4.58Z"/>
      <path class="cls-7" d="m211.8,262.37c-3.86,5.73-9.73,5.33-15.54,5.11-.13,0-.3-.05-.39-.15-2.07-2.16-4.12-4.32-6.18-6.49,1.78-.06,3.57-.21,5.35-.16,7.36.23,15-5.56,15.06-14.3.7.74,1.4,1.48,2.1,2.21.01.43.03.86.04,1.3.13.57.25,1.15.38,1.72,1.29,3.7-.25,7.19-.81,10.76Z"/>
      <path class="cls-20" d="m212.2,248.6c-.7-.74-1.4-1.48-2.1-2.21-.7-.7-1.35-1.48-2.12-2.09-2.83-2.23-6.2-2.23-9.56-2.22,1.17-.99,2.33-1.98,3.5-2.97,1.61.21,3.24.35,4.83.65,3.58.68,5.84,2.98,7.31,6.19-.62.88-1.24,1.77-1.86,2.65Z"/>
      <path class="cls-20" d="m225.51,276.38c1.44.35,2.88.69,4.33,1.04-.29.43-.58.87-.87,1.3-1.7.02-3.52.24-3.46-2.34Z"/>
      <path class="cls-20" d="m212.62,251.61c-.13-.57-.25-1.15-.38-1.72.13.57.25,1.15.38,1.72Z"/>
      <path class="cls-20" d="m236.3,277.89c.28-.1.56-.19.85-.29-.28.1-.56.19-.85.29Z"/>
      <path class="cls-11" d="m139.04,118.78c.1.26.14.57.31.76,1.63,1.92,1.44,2.84-.83,3.91-.37.18-.79.27-1.18.39-1,.27-2.01.54-3.01.81-.43,0-.87.02-1.3.03-.59-.11-1.26-.44-1.77-.29-2.17.64-4.3,1.41-6.42,2.18-.19.07-.27.45-.4.69-2.34.57-4.59,1.31-6.01,3.48.03-1.45-.74-1.48-1.82-1.05-1.25.51-2.52.97-3.78,1.46.29-.69.58-1.37.86-2.06.28-.03.56-.06.85-.09.37.03.79.18,1.11.06,2.33-.84,3.79-2.63,4.95-4.72.38-.19.75-.37,1.13-.56.76-.38,1.53-.76,2.29-1.15,4.63-2.8,9.93-2.96,15.04-3.87Z"/>
      <path class="cls-5" d="m102.82,143.6c.08-.36.16-.73.24-1.09.79-1.07,1.58-2.13,2.37-3.2.44-.31.88-.61,1.32-.92.02.17.03.35.05.52-.17.47-.23,1.03-.53,1.39-2.61,3.1-3.8,6.8-4.65,10.66-.55.57-1.1,1.14-1.64,1.7-.1.02-.2.03-.29.04.11-.53.23-1.06.34-1.59.18-.35.37-.71.55-1.06.04-.27.08-.55.12-.82.25-.73.51-1.46.76-2.19.04-.27.09-.55.13-.82.41-.87.82-1.74,1.23-2.61Z"/>
      <path class="cls-5" d="m113.68,129.1c-.29.69-.58,1.37-.86,2.06,0,.14,0,.29,0,.43-.72,1.15-1.43,2.29-2.15,3.44-.14.15-.29.29-.43.44-.45,0-.9-.02-1.35-.02.94-1.65,1.79-3.36,2.85-4.93.42-.62,1.28-.95,1.94-1.41Z"/>
      <path class="cls-5" d="m120.58,124.36c-1.16,2.09-2.62,3.87-4.95,4.72-.32.12-.74-.04-1.11-.06,2.02-1.55,4.04-3.1,6.05-4.66Z"/>
      <path class="cls-11" d="m108.88,135.45c.45,0,.9.02,1.35.02-1.14,1.15-2.28,2.29-3.43,3.44-.02-.17-.03-.35-.05-.52.71-.98,1.42-1.96,2.13-2.94Z"/>
      <path class="cls-26" d="m105.43,139.31c-.79,1.07-1.58,2.13-2.37,3.2-.02-1.67.88-2.65,2.37-3.2Z"/>
      <path class="cls-26" d="m98.96,156.07c-.26.01-.52.02-.78.04.51-1.14,1.01-2.28,1.52-3.42.1,0,.19-.02.29-.04-.04.26-.07.53-.11.79-.12.17-.24.34-.36.51-.05.42-.11.84-.16,1.26-.11.3-.21.6-.32.9l-.08-.04Z"/>
      <path class="cls-26" d="m102.82,143.6c-.41.87-.82,1.74-1.23,2.61-.32-1.21-.11-2.18,1.23-2.61Z"/>
      <path class="cls-26" d="m101.46,147.03c-.25.73-.51,1.46-.76,2.19.25-.73.51-1.46.76-2.19Z"/>
      <path class="cls-5" d="m124,122.65c-.76.38-1.53.76-2.29,1.15.76-.38,1.53-.76,2.29-1.15Z"/>
      <path class="cls-26" d="m100.58,150.04c-.18.35-.37.71-.55,1.06.18-.35.37-.71.55-1.06Z"/>
      <path class="cls-17" d="m201.92,239.11c-1.17.99-2.33,1.98-3.5,2.97-.43,0-.86,0-1.28.01-.53-1.16-.32-2.07.58-3.05.43-.46.29-1.44.42-2.19.36-.44.72-.88,1.08-1.32,3.22-3.92,4.95-11.63.22-15.34-2.47-5-9.49-7.92-14.71-5.07-2.94,1.6-5.58,4.08-7.74,6.67-2.45,2.94-2.6,6.88-.19,9.9-2.41.55-2.73-1.63-3.75-2.88.54-2.87,1.09-5.74,1.63-8.61.17-.72.34-1.43.51-2.15.15-.28.3-.56.46-.85.69-.58,1.39-1.17,2.08-1.75.3-.43.6-.86.9-1.29.17-.13.34-.26.51-.39.28.03.72-.03.81.12.53.89,1.2,1.6,2.09.66.43-.45.32-1.41.45-2.14,1.3-.41,2.6-.83,3.9-1.24.43.03.85.05,1.28.08,1.14,1.03,4.34,1.2,6.04.33.43.14.85.28,1.28.42.21.85.24,2.34.65,2.45,2.14.58,3.56,3.06,6.15,2.34.73,1.29,1.45,2.57,2.18,3.86,2.63,5.78.87,11.15-1.55,16.46-.28.61-.34,1.33-.5,2Z"/>
      <path class="cls-20" d="m201.78,216.79c-2.59.73-4.01-1.76-6.15-2.34-.41-.11-.44-1.6-.65-2.45.42-.02.84-.04,1.26-.06.27.18.54.35.81.53,1.57,1.44,3.15,2.88,4.72,4.31Z"/>
      <path class="cls-13" d="m218.16,229.47c-4.33-4.26-3.85-11.76.83-15.9,4.82-4.26,9.71-5.02,15.58-2.04.85.47,1.7.95,2.55,1.42.17,3.94-.43,7.62-3.47,10.51-1.08,1.03-1.99,2.26-3.16,3.18-.94.74-2.16,1.14-3.25,1.7-1.42,0-2.85,0-4.27,0-1.6.38-3.2.75-4.8,1.13Z"/>
      <path class="cls-8" d="m241.78,243.49c-.41-.71-.81-1.43-1.22-2.14-.29-2.32-.57-4.65-.86-6.97.75-1.27,1.51-2.53,2.26-3.8,5.64-8.08,1.44-18.24-5.62-22.65-1.53-.62-3.08-1.19-4.58-1.87-.72-.33-1.35-.86-2.02-1.3.04-.16.08-.31.12-.47.08-.53.33-1.1.21-1.58-.37-1.59-.74-3.09,1.48-3.58,3.33,3.75,7.54,4.09,12.09,3.12.84-.03,1.69-.06,2.53-.08.11,1.04.23,2.08.32,3.12.16,1.93.24,3.87.48,5.8.22,1.82.71,3.61.89,5.43.24,2.4.32,4.82.44,7.23.1,1.97.26,3.95.2,5.92-.05,1.54-.55,3.08-.58,4.62-.06,3.09-.66,6.19.31,9.28.22.7-.28,1.86-.83,2.47-.24.27-1.43-.29-2.18-.49-.41-.11-.81-.26-1.21-.4-.17.02-.33.04-.5.06,0,0,0,0,0,0-.59-.58-1.17-1.16-1.76-1.74Z"/>
      <path class="cls-7" d="m227.23,228.34c1.09-.55,2.3-.96,3.25-1.7,1.17-.91,2.07-2.15,3.16-3.18,3.04-2.89,3.64-6.57,3.47-10.51.58.42,1.44.71,1.7,1.27.76,1.65,1.29,3.4,1.91,5.11.14,1.44.28,2.88.42,4.31-.34,1.55-.68,3.1-1.01,4.65-.45.5-.92.99-1.34,1.52-4.56,5.87-15.25,7.74-20.63-.36,1.6-.37,3.2-.75,4.8-1.13,1.42,0,2.85,0,4.27,0Z"/>
      <path class="cls-12" d="m229.87,204.29c-.04.16-.08.31-.12.47-.99.11-1.97.22-2.96.34-.41-1.43-.81-2.85-1.22-4.28,0,0-.07.05-.07.05,0-.72,0-1.45,0-2.17.47-1.64,1.05-3.28-.35-4.78.09-1.57.17-3.13.26-4.7.02-1.28.04-2.56.06-3.85.15-2.02.3-4.04.44-6.06,0,0,.04.02.05.03s.22,0,.22,0h.21c.74.29,1.48.57,2.22.86.12.29.24.57.36.86-.13,1.43-.27,2.86-.4,4.29.14,1.32.3,2.65.41,3.97.16,1.85.27,3.7.41,5.55-.29.52-.87,1.06-.82,1.55.23,2.66-.42,5.48,1.31,7.88Z"/>
      <path class="cls-17" d="m240.72,219.34c-.62-1.71-1.14-3.47-1.91-5.11-.26-.57-1.12-.86-1.7-1.27-.85-.47-1.7-.95-2.55-1.42.59-1.2,1.19-2.41,1.78-3.61,7.06,4.41,11.25,14.56,5.62,22.64-.61-.75-1.22-1.51-1.83-2.26.34-1.55.68-3.1,1.01-4.66,1.21-1.43,1.06-2.98-.42-4.31Z"/>
      <path class="cls-9" d="m239.7,234.37c.29,2.32.57,4.65.86,6.97-.85-1.86-1.71-3.72-2.56-5.58.57-.46,1.13-.93,1.7-1.39Z"/>
      <path class="cls-23" d="m179.06,264.09c.75.86,1.5,1.72,2.25,2.58-.6,1.15-1.74,2.32-1.7,3.46.08,2.49-1.13,4.04-2.81,5.45-1.35,1.15-2.7,2.32-4.19,3.28-.9.58-2.05,1.03-3.11,1.08-3.13.15-6.27.08-9.41.09-3.71-3.09-2.62-10.11.09-12.74,1.12-1.09,2.29-2.12,3.44-3.18.81-.21,1.65-.36,2.42-.66,2.27-.89,4.31-3.09,7.07-1.19.06.04.51-.47.77-.72,1.72.85,3.45,1.71,5.17,2.56Z"/>
      <path class="cls-7" d="m160.1,280.03c3.14-.01,6.28.06,9.41-.09,1.06-.05,2.2-.5,3.11-1.08,1.49-.96,2.84-2.13,4.19-3.28,1.67-1.42,2.89-2.97,2.81-5.45-.04-1.13,1.1-2.3,1.7-3.46,2.18,1.97,2.98,4.49,2.94,7.34-.01.84-.06,1.69-.09,2.53-1.16,3.13-2.04,6.54-5.31,8.21-7.05,3.59-13.08,3.2-18.18-2.93-.37-.45-.39-1.19-.57-1.79Z"/>
      <path class="cls-9" d="m173.89,261.53c-.27.25-.71.76-.77.72-2.76-1.9-4.8.3-7.07,1.19-.78.3-1.61.44-2.42.66,2.1-2.66,5.15-3.1,8.21-3.37.65-.06,1.37.52,2.05.81Z"/>
      <path class="cls-14" d="m118.41,130.75c1.42-2.17,3.66-2.91,6.01-3.48,2.16-.57,4.31-1.13,6.47-1.7-1.28,4.84-.9,5.58,3.76,7.33.47.18.91.51,1.38.56.57.06,1.16-.11,1.74-.18.85.17,1.71.35,2.56.52,1.8.5,3.61,1.42,5.41,1.41,2.73-.01,5.48-.52,8.16-1.12,1.55-.35,3.63-.27,4.05-2.57.15-.55.31-1.1.46-1.64,0-.72,0-1.44,0-2.15.15-.15.3-.3.44-.44,2.95.94,5.58,2.01,8.01,4.38,4.14,4.04,8.88,7.59,13.81,10.64,2.89,1.78,5.39,3.85,7.86,6.07.78.98,1.38,2.22,2.37,2.88,3.45,2.3,7.03,4.4,10.56,6.58.27.22.54.43.8.65,2.21,1.94,2.34,2.76.91,5.78-.41.09-.87.09-1.22.28-3.57,1.95-7.18,3.83-10.64,5.96-1.25.77-2.12,2.14-3.16,3.23-.15.15-.3.3-.46.44-.43.02-.86.04-1.29.06-1.05.13-2.1.28-3.15.37-3.62.33-6.61,1.7-8.36,5.07-.82,1.58-1.51,3.21-2.27,4.82-.02,1.59-.05,3.18-.07,4.77,0,.4,0,.8,0,1.21-.12.16-.24.32-.37.48-4.32,0-6.44,2.28-6.41,6.88-.25,3.07-2.69,6.34-5.18,6.92-.67-.21-1.45-.27-2-.66-3.29-2.33-6.72-4.52-9.76-7.16-5.57-4.83-10.87-9.99-17.28-13.77-.29-.17-.46-.53-.68-.81,1.04-1.93-.35-3.56-1.37-4.45-3.94-3.46-6.62-7.86-9.78-11.91-.6-2.56-1.29-5.1-1.77-7.68-1.09-5.85-2.45-11.71.16-17.55.59-1.31.17-2.24-1.44-2.32.58-2.57,1.17-5.14,1.75-7.71Z"/>
      <path class="cls-2" d="m137.76,133.29c-.58.07-1.17.24-1.74.18-.47-.05-.91-.39-1.38-.56-4.66-1.76-5.04-2.49-3.76-7.33.71-.29,1.42-.59,2.13-.88.43,0,.87-.02,1.3-.03,1.15,0,2.29-.02,3.44-.02,0,.17,0,.33,0,.5,0,.15,0,.3,0,.44-.92,0-1.83,0-2.75-.02-1.26-.03-2.24.29-2.39,1.76,0,.42-.02.84-.03,1.26-.16,3.06,2.55,2.94,4.3,3.89.29.27.58.54.87.82Z"/>
      <path class="cls-9" d="m132.59,128.58c0-.42.02-.84.03-1.26,1.25-.19,2.53-.28,3.74-.6.53-.14.94-.75,1.4-1.14,0-.15,0-.3,0-.44.99-.03,1.98-.06,2.96-.09,2.02.08,4.03.16,6.05.24,0,.24.01.48.02.72-.94.14-1.9.46-2.83.4-3.99-.24-7.66,1.04-11.37,2.18Z"/>
      <path class="cls-26" d="m149.32,119.16c2.64.45,5.31.77,7.89,1.45.57.15.8,1.56,1.19,2.39-3.02-1.28-6.05-2.57-9.07-3.85Z"/>
      <path class="cls-5" d="m158.84,127.29c-.15.15-.3.3-.44.44-.87-.23-1.74-.46-2.62-.69-1.74-.45-3.49-.91-5.23-1.36-.53-.06-1.05-.11-1.58-.17,0-.27-.02-.54-.02-.82.87,0,1.8-.2,2.59.04,2.46.76,4.87,1.68,7.3,2.54Z"/>
      <path class="cls-2" d="m146.77,125.28c-2.02-.08-4.03-.16-6.05-.24,1.96-1.43,4.01-.89,6.07-.28,0,.17-.01.35-.02.52Z"/>
      <path class="cls-5" d="m137.76,124.64c-1.15,0-2.29.02-3.44.02,1-.27,2.01-.54,3.01-.81.14.26.28.52.43.79Z"/>
      <path class="cls-26" d="m146.77,125.28c0-.17.01-.35.02-.52.27,0,.54.01.82.02.17.27.33.55.5.82,0,.15-.01.3-.02.46-.43-.02-.86-.04-1.3-.06,0-.24-.01-.48-.02-.72Z"/>
      <path class="cls-2" d="m148.11,125.6c-.17-.27-.33-.55-.5-.82.44-.02.89-.05,1.34-.07,0,.27.02.54.02.82-.29.03-.57.05-.86.08Z"/>
      <path class="cls-8" d="m176.8,231.69c-2.41-3.02-2.27-6.96.19-9.9,2.16-2.59,4.8-5.07,7.74-6.67,5.21-2.84,12.23.07,14.71,5.07-.54.72-1.17,1.39-1.62,2.16-1.4,2.4-2.58,4.95-4.17,7.22-.79,1.14-2.2,2.41-3.46,2.56-4.14.48-8.34.47-12.52.64-.29-.36-.58-.72-.87-1.09Z"/>
      <path class="cls-13" d="m197.14,242.09c.43,0,.86,0,1.28-.01,3.36-.02,6.74-.02,9.56,2.22.77.61,1.42,1.39,2.12,2.09-.06,8.74-7.71,14.53-15.06,14.3-1.78-.06-3.57.1-5.35.16-.55-.78-1.11-1.56-1.66-2.34-.74-3.73-.98-7.41,2.05-10.32,2.24-2.15,4.7-4.06,7.06-6.08Z"/>
      <path class="cls-7" d="m177.67,232.78c4.18-.18,8.38-.17,12.52-.64,1.25-.14,2.66-1.42,3.46-2.56,1.58-2.27,2.77-4.82,4.17-7.22.45-.77,1.07-1.44,1.62-2.16,4.73,3.71,3,11.42-.22,15.34-.36.44-.72.88-1.08,1.32-3.05,1.99-6.29,3.08-10.03,2.83-4.87-.33-8.29-2.57-10.43-6.9Z"/>
      <path class="cls-29" d="m174.68,220.2c-.54,2.87-1.09,5.74-1.63,8.61-.15,0-.3,0-.45,0-1.13,0-2.27-.07-3.39.02-2.51.18-4.74.04-5.03-3.23,0-.09-.37-.15-.56-.23.44-2.29.87-4.59,1.31-6.88.09-.44.19-.88.28-1.32.07-.56.13-1.12.2-1.68,2.67-2.49,5.35-4.97,7.99-7.49.79-.75,1.48-1.61,2.22-2.42-.28.93-.38,1.96-.87,2.76-1.14,1.86-1.93,3.74-1.73,6,.14,1.59-.08,3.21.11,4.79.05.42,1.01.73,1.56,1.08Z"/>
      <path class="cls-12" d="m171.34,231.9c-1.31.15-2.61.35-3.92.44-.71.05-1.44-.07-2.16-.11.02-.73.04-1.45.06-2.18,2.4-.16,4.79-.32,7.19-.48.03.59.07,1.17.1,1.76-.42.19-.85.38-1.27.58Z"/>
      <path class="cls-10" d="m172.51,229.57c-2.4.16-4.79.32-7.19.48-.57-1.56-1.14-3.12-1.71-4.68.2.08.55.14.56.23.29,3.26,2.52,3.41,5.03,3.23,1.13-.08,2.26-.02,3.39-.02-.03.25-.06.51-.09.76Z"/>
      <path class="cls-10" d="m171.34,231.9c.42-.19.85-.38,1.27-.58.15.14.3.28.45.42-.58.31-1.16.62-1.74.94,0-.26.01-.52.02-.78Z"/>
      <path class="cls-23" d="m183.84,303.35c1.35-.61,2.66-1.33,4.05-1.82,3.02-1.06,5.86-.2,8.63,1.05.9.41,1.82.78,2.74,1.17.72.83,1.44,1.66,2.16,2.5-.58.46-1.4.81-1.69,1.42-.85,1.79-1.19,3.89-2.28,5.49-1.4,2.05-3.33,3.74-5.03,5.58-1.87.42-3.74.83-5.61,1.25-1.89.37-3.77.73-5.66,1.1-2.95-1.94-4.05-5.59-3.2-9.4.82-3.67,2.38-6.64,5.88-8.34Z"/>
      <path class="cls-7" d="m181.15,321.09c1.89-.37,3.77-.73,5.66-1.1,2.15.85,4.01.39,5.61-1.25,1.7-1.84,3.63-3.53,5.03-5.58,1.09-1.6,1.43-3.7,2.28-5.49.29-.6,1.11-.95,1.69-1.42,1.56,1.49,1.02,3.38.65,5.01-.62,2.76-1.02,5.38.05,8.15.26.69-.46,1.75-.73,2.65-2.14,1.32-4.27,2.65-6.41,3.97-5.25,1.54-9.67.1-13.38-3.79-.26-.27-.3-.76-.44-1.15Z"/>
      <path class="cls-20" d="m194.98,326.02c2.14-1.32,4.27-2.65,6.41-3.97-.1,1.47.94,1.42,1.93,1.46-.62,1.89-1.52,3.54-3.54,4.27-.89-.3-1.79-.59-2.67-.91-.72-.26-1.42-.57-2.13-.85Z"/>
      <path class="cls-12" d="m196.24,211.95c-.42.02-.84.04-1.26.06-.43-.14-.85-.28-1.28-.42-.57-.42-1.13-.83-1.7-1.25,1.06-1.11,2.12-2.21,3.18-3.32,1.59-1.55,3.23-3.04,4.74-4.67.42-.45.41-1.29.6-1.95,1.6-2.71,3.21-5.41,4.79-8.12.91-1.56,1.78-3.15,2.67-4.72.13-.27.26-.55.39-.82.28-.45.57-.91.85-1.36.15-.28.31-.57.46-.85.52-1.02,1.03-2.04,1.55-3.07.04-.27.08-.55.11-.82.19-.41.38-.83.57-1.24.67-2.88,1.33-5.77,2-8.65.57,0,1.14,0,1.71-.01-.24,2.04-.49,4.07-.73,6.11-.07.5-.13,1-.2,1.5-.28.37-.67.69-.83,1.1-1.7,4.27-3.37,8.55-5.04,12.83-.47.68-.94,1.35-1.41,2.03-.28.3-.56.59-.84.89-.2.36-.41.72-.61,1.08-.78,1.11-1.55,2.21-2.33,3.32-.59,1.13-1.18,2.26-1.77,3.38,0,0,0,0,0,0-.92,1.13-1.85,2.25-2.76,3.39-.8,1.01-1.57,2.05-2.36,3.08-.16.83-.33,1.66-.49,2.49Z"/>
      <path class="cls-26" d="m208.8,192.27c1.68-4.28,3.34-8.56,5.04-12.83.16-.41.55-.74.83-1.1-.39,1.57-.7,3.17-1.2,4.7-.83,2.55-1.69,5.09-2.74,7.55-.3.71-1.27,1.12-1.94,1.67Z"/>
      <path class="cls-26" d="m196.73,209.45c.78-1.03,1.55-2.06,2.36-3.08.9-1.14,1.84-2.26,2.76-3.39-.49,3.11-2.62,4.94-5.11,6.47Z"/>
      <path class="cls-2" d="m214.87,176.85c.24-2.04.49-4.07.73-6.11.05-.18.09-.35.14-.53,1.48,2.45.23,4.53-.87,6.64Z"/>
      <path class="cls-26" d="m201.84,202.98c.59-1.13,1.18-2.26,1.77-3.38-.59,1.13-1.18,2.26-1.77,3.38Z"/>
      <path class="cls-26" d="m206.54,195.2c.28-.3.56-.59.84-.89-.24.47-.48.95-.73,1.42-.04-.18-.08-.35-.12-.53Z"/>
      <path class="cls-2" d="m206.54,195.2c.04.18.08.35.12.53-.24.18-.49.36-.73.55.2-.36.41-.72.61-1.08Z"/>
      <path class="cls-14" d="m308.99,160.89c.72.13,1.43.26,2.14.39,1.29,1.72,2.82,1.56,4.07.7,1.72,1.49,3.3,2.82,4.82,4.21.44.4.69,1.01,1.02,1.52-.29,0-.59.02-.88.02-.72-.16-1.43-.32-2.15-.48-.56-.56-1.13-1.13-1.69-1.69-.73-.41-1.47-.82-2.2-1.23-.41-.2-.82-.41-1.22-.61l-3.03-1.6c-.28-.06-.56-.11-.85-.17,0-.35-.02-.71-.03-1.06Z"/>
      <path class="cls-2" d="m320.16,167.74c.29,0,.59-.02.88-.02.57.57,1.15,1.15,1.72,1.72-.41.87-.83,1.74-1.24,2.61-.46-1.44-.91-2.88-1.36-4.31Z"/>
      <path class="cls-2" d="m323.16,162.59c.87.72,1.74,1.44,2.61,2.17-2.08.62-2.37.39-2.61-2.17Z"/>
      <path class="cls-2" d="m320.22,161.25c.14.11.29.23.43.34-.14-.11-.29-.23-.43-.34Z"/>
      <path class="cls-28" d="m246.61,168.15c-.57.15-1.14.3-1.71.45-2.47.98-.95,2.98-1.13,4.54-.14,1.2-.12,2.42-.18,3.64-.85-.29-1.7-.58-2.55-.87-.6-1-1.2-1.99-1.8-2.99-.13-.13-.26-.26-.4-.39-.32-.29-.64-.58-.96-.87-.25-.14-.5-.28-.76-.42-.7-1.39-1.66-1.68-2.96-.75-1.06.76-2.16,1.45-3.06-.22.45-.69.9-1.37,1.36-2.06,1.2-.3,2.41-.56,3.58-.93.55-.17,1.02-.58,1.52-.88.27-.05.54-.1.82-.15.3-.1.6-.19.9-.29,1.73.02,3.45.04,5.18.06-.35,1.78,1.39,1.46,2.14,2.13Z"/>
      <path class="cls-5" d="m231.1,170.27c.91,1.67,2,.98,3.06.22,1.3-.93,2.26-.65,2.96.75-1.3.4-2.59.79-3.89,1.19-.39.03-.79.06-1.18.09-.59.68-1.42,1.26-1.73,2.05-.71,1.83-1.17,3.75-1.72,5.63-.74-.29-1.48-.57-2.22-.86,0-.14,0-.29,0-.43,1.01-2.72,2.01-5.44,3.02-8.17.1-.05.2-.1.3-.13.46-.12.93-.23,1.39-.35Z"/>
      <path class="cls-26" d="m225.91,179.31c-.15,2.02-.3,4.04-.44,6.06-.02,1.28-.04,2.56-.06,3.85-.09,1.57-.17,3.13-.26,4.7.12,1.59.23,3.19.35,4.78,0,.72,0,1.45,0,2.17-.42-1.04-1.11-2.05-1.2-3.11-.29-3.24-.56-6.51-.42-9.75.12-2.7.81-5.38,1.3-8.05.05-.25.48-.42.74-.63Z"/>
      <path class="cls-2" d="m229.4,170.75c-1.01,2.72-2.01,5.44-3.02,8.17-.14,0-.29,0-.43,0,.31-3.08.54-6.18,3.45-8.17Z"/>
      <path class="cls-26" d="m237.57,166.4c-.51.3-.98.7-1.52.88-1.17.37-2.39.63-3.58.93-.86.43-1.71.86-2.57,1.29.17-1.84,1.61-2.16,3.01-2.42,1.54-.29,3.11-.45,4.66-.67Z"/>
      <path class="cls-2" d="m229.89,169.49c.86-.43,1.71-.86,2.57-1.29-.45.69-.9,1.37-1.36,2.06-.46.12-.93.23-1.39.35.06-.37.12-.75.18-1.12Z"/>
      <path class="cls-26" d="m239.29,165.97c-.3.1-.6.19-.9.29.3-.1.6-.19.9-.29Z"/>
      <path class="cls-26" d="m225.96,178.91c.14,0,.29,0,.43,0,0,.14,0,.29,0,.43,0,0-.22,0-.22,0,0,0-.21,0-.22,0,0-.14,0-.29,0-.43Z"/>
      <path class="cls-11" d="m272.85,162.99c-4.91,2.57-10.22,2.2-15.49,2.15.57-.88,1.14-1.75,1.71-2.63,4.16-1.1,8.33-2.2,12.49-3.3.02,1.4-.36,2.93,1.28,3.78Z"/>
      <path class="cls-2" d="m308.99,160.89c0,.35.02.71.03,1.07-.3.07-.59.13-.89.19-.29,0-.57,0-.86,0-1.92-.58-3.82-1.29-5.78-1.67-.73-.14-1.6.48-2.41.76-.27.17-.55.34-.82.52-.14-.02-.28-.03-.43-.03.15-1,.29-1.99.44-2.99.27,0,.53,0,.8.01.32.24.65.48.97.73,1.27.03,2.53.05,3.8.08.28.02.55.03.83.05.3.26.61.52.91.78.57.03,1.13.05,1.7.08.28.13.56.25.85.38.29.02.58.03.87.05Z"/>
      <path class="cls-11" d="m275.43,162.56c-.57.14-1.15.28-1.72.42.57-.14,1.15-.28,1.72-.42Z"/>
      <path class="cls-11" d="m274.5,159.09c.46-.26.91-.53,1.37-.79-.46.26-.91.53-1.37.79Z"/>
      <path class="cls-24" d="m300.03,159.48c-.32-.24-.65-.48-.97-.73.32.24.65.48.97.73Z"/>
      <path class="cls-23" d="m208.36,186.73c-.13.27-.26.55-.39.82-.59.54-1.13,1.15-1.79,1.59-.75.5-1.62.83-2.43,1.23-.34-.76-.73-1.49-1.01-2.27-.32-.9-.54-1.83-.81-2.75-1.97-3.55-3.86-7.16-7.02-9.87.17-.43.33-.86.5-1.29,1.29-1.01,2.59-2.01,3.88-3.02,1.16-.83,2.32-1.67,3.48-2.5.27-.18.54-.36.81-.53,1.28-.6,2.57-1.19,3.85-1.79,1.03-.02,2.05-.03,3.08-.05.42.47.84.94,1.25,1.41.3,1.58.59,3.17.89,4.75-.03.28-.06.55-.09.83-1.55,1.3-2.13,4.8-1.23,7.35-.04.27-.08.55-.11.82-.52,1.02-1.03,2.04-1.55,3.07-.15.28-.31.57-.46.85-.28.45-.57.91-.85,1.36Z"/>
      <path class="cls-11" d="m199.29,171.18c-1.29,1.01-2.59,2.01-3.88,3.02-2.5.96-4.89.13-7.29-.47,1.04-1.1,1.92-2.47,3.16-3.23,3.46-2.12,7.07-4.01,10.64-5.96.35-.19.81-.19,1.22-.28.14,1.3.29,2.59.43,3.89-.27.18-.54.36-.81.53-2.01-.89-3.04-.14-3.48,2.5Z"/>
      <path class="cls-2" d="m212.56,173.29c.03-.28.06-.55.09-.83.19-.73.39-1.47.58-2.2.22.16.44.32.67.48-.67,2.88-1.33,5.77-2,8.65.22-2.04.44-4.07.65-6.11Z"/>
      <path class="cls-9" d="m213.23,170.27c-.19.73-.39,1.47-.58,2.2-.3-1.58-.59-3.17-.89-4.75.32.42.65.84.97,1.27.11.13.23.27.34.4.05.29.1.59.15.88Z"/>
      <path class="cls-2" d="m210.51,166.31c-1.03.02-2.05.03-3.08.05,1.01-1.26,2.04-1.2,3.08-.05Z"/>
      <path class="cls-2" d="m213.08,169.38c-.11-.13-.23-.27-.34-.4.11.13.23.27.34.4Z"/>
      <path class="cls-14" d="m308.12,160.84c-.28-.13-.56-.26-.85-.38.28.13.56.26.85.38Z"/>
      <path class="cls-14" d="m305.57,160.38c-.3-.26-.61-.52-.91-.78.3.26.61.52.91.78Z"/>
      <path class="cls-16" d="m130.85,182.37c.22.27.4.64.68.81,6.41,3.78,11.71,8.93,17.28,13.77,3.04,2.63,6.46,4.83,9.76,7.16.55.39,1.32.45,2,.66.32,1.83,1.12,3.13,3.19,3.46,1.54.25,1.77,1.45,1.38,2.81-.52,1.84-1.09,3.66-1.57,5.51-.88,3.4-2.9,5.26-6.44,5.82.51-1.74.63-3.76,1.63-5.14,1.75-2.41.85-4.5.08-6.77-.5-1.48-.82-3.01-1.32-4.49-.19-.56-.56-1.23-1.04-1.5-1.72-.97-3.51-1.81-5.3-2.63-.33-.15-.98-.12-1.21.1-1.32,1.27-2.7.72-4.18.41-1.65-.35-3.53-.79-4.65,1.03-1.11,1.81-1.97,3.76-2.94,5.65-1.87-.43-3.73-.86-5.6-1.28-.29,0-.57,0-.86,0-.29-.29-.57-.57-.86-.86,0-.14,0-.28,0-.43-.71-.57-1.43-1.15-2.14-1.72,0,0,0,0,0,0-2.01-2.36-3.74-5.06-6.12-6.98-2.5-2.01-5.64-3.2-8.42-4.88-.85-.52-1.64-1.37-2.1-2.26-.69-1.31-.87-2.91-1.62-4.17-.72-1.21-1.71-2.6-2.92-3.11-4.25-1.82-6.25-4.54-6.36-9.29-.08-3.42-.24-6.84-.45-10.25-.03-.42-.55-.82-.84-1.22,0-1.12.09-2.24-.04-3.34-.06-.49-.54-.93-.83-1.39-.02-.59-.05-1.17-.07-1.76,0,0,.08.04.08.04.11-.3.21-.6.32-.9.05-.42.11-.84.16-1.26.12-.17.24-.34.36-.51.04-.26.07-.53.11-.79.55-.57,1.1-1.14,1.64-1.7.83-1.4,1.58-2.87,2.52-4.2,1.5-2.12,2.83-4.49,4.78-6.1,1.89-1.57,4.37-1.16,6.43.41-.01,1.98-.02,3.97-.03,5.95-1.21.9-1.18,1.81-.02,2.73-.02.98-.05,1.95-.07,2.93-.37-.24-.99-.43-1.06-.74-.27-1.1-.28-2.26-.53-3.36-.35-1.51-.32-2.94-2.71-3.36-3.16-.56-5.08-.02-6.03,3.12-.1.33-.35.62-.55.92-2.54,3.73-3.8,7.57-1.59,12,.51,1.01.23,2.47.16,3.71-.26,4.49-1.63,9.01.36,13.41.42.92,1.15,2.32,1.84,2.39,3.71.35,5.84,3.21,8.64,4.99.46.29,1.01.45,1.52.68.06-.71.17-1.42.18-2.13.03-1.29-.08-2.59.04-3.87.1-1.05.82-2.14.64-3.1-.61-3.32,1.64-5.04,3.53-7,3.72,4.02,7.44,8.04,11.16,12.06Z"/>
      <path class="cls-8" d="m226.36,304.97c.47.68.95,1.37,1.42,2.05-1.63,3.18-3.27,6.36-4.9,9.53-.26.3-.52.59-.78.89,0,.14-.02.27-.05.41-.71.69-1.42,1.38-2.13,2.07-1.16.32-2.3.78-3.48.93-3.15.39-6.31.64-9.47.95-6.84-6.35.17-17.57,7.39-19.07,4.54-.94,8.16.7,12,2.24Z"/>
      <path class="cls-7" d="m206.96,321.8c3.16-.31,6.32-.56,9.47-.95,1.18-.15,2.32-.61,3.48-.93.71-.69,1.42-1.38,2.13-2.07.03-.13.04-.27.05-.41.26-.3.52-.59.78-.89,1.63-3.18,3.27-6.36,4.9-9.53,2.61,2.52,3,5.75,2.97,9.13-.46,1.98-.92,3.97-1.38,5.95-1.08.79-2.2,1.51-3.22,2.37-3.91,3.28-8.13,4.85-13.11,2.53-2.37-1.33-4.57-2.86-6.08-5.2Z"/>
      <path class="cls-20" d="m186.75,263.8c-.54-1.05-1.08-2.11-1.62-3.16,1.44.59,1.8,1.74,1.62,3.16Z"/>
      <path class="cls-9" d="m298.25,161.76c.27-.17.55-.34.83-.52,1.22.39,2.41.92,3.66,1.14.96.16,1.99-.06,2.99-.12.51-.03,1.03-.07,1.54-.11.29,0,.57,0,.86,0,0,.28,0,.57,0,.85-.39.14-.77.27-1.16.42-.73.28-1.47.57-2.2.85.49.77.8,1.83,1.49,2.26,2.34,1.43,4.82,2.65,7.25,3.93,2.67,1.4,2.73,1.38,4.98-1.28-.67-.39-1.34-.72-1.93-1.15-1.69-1.23-3.34-2.5-5.01-3.75.15-.16.3-.32.45-.48.29-.03.58-.05.87-.08.41.2.82.41,1.22.61.15.29.31.57.46.86.29.13.58.27.86.4.29-.01.59-.03.88-.04.56.56,1.13,1.13,1.69,1.69,1.01,1.63,2.01,3.27,3.03,4.92-1.08.61-1.62.91-2.15,1.21-.71-.01-1.42-.02-2.13-.04-.29-.01-.58-.02-.88-.04-.14-.01-.27-.04-.4-.1-.16-.11-.32-.21-.48-.32-6.21-1.21-11.73-3.81-16.34-8.22-.14-.97-.28-1.95-.42-2.92Z"/>
      <path class="cls-5" d="m243.59,176.77c.05-1.21.04-2.43.18-3.64.18-1.55-1.34-3.55,1.13-4.54-.58,2.22.05,3.97,2.62,5.1,3.04,1.33,3.41,3.84,3.86,6.54.18,1.07.76,2.07,1.18,3.09.29.69.61,1.37.92,2.05-.13,0-.27,0-.41,0-.43-.15-.86-.3-1.29-.45-.29-.29-.58-.57-.86-.86-.09-.34-.23-.67-.28-1.02-.37-2.82-1.47-4.77-4.81-4.7-.74.02-1.5-1.03-2.25-1.58Z"/>
      <path class="cls-28" d="m253.07,185.37c.14,0,.27,0,.41,0,1.01,2.15,2.01,4.3,3.02,6.45-2.25.56-2.31,2.85-3.43,4.3-.45,0-.89-.01-1.34-.02.34-1.56.67-3.12,1.01-4.68.25-.57.73-1.14.72-1.71-.02-1.45-.24-2.89-.39-4.34Z"/>
      <path class="cls-26" d="m318.89,173.39c.54-.3,1.07-.6,2.15-1.21-1.02-1.65-2.02-3.28-3.03-4.92.72.16,1.43.32,2.15.48.45,1.44.91,2.87,1.36,4.31-.37,1.46-1.08,2.23-2.64,1.34Z"/>
      <path class="cls-10" d="m298.25,161.76c.14.97.28,1.95.42,2.92-.81-.25-1.63-.5-2.44-.75-.19-.33-.39-.66-.58-.99.73-.4,1.45-.8,2.18-1.2.14,0,.28,0,.43.03Z"/>
      <path class="cls-26" d="m315.89,173.31c.29.01.58.02.88.04-.29-.01-.58-.02-.88-.04Z"/>
      <path class="cls-26" d="m315.01,172.9c.16.11.32.21.48.32-.16-.11-.32-.21-.48-.32Z"/>
      <path class="cls-29" d="m244.03,245.16c.4.13.8.29,1.21.4.75.2,1.93.76,2.18.49.55-.61,1.05-1.77.83-2.47-.97-3.09-.37-6.19-.31-9.28.03-1.54.53-3.07.58-4.62.06-1.97-.1-3.94-.2-5.92-.12-2.41-.2-4.83-.44-7.23-.18-1.82-.67-3.61-.89-5.43-.24-1.92-.32-3.86-.48-5.8-.09-1.04-.21-2.08-.32-3.12.99-.57,1.97-1.14,2.96-1.7.32.42.79.8.95,1.28.6,1.84,1.1,3.72,1.63,5.58.31,2,.63,4,.94,6,.15,3,.29,6,.44,9,.23,1.03.46,2.06.69,3.09.04,2.69.08,5.39.12,8.08-.1.05-.2.08-.31.09-.31.21-.62.43-.93.64.25.35.51.69.76,1.04-.05.28-.11.55-.16.83-.19.31-.38.61-.57.92l-.14.82c-1.54.96-2.42,4.9-1.56,6.93-.8,2.78-2.77,3.68-5.23,2.36-.61-.33-1.16-.78-1.73-1.17,0-.27,0-.53,0-.8Z"/>
      <path class="cls-28" d="m251.72,207.33c-.54-1.86-1.03-3.74-1.63-5.58-.16-.48-.62-.86-.95-1.28.34-.44.69-.88,1.03-1.32.82.14,1.64.28,2.46.41.9,2.73.26,5.28-.91,7.77Z"/>
      <path class="cls-14" d="m253.1,222.33c-.15-3-.29-6-.44-9,.27.27.72.52.77.83.34,2.28.64,4.58.87,6.88.04.43-.26.89-.4,1.33-.27-.01-.54-.02-.81-.03Z"/>
      <path class="cls-14" d="m253.91,233.5c-.04-2.69-.08-5.39-.12-8.08.05-.59.1-1.17.15-1.76.28.62.77,1.23.79,1.86.09,2.81.04,5.63.04,8.44-.29-.15-.58-.31-.87-.46Z"/>
      <path class="cls-5" d="m252.63,199.56c-.82-.14-1.64-.28-2.46-.41-.03-.43-.06-.87-.1-1.3.55-.58,1.1-1.17,1.66-1.75.45,0,.89.01,1.34.02-.14,1.15-.29,2.3-.43,3.44Z"/>
      <path class="cls-26" d="m253.94,223.66c-.05.59-.1,1.17-.15,1.76-.23-1.03-.46-2.06-.69-3.09.27.01.54.02.81.03.01.43.02.86.04,1.3Z"/>
      <path class="cls-21" d="m138.19,209.02c.97-1.89,1.83-3.85,2.94-5.65,1.12-1.82,3-1.38,4.65-1.03,1.48.31,2.86.86,4.18-.41.23-.22.88-.25,1.21-.1,1.8.82,3.58,1.67,5.3,2.63.48.27.85.94,1.04,1.5.5,1.47.82,3.01,1.32,4.49.77,2.27,1.66,4.35-.08,6.77-1,1.38-1.12,3.41-1.63,5.14-2.33,1.3-4.43.85-6.55-.64-3.98-2.8-7.7-5.81-10.24-10.07-.57-.96-1.42-1.76-2.15-2.63Z"/>
      <path class="cls-1" d="m175.61,205.58c-.74.81-1.43,1.67-2.22,2.42-2.64,2.52-5.32,4.99-7.99,7.49.52-1.33,1-2.69,1.58-3.99.55-1.22,1.2-2.39,1.81-3.59,1.7-2.63,3.4-5.26,5.1-7.88.44-.43.87-.86,1.31-1.29.71.71,1.43,1.41,2.14,2.12-.43.33-1.12.59-1.23,1-.3,1.06-.34,2.2-.49,3.31,0,.14,0,.28,0,.42Z"/>
      <path class="cls-5" d="m165.74,197.84c-.03-4.59,2.09-6.87,6.41-6.88.13,0,.26.02.39.04,0,.42.01.84.02,1.25-.13.57-.26,1.15-.39,1.72-1.83,1.12-.39,2.9-.86,4.29-1.75-1.59-3.65-1.12-5.58-.43Z"/>
      <path class="cls-28" d="m171.32,198.27c.47-1.4-.97-3.17.86-4.29,1.68,1.7,1.9,3.81,1.72,6.04-1.7,2.63-3.4,5.26-5.1,7.88.38-1.39.78-2.79,1.14-4.19.47-1.81.92-3.63,1.38-5.44Z"/>
      <path class="cls-1" d="m165.21,217.16c-.09.44-.19.88-.28,1.32.09-.44.19-.88.28-1.32Z"/>
      <path class="cls-5" d="m111.95,193.97c-.14-.14-.27-.28-.41-.43.14.14.27.28.41.43Z"/>
      <path class="cls-11" d="m128.72,204.73c.71.57,1.43,1.15,2.14,1.72-.71-.57-1.43-1.15-2.14-1.72Z"/>
      <path class="cls-11" d="m130.88,206.88c.29.29.57.57.86.86-.29-.29-.57-.57-.86-.86Z"/>
      <path class="cls-9" d="m251,244.77c-.86-2.03.02-5.97,1.56-6.93.05.43.09.86.14,1.3-.57,1.88-1.13,3.75-1.7,5.63Z"/>
      <path class="cls-14" d="m252.7,239.14c-.05-.43-.09-.86-.14-1.3.05-.27.09-.55.14-.82.25-.02.5-.04.75-.06.57,1.01.45,1.78-.76,2.18Z"/>
      <path class="cls-9" d="m241.78,243.49c.59.58,1.17,1.16,1.76,1.74-.6-.46-1.2-.91-1.81-1.37.03-.12.05-.25.05-.38Z"/>
      <path class="cls-9" d="m253.43,235.27c-.25-.35-.51-.69-.76-1.04.31-.21.62-.43.93-.64-.06.56-.11,1.12-.17,1.68Z"/>
      <path class="cls-9" d="m253.45,236.96c-.25.02-.5.04-.75.06.19-.31.38-.61.57-.92.06.29.12.57.18.86Z"/>
      <path class="cls-9" d="m244.03,245.16c0,.27,0,.53,0,.8-.17-.25-.34-.49-.5-.74.17-.02.33-.04.5-.06Z"/>
      <path class="cls-25" d="m115.36,141.06c-2.06-1.56-4.54-1.98-6.43-.41-1.94,1.62-3.28,3.99-4.78,6.1-.94,1.33-1.69,2.79-2.52,4.2.85-3.86,2.04-7.56,4.65-10.66.3-.36.36-.92.53-1.39,1.14-1.15,2.28-2.29,3.43-3.44.14-.15.29-.29.43-.44,1.85-.44,2.14-1.85,2.15-3.44,0-.14,0-.29,0-.43,1.26-.48,2.53-.95,3.78-1.46,1.08-.43,1.84-.4,1.82,1.05-.58,2.57-1.17,5.14-1.75,7.71-.43.86-.87,1.73-1.3,2.59Z"/>
      <path class="cls-5" d="m133.02,124.69c-.71.29-1.42.59-2.13.88-2.16.57-4.31,1.13-6.47,1.7.13-.24.21-.62.4-.69,2.13-.77,4.26-1.54,6.42-2.18.52-.15,1.18.18,1.77.29Z"/>
      <path class="cls-11" d="m112.81,131.59c0,1.59-.29,3-2.15,3.44.72-1.15,1.43-2.29,2.15-3.44Z"/>
      <path class="cls-5" d="m99.35,155.21c-.11.3-.21.6-.32.9.11-.3.21-.6.32-.9Z"/>
      <path class="cls-25" d="m99.87,153.45c-.12.17-.24.34-.36.51.12-.17.24-.34.36-.51Z"/>
      <path class="cls-23" d="m175.61,205.58c0-.14,0-.28,0-.42.65-1.34,1.31-2.69,1.96-4.03,2.5.61,5,1.21,7.51,1.82.28.05.57.09.85.14-.24.61-.39,1.3-.75,1.82-.86,1.22-.51,1.73.8,1.89.59-1.3,1.14-2.51,1.69-3.71l2.57-.13c.28,0,.56-.01.85-.02,1.85,3.04.54,6.18-2.92,7.18-.65.19-1.19.71-1.79,1.08-1.3.41-2.6.83-3.9,1.24l-3.35,1.36c-.17.13-.34.26-.51.39-.3.43-.6.86-.9,1.29-.69.58-1.39,1.17-2.08,1.75-.15.28-.3.56-.46.85-.17.72-.34,1.43-.51,2.15-.54-.36-1.51-.67-1.56-1.08-.19-1.58.03-3.2-.11-4.79-.2-2.26.59-4.13,1.73-6,.49-.8.59-1.83.87-2.76Z"/>
      <path class="cls-29" d="m186.38,211.18c.59-.37,1.14-.9,1.79-1.08,3.46-1,4.77-4.14,2.92-7.18.92-.26,2.02-.29,2.74-.83,2.93-2.18,5.85-4.57,6.91-8.18.8-2.74.83-5.7,1.2-8.56.27.92.49,1.85.81,2.75.28.78.67,1.52,1.01,2.27.82-.4,1.68-.73,2.43-1.23.66-.43,1.2-1.05,1.79-1.59-.89,1.57-1.76,3.16-2.67,4.72-1.58,2.72-3.19,5.42-4.79,8.12-1.11.94-2.39,1.75-3.29,2.87-.88,1.09-1.38,2.49-2.05,3.76-1.06,1.11-2.12,2.21-3.18,3.32-1.45.31-2.89.61-4.34.92-.43-.03-.85-.05-1.28-.08Z"/>
      <path class="cls-20" d="m187.66,211.26c1.45-.31,2.89-.61,4.34-.92.57.42,1.13.83,1.7,1.25-1.7.87-4.9.7-6.04-.33Z"/>
      <path class="cls-20" d="m179.14,213.78l3.35-1.36c-.13.73-.02,1.68-.45,2.14-.89.94-1.56.23-2.09-.66-.09-.15-.53-.08-.81-.12Z"/>
      <path class="cls-20" d="m177.73,215.46c.3-.43.6-.86.9-1.29-.3.43-.6.86-.9,1.29Z"/>
      <path class="cls-29" d="m175.19,218.06c.15-.28.3-.56.46-.85-.15.28-.3.56-.46.85Z"/>
      <path class="cls-19" d="m227.23,228.34c-1.42,0-2.85,0-4.27,0,1.42,0,2.85,0,4.27,0Z"/>
      <path class="cls-6" d="m243.65,202.25c-4.55.98-8.76.63-12.09-3.12-.35-.97-.7-1.94-1.05-2.9.44-.21.88-.42,1.31-.64,2.62,2.09,4.77,4.91,8.41,5.41.07.12.14.24.21.36.07-.09.13-.19.2-.28l.77-.13c.75.43,1.49.86,2.24,1.29Z"/>
      <path class="cls-17" d="m243.65,202.25c-.75-.43-1.49-.86-2.24-1.29,2.97-1.06,6.2-1.7,8.04-4.7.21.53.41,1.06.62,1.59.03.43.06.87.1,1.3-.34.44-.68.88-1.03,1.32-.99.57-1.97,1.14-2.96,1.7-.84.03-1.69.06-2.53.08Z"/>
      <path class="cls-10" d="m230.51,196.23c.35.97.7,1.94,1.05,2.9-2.21.49-1.85,1.99-1.48,3.58.11.48-.13,1.05-.21,1.58-1.73-2.41-1.08-5.23-1.31-7.88-.04-.49.53-1.03.82-1.55.37.45.75.91,1.12,1.36Z"/>
      <path class="cls-20" d="m240.72,219.34c1.48,1.33,1.63,2.88.42,4.31-.14-1.44-.28-2.88-.42-4.31Z"/>
      <path class="cls-3" d="m232.05,172.51c.39-.03.79-.06,1.18-.09.86.61,1.72,1.22,2.58,1.83.38.55.87,1.07,1.11,1.67.32.79.44,1.66.65,2.49-.21.16-.41.33-.64.46-2.19,1.26-4.92,1.75-6.15,4.36-.74.7-1.49,1.4-2.23,2.1.13-1.43.27-2.86.4-4.29,1.03-2.85,2.06-5.7,3.09-8.55Z"/>
      <path class="cls-18" d="m228.57,185.34c.74-.7,1.49-1.4,2.23-2.1.54.53,1.08,1.06,1.61,1.58-1.6,3.06-2.62,6.18-.79,9.53.07.41.13.83.2,1.24-.44.21-.87.42-1.31.64-.37-.45-.75-.91-1.12-1.36-.13-1.85-.25-3.7-.41-5.55-.11-1.33-.27-2.65-.41-3.97Z"/>
      <path class="cls-2" d="m232.05,172.51c-1.03,2.85-2.06,5.7-3.09,8.55-.12-.29-.24-.57-.36-.86.56-1.88,1.02-3.81,1.72-5.63.31-.79,1.13-1.37,1.73-2.05Z"/>
      <path class="cls-2" d="m225.51,198.69c-.12-1.59-.23-3.19-.35-4.78,1.4,1.5.83,3.14.35,4.78Z"/>
      <path class="cls-2" d="m225.41,189.22c.02-1.28.04-2.56.06-3.85-.02,1.28-.04,2.56-.06,3.85Z"/>
      <path class="cls-3" d="m146.8,126c.43.02.86.04,1.3.06,1.68.71,3.34,1.46,5.05,2.1.71.26,1.51.27,2.26.4,1,.45,2,.89,2.99,1.34-.15.55-.31,1.1-.46,1.64-1.47.6-2.9,1.54-4.43,1.74-3.07.39-6.19.37-9.29.51-1.66-.4-3.32-.85-4.99-1.19-.76-.15-1.56-.09-2.33-.12-1.75-.95-4.46-.84-4.3-3.89,3.71-1.14,7.38-2.42,11.37-2.18.93.06,1.89-.26,2.83-.4Z"/>
      <path class="cls-22" d="m201.94,185.36c-.37,2.86-.4,5.82-1.2,8.56-1.06,3.61-3.98,6-6.91,8.18-.72.53-1.81.56-2.74.83-.28,0-.56.01-.85.02.55-.72,1.09-1.44,1.66-2.18-.84-.32-1.47-.56-2.09-.81,2.86-1.01,4.83-3,6.62-5.42,2.46-3.31,2.08-11.16-1.45-13.04-.81-.9-1.53-1.92-2.45-2.68-2.17-1.8-4.83-1.76-7.46-1.69.43-.96.87-1.92,1.3-2.88.43-.02.86-.04,1.29-.06,2.12,2.05,4.8,1.05,7.24,1.31,3.16,2.71,5.05,6.31,7.02,9.87Z"/>
      <path class="cls-18" d="m186.38,174.24c-.43.96-.87,1.92-1.3,2.88-4.13.3-6.72,2.99-9.32,5.81-1.58,1.72-.78,3.62-.94,5.44-.12,1.41,0,2.85.02,4.28-.47.16-.94.31-1.41.47-.29-.29-.57-.58-.86-.86,0-.42-.01-.84-.02-1.25,0-.17-.02-.35-.03-.52,0-.4,0-.8,0-1.21.02-1.59.05-3.18.07-4.77.75-1.61,1.45-3.24,2.27-4.82,1.75-3.37,4.74-4.74,8.36-5.07,1.05-.1,2.1-.25,3.15-.37Z"/>
      <path class="cls-2" d="m115.36,141.06c.43-.86.87-1.73,1.3-2.59,1.6.08,2.02,1.01,1.44,2.32-2.61,5.84-1.25,11.7-.16,17.55.48,2.58,1.17,5.12,1.77,7.68-.43.28-.87.57-1.3.85-1.06-4.73-2.11-9.46-3.17-14.19.02-.98.05-1.95.07-2.93,0-.91.01-1.82.02-2.73.01-1.98.02-3.97.03-5.95Z"/>
      <path class="cls-24" d="m118.4,166.86c.43-.28.87-.57,1.3-.85,3.16,4.05,5.84,8.45,9.78,11.91,1.02.89,2.41,2.52,1.37,4.45-3.72-4.02-7.44-8.04-11.16-12.06-.43-1.15-.86-2.3-1.29-3.45Z"/>
      <path class="cls-2" d="m144.22,133.78c3.1-.15,6.22-.13,9.29-.51,1.52-.19,2.95-1.13,4.43-1.74-.42,2.3-2.5,2.22-4.05,2.57-2.67.6-5.43,1.11-8.16,1.12-1.8,0-3.6-.91-5.41-1.41,1.3-.01,2.6-.02,3.9-.03Z"/>
      <path class="cls-2" d="m158.4,129.89c-1-.45-2-.89-2.99-1.34-1.62-.95-3.24-1.91-4.86-2.86,1.74.45,3.49.9,5.23,1.36.87.23,1.74.46,2.62.69,0,.72,0,1.44,0,2.15Z"/>
      <path class="cls-12" d="m194.91,175.49c-2.45-.26-5.12.74-7.24-1.31.15-.15.3-.3.46-.44,2.4.59,4.79,1.43,7.29.47-.17.43-.33.86-.5,1.29Z"/>
      <path class="cls-10" d="m144.22,133.78c-1.3.01-2.6.02-3.9.03-.85-.17-1.71-.35-2.56-.52-.29-.27-.58-.54-.87-.82.78.03,1.58-.03,2.33.12,1.68.34,3.33.79,4.99,1.19Z"/>
      <path class="cls-12" d="m172.6,184.5c-.02,1.59-.05,3.18-.07,4.77.02-1.59.05-3.18.07-4.77Z"/>
      <path class="cls-12" d="m172.52,190.48c.01.17.02.35.03.52-.13-.02-.26-.03-.4-.04.12-.16.24-.32.37-.48Z"/>
      <path class="cls-26" d="m137.77,125.57c-.46.4-.87,1-1.4,1.14-1.22.32-2.49.41-3.74.6.15-1.47,1.13-1.8,2.39-1.76.92.02,1.83.02,2.75.02Z"/>
      <path class="cls-9" d="m150.55,125.69c1.62.95,3.24,1.91,4.86,2.86-.76-.13-1.56-.14-2.26-.4-1.71-.64-3.37-1.39-5.05-2.1,0-.15.01-.3.02-.46.29-.03.57-.05.86-.08.53.06,1.05.11,1.58.17Z"/>
      <path class="cls-19" d="m192.42,318.74c-1.59,1.64-3.45,2.1-5.61,1.25,1.87-.42,3.74-.83,5.61-1.25Z"/>
      <path class="cls-26" d="m195.18,207.03c.67-1.27,1.16-2.67,2.05-3.76.9-1.11,2.18-1.92,3.29-2.87-.19.66-.18,1.5-.6,1.95-1.5,1.63-3.15,3.13-4.74,4.67Z"/>
      <path class="cls-9" d="m212.56,173.29c-.22,2.04-.44,4.07-.65,6.11-.19.41-.38.83-.57,1.24-.91-2.54-.32-6.04,1.23-7.35Z"/>
      <path class="cls-9" d="m209.67,184.52c.52-1.02,1.03-2.04,1.55-3.07-.52,1.02-1.03,2.04-1.55,3.07Z"/>
      <path class="cls-9" d="m208.36,186.73c.28-.45.57-.91.85-1.36-.28.45-.57.91-.85,1.36Z"/>
      <path class="cls-2" d="m312.89,163.73c-.29.03-.58.05-.87.08-.3-.1-.61-.19-.91-.29-.41-.18-.83-.36-1.24-.53,0-.29,0-.57,0-.86,1.01.53,2.02,1.07,3.03,1.6Z"/>
      <path class="cls-26" d="m314.58,165.2c-.15-.29-.31-.58-.46-.86.73.41,1.47.82,2.2,1.23-.29.01-.59.03-.88.04-.29-.13-.58-.27-.86-.4Z"/>
      <path class="cls-10" d="m309.86,162.13c0,.29,0,.57,0,.86-.58,0-1.16.01-1.74.02,0-.28,0-.57,0-.85.3-.06.59-.13.89-.19.28.05.56.11.85.17Z"/>
      <path class="cls-12" d="m243.59,176.77c.75.56,1.51,1.6,2.25,1.58,3.34-.07,4.44,1.88,4.81,4.7.05.35.18.68.28,1.02-3.25-2.15-5.79-5.43-9.92-6.13-.02-.65-.04-1.3-.06-1.94l.1-.09c.85.29,1.7.58,2.55.87Z"/>
      <path class="cls-26" d="m235.82,174.25c-.86-.61-1.72-1.22-2.58-1.83,1.3-.4,2.59-.79,3.89-1.19.25.14.5.28.76.42.32.29.64.58.96.87.13.13.26.26.4.39.19.83.39,1.65.58,2.48-1.33-.38-2.67-.76-4-1.14Z"/>
      <path class="cls-5" d="m239.82,175.39c-.19-.83-.39-1.65-.58-2.48.6,1,1.2,1.99,1.8,2.99,0,0-.1.09-.1.09-.37-.2-.74-.4-1.12-.6Z"/>
      <path class="cls-5" d="m238.84,172.52c-.32-.29-.64-.58-.96-.87.32.29.64.58.96.87Z"/>
      <path class="cls-10" d="m307.27,162.15c-.51.04-1.03.08-1.54.11-1,.06-2.03.29-2.99.12-1.25-.21-2.44-.74-3.66-1.14.81-.28,1.69-.9,2.41-.76,1.96.38,3.86,1.09,5.78,1.67Z"/>
      <path class="cls-5" d="m199.29,171.18c.44-2.65,1.47-3.39,3.48-2.5-1.16.83-2.32,1.67-3.48,2.5Z"/>
      <path class="cls-15" d="m118.4,166.86c.43,1.15.86,2.3,1.29,3.45-1.89,1.97-4.14,3.68-3.53,7,.18.96-.54,2.05-.64,3.1-.12,1.28-.01,2.58-.04,3.87-.02.71-.12,1.42-.18,2.13-.51-.22-1.06-.38-1.52-.68-2.8-1.78-4.93-4.64-8.64-4.99-.69-.07-1.43-1.47-1.84-2.39-2-4.4-.62-8.92-.36-13.41.07-1.24.35-2.69-.16-3.71-2.21-4.43-.95-8.27,1.59-12,.2-.29.45-.59.55-.92.94-3.14,2.87-3.68,6.03-3.12,2.39.42,2.36,1.85,2.71,3.36.25,1.1.26,2.26.53,3.36.08.32.7.5,1.06.74,1.05,4.73,2.11,9.46,3.17,14.19Z"/>
      <path class="cls-14" d="m115.32,147.01c0,.91-.01,1.82-.02,2.73-1.16-.92-1.19-1.83.02-2.73Z"/>
      <path class="cls-19" d="m222.04,317.85c-.71.69-1.42,1.38-2.13,2.07.71-.69,1.42-1.38,2.13-2.07Z"/>
      <path class="cls-19" d="m222.88,316.55c-.26.3-.52.59-.78.89.26-.3.52-.59.78-.89Z"/>
      <path class="cls-3" d="m308.13,163c.58,0,1.16-.01,1.74-.02.41.18.83.36,1.24.53.15.26.31.51.46.77,1.67,1.25,3.32,2.52,5.01,3.75.59.43,1.26.75,1.93,1.15-2.25,2.66-2.31,2.68-4.98,1.28-2.44-1.28-4.91-2.5-7.25-3.93-.7-.43-1.01-1.49-1.49-2.26.73-.28,1.46-.57,2.2-.85.38-.15.77-.28,1.16-.42Z"/>
      <path class="cls-10" d="m311.57,164.29c-.15-.26-.31-.52-.46-.77.3.1.61.19.91.29-.15.16-.3.32-.45.48Z"/>
      <path class="cls-10" d="m314.58,165.2c.29.13.58.27.86.4-.29-.13-.58-.27-.86-.4Z"/>
      <path class="cls-18" d="m240.99,177.94c4.14.7,6.68,3.99,9.92,6.13.29.29.58.57.86.86.32,2.16.63,4.33.95,6.49-.34,1.56-.67,3.12-1.01,4.68-.55.58-1.1,1.17-1.66,1.75-.21-.53-.41-1.06-.62-1.58.39-1.66,1.06-3.31,1.09-4.98.05-2.09.31-4.43-1.82-5.92-.37-.57-.6-1.4-1.12-1.65-1.86-.88-3.81-1.56-5.73-2.32-.45-1.01-.89-2.02-1.34-3.04.15-.14.31-.28.46-.42Z"/>
      <path class="cls-12" d="m252.74,191.42c-.32-2.16-.63-4.33-.95-6.49.43.15.86.3,1.29.45.14,1.45.37,2.89.39,4.34,0,.57-.47,1.14-.72,1.71Z"/>
      <path class="cls-20" d="m173.42,193.11c.47-.16.94-.31,1.41-.47.55.46,1.1.91,1.64,1.36,2.47,4.35,6.52,5.96,11.2,6.48-.55.2-1.09.47-1.65.58-.67.13-1.36.13-2.3.2.64.78,1,1.22,1.36,1.66-2.5-.61-5-1.21-7.51-1.81,0-.15-.08-.24-.24-.28-.71-.71-1.43-1.41-2.14-2.12-.59-1.87-1.19-3.74-1.78-5.61Z"/>
      <path class="cls-12" d="m173.42,193.11c.59,1.87,1.19,3.74,1.78,5.61-.44.43-.87.86-1.31,1.29.19-2.23-.04-4.34-1.72-6.04.13-.57.26-1.15.39-1.72.29.29.57.58.86.86Z"/>
      <path class="cls-29" d="m177.35,200.85c.16.04.24.13.24.28-.65,1.34-1.31,2.68-1.96,4.03.15-1.11.19-2.24.49-3.31.12-.42.81-.67,1.23-1Z"/>
      <path class="cls-17" d="m185.09,202.94c-.36-.44-.72-.88-1.36-1.66.93-.08,1.63-.07,2.3-.2.57-.11,1.1-.38,1.65-.58.71-.18,1.42-.36,2.14-.55.63.24,1.25.48,2.09.81-.56.74-1.11,1.46-1.66,2.18-.86.04-1.72.09-2.57.13-.58,0-1.16,0-1.73,0-.28-.05-.57-.09-.85-.14Z"/>
      <path class="cls-29" d="m185.94,203.08c.58,0,1.16,0,1.73,0-.55,1.2-1.1,2.41-1.69,3.71-1.31-.15-1.66-.66-.8-1.89.37-.52.51-1.21.75-1.82Z"/>
      <path class="cls-7" d="m248.73,185.37c2.13,1.5,1.86,3.83,1.82,5.92-.04,1.67-.7,3.32-1.09,4.98-1.85,3-5.07,3.63-8.04,4.7-.26.04-.52.08-.78.13-.12-.08-.26-.1-.4-.08-3.64-.5-5.79-3.32-8.41-5.41-.07-.41-.13-.83-.2-1.24,2.22.02,4.43.07,6.65.06,4.86-.01,6.54-1.25,8.38-5.78.48-1.18,1.38-2.18,2.08-3.27Z"/>
      <path class="cls-17" d="m240.23,201.01c.15-.02.28,0,.4.08-.07.09-.13.18-.2.28-.07-.12-.14-.24-.21-.36Z"/>
      <path class="cls-22" d="m240.54,178.36c.45,1.01.89,2.02,1.34,3.04-2.71-.22-5.12.53-7.31,2.12-.68.49-1.43.88-2.15,1.31-.54-.53-1.08-1.06-1.61-1.58,1.23-2.61,3.96-3.1,6.15-4.36.23-.13.42-.31.64-.46.98-.02,1.97-.04,2.95-.06Z"/>
      <path class="cls-10" d="m240.54,178.36c-.99.02-1.97.04-2.95.06-.21-.84-.33-1.7-.65-2.5-.24-.61-.73-1.12-1.11-1.67,1.33.38,2.67.76,4,1.14.37.2.74.4,1.12.6.02.65.04,1.3.06,1.95-.15.14-.31.28-.46.42Z"/>
      <path class="cls-13" d="m232.41,184.83c.72-.43,1.48-.82,2.15-1.31,2.19-1.6,4.6-2.34,7.31-2.12,1.92.76,3.87,1.44,5.73,2.32.52.25.76,1.08,1.12,1.65-.7,1.08-1.6,2.09-2.08,3.27-1.84,4.53-3.52,5.77-8.38,5.78-2.22,0-4.43-.04-6.65-.06-1.83-3.35-.8-6.46.79-9.53Z"/>
      <path class="cls-8" d="m176.48,194.01c-.55-.45-1.1-.91-1.64-1.36-.02-1.43-.14-2.86-.02-4.28.16-1.82-.64-3.73.94-5.44,2.6-2.82,5.19-5.51,9.32-5.81,2.63-.07,5.29-.1,7.46,1.69.92.76,1.64,1.78,2.45,2.68-.15.53-.23,1.08-.45,1.58-1.02,2.32-1.74,4.87-3.21,6.86-1.9,2.59-4.86,3.59-8.13,3.63-2.24.02-4.48.29-6.72.45Z"/>
      <path class="cls-7" d="m176.48,194.01c2.24-.16,4.48-.43,6.72-.45,3.28-.03,6.23-1.04,8.13-3.63,1.47-2,2.19-4.55,3.21-6.86.22-.5.3-1.05.45-1.58,3.53,1.88,3.91,9.73,1.45,13.04-1.79,2.41-3.76,4.41-6.62,5.42-.71.18-1.42.36-2.14.55-4.68-.52-8.73-2.14-11.2-6.48Z"/>
    </g>
  </g>
</svg>